<svg xmlns="http://www.w3.org/2000/svg" width="230.99" height="231.009" viewBox="0 0 230.99 231.009"><defs><style>.a{fill:#e9e9e9;}</style></defs><path class="a" d="M890.75,765.761c-25.536-19.384-42.294-47.209-45.744-87.756v-9c2.165-34.33,16.367-59.5,34.871-78.007,18.478-18.482,44.88-31.531,79.865-33h1.875c34.34,1.281,57.48,13.765,76.49,30.378-1.754,3-4.577,4.923-6.374,7.875-19.117-15.314-40.151-28.063-71.617-27.752-30.542.3-54.188,12.6-71.24,28.127a104.975,104.975,0,0,0-10.5,142.511c14.944,18.626,35.4,32.381,61.868,37.5,29.908,5.788,59.683-2.58,79.49-16.125a107.379,107.379,0,0,0,41.62-57.755c7.565-25.825,3.99-60.719-9.749-81.006,1.793-3.232,4.677-7.292,7.5-8.251,8.259,14.274,14.771,30.647,16.5,50.63a114.846,114.846,0,0,1-9.749,56.255,117.689,117.689,0,0,1-70.116,63.38A105.994,105.994,0,0,1,962.385,789C934.5,789.005,908,778.858,890.75,765.761ZM905,670.88c1.129-.22,5.267-7.8,7.124-7.876,1.042-.045,4.011,4.126,5.249,5.251,12.121,11.01,26.365,24.047,37.12,34.5,34.248-39.5,67.881-79.617,101.613-119.634,2.885,1.865,5.04,4.459,7.874,6.376-35.593,43.159-72.307,85.188-107.987,128.26C938.588,702.536,922.253,686.248,905,670.88Z" transform="translate(-845.005 -557.995)"/></svg>