<svg xmlns="http://www.w3.org/2000/svg" width="39.627" height="37.46" viewBox="0 0 39.627 37.46"><defs><style>.a{fill:#1492e6;}</style></defs><path class="a" d="M2.1,25.143h6.72a2.106,2.106,0,0,1,2.1,2.1v7.735H13.44a5.774,5.774,0,0,1-.158-1.8h0A16.87,16.87,0,0,1,14.871,25.8a7.917,7.917,0,0,1,2.46-2.965,5.383,5.383,0,0,1-1.44-3.812,4.925,4.925,0,1,1,9.849,0,.58.58,0,0,1-.58.58h-.394a4.087,4.087,0,0,1,.056.669,4.031,4.031,0,0,1-3.238,3.948,9.784,9.784,0,0,1,.289,2.525l1.448,1.245,3.523.285L30.9,26.932a1.231,1.231,0,0,1,1.161,0,1.031,1.031,0,0,1,.361.866V30.82a.58.58,0,0,1-.58.58h-.691l1.06,3.663a.581.581,0,0,1-1.115.323L29.946,31.4H28.3c2.053,6.259.881,10.437-.919,14.666h1.043l4.346-4.859-.919-3.175a.58.58,0,0,1,1.115-.323l.879,3.037a5.839,5.839,0,0,1,5.77,4.526.58.58,0,0,1-.436.7l-.824.19a4.441,4.441,0,0,1-8.583,1.975l-.65.15a.758.758,0,0,1-.561-.031.666.666,0,0,1-.327-.445,5.775,5.775,0,0,1-.094-.578H16a4.946,4.946,0,0,1-9.79,0H5.657a.8.8,0,0,1-.6-.219.744.744,0,0,1-.205-.564,6.58,6.58,0,0,1,.238-1.572,9.056,9.056,0,0,1,.642-5.855,1.528,1.528,0,0,1-.693-1.279v-1.6H2.1a2.106,2.106,0,0,1-2.1-2.1V27.247a2.106,2.106,0,0,1,2.1-2.1Zm30.088,24.22a3.256,3.256,0,0,0,2.476.417h0a3.289,3.289,0,0,0,2.543-3.36l-6.3,1.449a3.263,3.263,0,0,0,1.278,1.493Zm-2.9-2.312,9.03-2.078a4.675,4.675,0,0,0-4.622-3.063l-4.423,4.946Q29.277,46.955,29.286,47.052ZM20.518,36.936a5.168,5.168,0,0,1,.168,1.751v2.19h2.126V37.872c0-3.4-1.854-4-2.686-4.1H14.435a2.461,2.461,0,0,0,.527,1.667,2.7,2.7,0,0,0,2.014.6l2.084,0a1.4,1.4,0,0,1,1.459.894Zm.168,5.1v1.386h4.139a1.654,1.654,0,0,0-.4-.993,1.432,1.432,0,0,0-1.033-.393Zm-6.226-9.43H19.74A21.676,21.676,0,0,0,20.3,30.46l-1.6-1.042a2.4,2.4,0,0,1-1.251-2.206,2.052,2.052,0,0,1,1.279-1.68,2.1,2.1,0,0,1,1.948.215,6.854,6.854,0,0,0-.28-1.472,4.092,4.092,0,0,1-.734-.145,4.809,4.809,0,0,1-1.355-.537c-1.118.668-3.577,2.834-3.837,9.015ZM24.536,18.442a3.758,3.758,0,0,0-7.485.58,3.942,3.942,0,0,0,2.169,3.742V19.71a1.155,1.155,0,0,1,1.166-1.265l.053,0Zm-.877,1.83a2.891,2.891,0,0,0-.077-.669H20.468c-.036,0-.062.008-.081.012a.69.69,0,0,0-.006.095v3.4a2.871,2.871,0,0,0,.417.031h0a2.865,2.865,0,0,0,2.857-2.864Zm.753,8.972-1.375-.111a.581.581,0,0,1-.332-.138L20.224,26.86h0a1.153,1.153,0,0,0-.745-.313.894.894,0,0,0-.882.779,1.28,1.28,0,0,0,.727,1.119l2.765,1.795h2.324v-1Zm2.453.2-1.292-.1v.9h1.5c.195,0,.242-.162.248-.3A.461.461,0,0,0,26.865,29.442Zm1.374-.4a1.677,1.677,0,0,1,.214,1.193s0,0,0,0h2.812v-2.2l-3.029,1,0,0ZM27.071,31.4H21.916a.58.58,0,0,1-.316-.094l-.263-.171c-.126.559-.27,1.1-.427,1.616,1.184.349,3.063,1.479,3.063,5.12v3.063a2.423,2.423,0,0,1,1.292.694,2.831,2.831,0,0,1,.726,1.795h1.171A17.071,17.071,0,0,0,27.071,31.4Zm-.957,14.664c.215-.493.421-.985.616-1.478H20.7c-.781,0-1.177-.356-1.177-1.057V39.267H14.944a.58.58,0,1,1,0-1.161h4.578a2.628,2.628,0,0,0-.089-.759c-.029-.077-.055-.144-.374-.144l-2.084,0a3.745,3.745,0,0,1-2.855-.965c-.028-.03-.055-.062-.082-.093H6.2v1.6a.373.373,0,0,0,.367.368h5.779a.58.58,0,1,1,0,1.161H6.9a6.853,6.853,0,0,0-.847,3.585,6.3,6.3,0,0,1,9.595-.749,6.4,6.4,0,0,1,1.825,3.962ZM11.1,50.3a3.825,3.825,0,0,0,3.715-3.072H7.387A3.825,3.825,0,0,0,11.1,50.3ZM6.728,46.066h9.583a5.207,5.207,0,0,0-5.136-4.673,5.151,5.151,0,0,0-4.94,3.691l-.007.02a5.358,5.358,0,0,0-.192.962ZM1.161,34.039a.944.944,0,0,0,.942.943H9.765v-3h-8.6Zm0-3.215h8.6V29.589h-8.6Zm0-2.4h8.6v-1.18a.944.944,0,0,0-.942-.943H2.1a.944.944,0,0,0-.942.943Z" transform="translate(0 -14)"/></svg>