<svg xmlns="http://www.w3.org/2000/svg" width="37.46" height="37.46" viewBox="0 0 37.46 37.46"><defs><style>.a{fill:#1492e6;}</style></defs><path class="a" d="M.381,8.6,14.97.591a.732.732,0,0,1,.7,0l5.5,3.019a.734.734,0,0,1,.314.173L30.264,8.6a.731.731,0,0,1,.38.641v9.689A9.747,9.747,0,0,1,36.474,32.5a.732.732,0,0,1-1.315-.642,8.272,8.272,0,1,0-3.8,3.8A.732.732,0,0,1,32,36.973a9.753,9.753,0,0,1-13.172-4.786l-3.153,1.731a.732.732,0,0,1-.7,0L.381,25.907A.732.732,0,0,1,0,25.265V20.181a.732.732,0,0,1,1.463,0v4.652l13.124,7.206V17.686l-4.331-2.378v3.77a.732.732,0,0,1-1.084.641L6.047,18a.731.731,0,0,1-.379-.641v-4.57l-4.2-2.308v3.848a.732.732,0,1,1-1.463,0V9.243A.732.732,0,0,1,.381,8.6ZM15.322,2.067,2.253,9.243l4.123,2.264L19.445,4.33Zm0,14.353L28.392,9.243,24.118,6.9l-13.07,7.176ZM9.528,13.238,22.6,6.062l-1.632-.9L7.9,12.342Zm11.312,8.1a9.671,9.671,0,0,1,6.884-2.851,9.868,9.868,0,0,1,1.455.107V10.48L16.051,17.689V32.041L18.33,30.79a9.782,9.782,0,0,1-.34-2.566,9.671,9.671,0,0,1,2.851-6.883ZM7.131,16.925l1.663.915V14.5l-1.663-.913Zm0,0" transform="translate(-0.001 -0.501)"/><path class="a" d="M492.732,219.441a.732.732,0,1,1-.517.214A.737.737,0,0,1,492.732,219.441Zm0,0" transform="translate(-492 -203.422)"/><path class="a" d="M73.16,326.4a.731.731,0,0,1-.517-1.249l.507-.507H68.826a1.9,1.9,0,1,0,0,3.8h2.562a.731.731,0,1,1,0,1.463H68.826a3.365,3.365,0,1,1,0-6.731H73.15l-.507-.507a.732.732,0,0,1,1.035-1.035l1.756,1.756a.732.732,0,0,1,0,1.035l-1.756,1.756A.729.729,0,0,1,73.16,326.4Zm0,0" transform="translate(-42.977 -297.941)"/><path class="a" d="M36.8,457.9a.728.728,0,0,0,.559-.26v0a.73.73,0,1,0-.56.262Zm0,0" transform="translate(-2.71 -423.074)"/></svg>