<svg xmlns="http://www.w3.org/2000/svg" width="8.436" height="13.64" viewBox="0 0 8.436 13.64"><defs><style>.a{fill:#d2000a;}</style></defs><g transform="translate(-18.46 0)"><g transform="translate(18.46 0)"><path class="a" d="M36.427,8.874A6.032,6.032,0,0,0,35.9,6.968a7.329,7.329,0,0,0-1-1.594c-.114-.14-.23-.274-.29-.336l-.138-.151c-.034-.039-.062-.07-.09-.1l-.041-.042c-.045-.045-.092-.092-.13-.14L34.2,4.6c-.019-.021-.039-.041-.061-.064a1.271,1.271,0,0,1-.092-.1l-.012-.014c-.21-.231-.387-.441-.541-.642a4.285,4.285,0,0,1-.412-.636,2.923,2.923,0,0,1-.271-.77,4.716,4.716,0,0,1-.1-.864,7.289,7.289,0,0,1,.027-.787c.013-.152.028-.286.042-.405a.282.282,0,0,0-.351-.306,3.179,3.179,0,0,0-.409.138,3.727,3.727,0,0,0-.838.484,3.96,3.96,0,0,0-.9.958,4.182,4.182,0,0,0-.629,1.555A4.938,4.938,0,0,0,29.7,5.1a5.948,5.948,0,0,0,.756,1.843,6.658,6.658,0,0,0,.554.77c.054.067.2.24.2.242l.059.068c.041.047.071.082.1.118s.051.061.077.088l0,0c.282.337.481.585.645.8.181.241.341.475.487.714a4.043,4.043,0,0,1,.351.7,3.3,3.3,0,0,1,.184.82,4.864,4.864,0,0,1,0,.874c-.026.3-.073.576-.11.777-.028.138-.055.265-.079.374a.282.282,0,0,0,.275.344.29.29,0,0,0,.054-.005,2.967,2.967,0,0,0,.386-.1,3.762,3.762,0,0,0,.863-.413,3.982,3.982,0,0,0,.966-.867,4.359,4.359,0,0,0,.769-1.462A4.939,4.939,0,0,0,36.427,8.874Z" transform="translate(-28.016 0)"/><path class="a" d="M21.344,56.273a3.343,3.343,0,0,0-.456-.727c-.047-.057-.1-.123-.13-.151l-.065-.071-.042-.045-.018-.018c-.021-.021-.041-.042-.059-.062l-.01-.011-.024-.025c-.014-.015-.028-.029-.04-.044l-.01-.011c-.093-.1-.173-.2-.243-.289a2.038,2.038,0,0,1-.189-.292,1.34,1.34,0,0,1-.124-.352,2.167,2.167,0,0,1-.043-.394,3.114,3.114,0,0,1,.009-.312.282.282,0,0,0-.4-.275,1.775,1.775,0,0,0-.3.186,1.808,1.808,0,0,0-.408.437,1.9,1.9,0,0,0-.287.709,2.254,2.254,0,0,0,.016.892,2.718,2.718,0,0,0,.346.843,3.063,3.063,0,0,0,.25.348c.024.029.075.088.1.115h0l.025.028.048.056c.012.015.022.027.031.036l0,0c.087.1.2.24.295.367.083.11.156.217.222.326a1.824,1.824,0,0,1,.16.32,1.513,1.513,0,0,1,.084.376,2.222,2.222,0,0,1,0,.4c-.008.089-.02.183-.038.287a.282.282,0,0,0,.384.309,1.769,1.769,0,0,0,.287-.149,1.816,1.816,0,0,0,.442-.4,1.99,1.99,0,0,0,.351-.667,2.292,2.292,0,0,0,.082-.875A2.763,2.763,0,0,0,21.344,56.273Z" transform="translate(-18.46 -45.672)"/></g></g></svg>