<svg xmlns="http://www.w3.org/2000/svg" width="86" height="52" viewBox="0 0 86 52"><defs><style>.a{fill:#877d5c;}.b{fill:#d6d5d6;}.c{fill:#999591;}</style></defs><g transform="translate(-136 -2779)"><path class="a" d="M423.74,67.238H364.035a.379.379,0,0,0,0,.755H423.74a.379.379,0,0,0,0-.755Z" transform="translate(-216.08 2755.171)"/><path class="b" d="M414.469,47.365a1.122,1.122,0,0,0,1.177,1.237,2.68,2.68,0,0,0,2.719-2.448c0-.722-.471-1.34-1.542-1.34A2.558,2.558,0,0,0,414.469,47.365Z" transform="translate(-216.08 2755.171)"/><path class="b" d="M437.949,57.389c-.131,0-.34.181-.5.438-.313.515-2.117,3.917-3.268,3.917-.287,0-.418-.206-.418-.541,0-1.572,2.536-6.03,2.536-8.942,0-.954-.392-2.345-1.935-2.345-1.36,0-2.693,1.881-3.765,4.3a13.439,13.439,0,0,0,.6-2.4,1.224,1.224,0,0,0-1.281-1.185.949.949,0,0,0-.967.67,67.113,67.113,0,0,0-1.69,6.63,2.907,2.907,0,0,1-2.493,1.514,13.063,13.063,0,0,0,1.386-5.566c0-2.216-.863-3.969-2.955-3.969-1.647,0-2.719,1.237-3.216,2.86-.654-.1-1.1.515-1.307.979a12.377,12.377,0,0,0-1.121,4.118c-.329.659-1.724,3.639-2.67,3.639-.34,0-.471-.31-.471-.851,0-1.984,2.17-8.195,2.17-9.561a1.3,1.3,0,0,0-1.36-1.314,1.013,1.013,0,0,0-1.046.67c-.675,2.443-1.326,5.288-1.7,7.419-.738,1.187-2.049,3.945-3.055,3.945-.392,0-.549-.412-.549-1.082,0-1.855,1.229-5.85,2.223-9.251,1.909-.206,2.876-.464,2.876-.825s-1.2-.438-2.484-.541a14.613,14.613,0,0,0,.679-2.809,1.279,1.279,0,0,0-1.359-1.289,1.029,1.029,0,0,0-1.072.645c-.34,1.057-.654,2.165-.967,3.324-.418-.026-.837-.026-1.229-.026-.288,0-.471.412-.471.8,0,.335.131.67.445.7l.836.078c-.565,2.275-1.03,4.529-1.3,6.322a2.915,2.915,0,0,1-2.541,1.589,13.057,13.057,0,0,0,1.386-5.566c0-2.216-.863-3.969-2.955-3.969-1.647,0-2.719,1.237-3.216,2.86-.654-.1-1.1.515-1.307.979a12.378,12.378,0,0,0-1.121,4.116c-.332.653-1.857,4.234-2.959,4.234-.34,0-.444-.232-.444-.644,0-1.7,2.223-6.339,2.223-9.2a1.9,1.9,0,0,0-1.935-2.165c-1.229,0-2.354,1.572-3.242,3.685.366-1.6.549-3.685-1.725-3.685-1.229,0-2.275,1.211-3.138,2.964a4.462,4.462,0,0,0,.287-1.237,1.224,1.224,0,0,0-1.282-1.185.949.949,0,0,0-.967.67c-.583,1.94-1.133,4.41-1.54,6.516l0,0a2.921,2.921,0,0,1-2.563,1.625,13.063,13.063,0,0,0,1.386-5.566c0-2.216-.863-3.969-2.955-3.969-1.647,0-2.719,1.237-3.216,2.86-.654-.1-1.1.515-1.307.979a11.414,11.414,0,0,0-.474,1.15c-.529.949-1.288,1.995-1.932,1.995a.528.528,0,0,1-.6-.567c0-.9,1.255-3.3,1.255-4.742,0-1.108-.366-1.675-1.333-1.675-1.282,0-2.432,1.443-3.373,3.427A7.27,7.27,0,0,0,367.9,51.8a1.215,1.215,0,0,0-1.281-1.134.969.969,0,0,0-.994.644,64.314,64.314,0,0,0-1.557,6.7c-1.232,2.438-2.632,3.852-4.954,4.355,2.17-1.778,3.818-6,3.818-9.045,0-1.856-.654-3.376-2.249-3.376-1.125,0-2.066,1.134-2.824,2.758a4.575,4.575,0,0,0,.209-1.031,1.036,1.036,0,0,0-1.124-.979,1.223,1.223,0,0,0-1.2.928c-1.02,3.633-3.661,16.648-3.661,17.5a1.032,1.032,0,0,0,1.125,1.108c.471,0,.915-.155.968-.773.078-.928.627-3.634,1.307-6.7a3.7,3.7,0,0,0,2.3.567,6.286,6.286,0,0,0,5.975-3.339,17.97,17.97,0,0,0-.2,2.179,1.014,1.014,0,0,0,.994,1.134.952.952,0,0,0,.967-.85l.418-2.732c.68-4.355,2.824-8.04,3.713-8.04.183,0,.261.129.261.309,0,.8-1.151,2.526-1.151,3.943A1.806,1.806,0,0,0,370.8,57.9a3.085,3.085,0,0,0,2.127-1.06,11.828,11.828,0,0,0-.191,2.091c0,2.371.863,4.3,2.955,4.3,1.49,0,2.876-1.263,3.9-3.04a4.069,4.069,0,0,0,2.744-1.09,28.61,28.61,0,0,0-.443,3.074,1.008,1.008,0,0,0,1.072,1,.978.978,0,0,0,1.046-.747c.889-5.592,2.981-10.72,4.183-10.72.287,0,.419.36.419.927,0,2.217-1.8,8.247-1.8,9.354a1.17,1.17,0,0,0,1.229,1.212,1.034,1.034,0,0,0,1.072-.722c.314-1.494.627-2.835.889-4.046,1.124-4.175,2.8-6.752,3.477-6.752.261,0,.366.232.366.619,0,1.7-2.066,6.468-2.066,8.71a2.038,2.038,0,0,0,2.04,2.268c1.612,0,2.777-2.16,3.45-3.74.141,2.081,1.024,3.689,2.931,3.689,1.49,0,2.876-1.263,3.9-3.04a4.069,4.069,0,0,0,2.8-1.143,13.781,13.781,0,0,0-.105,1.5c0,1.933.863,2.654,1.883,2.654,1.441,0,2.71-1.818,3.518-3.324-.026.261-.04.489-.04.669,0,1.933.863,2.654,1.882,2.654,1.572,0,2.794-2.163,3.5-3.724.128,2.11,1.01,3.75,2.936,3.75,1.49,0,2.876-1.263,3.9-3.04a4.069,4.069,0,0,0,2.693-1.043c-.144.864-.273,1.763-.392,2.744,0,.077-.026.154-.026.232a1.123,1.123,0,0,0,1.151,1.159,1.036,1.036,0,0,0,1.072-.85c.079-.567.183-1.186.314-1.907l.078-.181c1.02-4.664,3.321-8.659,4.288-8.659.288,0,.419.283.419.619,0,1.726-2.51,6.391-2.51,8.71a2.037,2.037,0,0,0,2.039,2.268c2.275,0,4.184-4.329,4.5-5.257a1.357,1.357,0,0,0,.1-.464C438.08,57.441,438.027,57.389,437.949,57.389Zm-81.137,4.562a1.349,1.349,0,0,0-.994-.593l.863-3.737c.863-3.3,2.013-5.824,3.033-5.824.471,0,.68.541.68,1.469C360.395,56.024,358.59,61.642,356.813,61.951Zm19.585.026a.741.741,0,0,1-.236.026c-.863,0-1.2-1.031-1.2-2.4a11.525,11.525,0,0,1,.288-2.422,4.092,4.092,0,0,0,2.589,2.757C377.391,61.1,376.894,61.9,376.4,61.977Zm1.751-2.938a4.187,4.187,0,0,1-1.7-3.763c0-2.242.941-4.381,1.83-4.381.628,0,.863.979.863,2.319A21.588,21.588,0,0,1,378.149,59.039ZM400.9,61.977a.738.738,0,0,1-.235.026c-.863,0-1.2-1.031-1.2-2.4a11.522,11.522,0,0,1,.287-2.422,4.093,4.093,0,0,0,2.589,2.757C401.892,61.1,401.4,61.9,400.9,61.977Zm1.752-2.938a4.188,4.188,0,0,1-1.7-3.763c0-2.242.941-4.381,1.831-4.381.628,0,.863.979.863,2.319A21.6,21.6,0,0,1,402.65,59.039Zm18.512,2.938a.738.738,0,0,1-.235.026c-.863,0-1.2-1.031-1.2-2.4a11.52,11.52,0,0,1,.287-2.422,4.093,4.093,0,0,0,2.589,2.757C422.156,61.1,421.66,61.9,421.163,61.977Zm1.752-2.938a4.188,4.188,0,0,1-1.7-3.763c0-2.242.941-4.381,1.831-4.381.628,0,.863.979.863,2.319A21.587,21.587,0,0,1,422.914,59.039Z" transform="translate(-216.08 2755.171)"/><path class="a" d="M376.344,74.809l-.021.059a2.174,2.174,0,0,1-.115.242,1.024,1.024,0,0,1-.161.235l0,0h0a.3.3,0,0,1-.16.047c-.089.009-.2.01-.326.01a.58.58,0,0,1-.275-.033l-.026-.043a.547.547,0,0,1-.012-.136v-.584h.151c.174,0,.207.043.242.077l0,.007a.763.763,0,0,1,.076.262l0,.085h.328v-1.18h-.323l-.008.08a.9.9,0,0,1-.032.155.307.307,0,0,1-.045.1c-.032.028-.06.067-.246.071h-.151v-.714h.288a2.872,2.872,0,0,1,.314.019A.387.387,0,0,1,376,73.7a.77.77,0,0,1,.136.226l.019.063h.3v-.773h-2.3v.327l.084.006a1.516,1.516,0,0,1,.3.056c.054.028.054.037.058.074v1.632l-.01.047-.038.023h0a1.061,1.061,0,0,1-.141.023c-.064.008-.131.014-.166.016l-.084.006v.327h2.418l.007-.081.072-.861h-.309Z" transform="translate(-216.08 2755.171)"/><path class="a" d="M379.482,73.459v.08l.081.008a2.1,2.1,0,0,1,.211.037.963.963,0,0,1,.2.063h0c.017.007.038.032.051.1a1.471,1.471,0,0,1,.017.271v.758l-1.207-1.564h-1.127v.327l.084.006a1.283,1.283,0,0,1,.241.051.878.878,0,0,1,.194.078.263.263,0,0,1,.076.19v1.085a1.291,1.291,0,0,1-.023.28.169.169,0,0,1-.054.106h0a1.161,1.161,0,0,1-.163.048,1.5,1.5,0,0,1-.176.033l-.084.005v.327h1.462v-.327l-.084-.005a2.011,2.011,0,0,1-.22-.041c-.047-.011-.092-.023-.128-.034l-.044-.015-.012,0a.2.2,0,0,1-.054-.11,1.191,1.191,0,0,1-.027-.284v-.891l1.359,1.745h.385V74a1.438,1.438,0,0,1,.018-.268c.014-.069.036-.1.051-.106a.924.924,0,0,1,.156-.047,1.4,1.4,0,0,1,.181-.033l.085-.005v-.328h-1.453Z" transform="translate(-216.08 2755.171)"/><path class="a" d="M382.447,73.459v.084l.085,0a1.41,1.41,0,0,1,.318.056c.054.028.054.037.058.074v1.254a.831.831,0,0,1-.078.416.315.315,0,0,1-.212.146.361.361,0,0,0,.048-.179.368.368,0,0,0-.1-.26.376.376,0,0,0-.274-.11.394.394,0,0,0-.385.4.432.432,0,0,0,.166.33.8.8,0,0,0,.523.155,1.019,1.019,0,0,0,.7-.27.731.731,0,0,0,.255-.492v-1.4c0-.045.006-.054.048-.069h0a1.983,1.983,0,0,1,.293-.045l.085-.005v-.328h-1.537Z" transform="translate(-216.08 2755.171)"/><path class="a" d="M387.528,73.536h0a1.4,1.4,0,0,0-1.926,0,1.28,1.28,0,0,0-.391.974,1.232,1.232,0,0,0,.428.953h0a1.321,1.321,0,0,0,.9.351,1.365,1.365,0,0,0,.949-.357h0a1.353,1.353,0,0,0,.035-1.921Zm-.5,1.658a.554.554,0,0,1-.947-.005,1.36,1.36,0,0,1-.16-.7,1.326,1.326,0,0,1,.176-.738.522.522,0,0,1,.456-.243.528.528,0,0,1,.49.287,1.409,1.409,0,0,1,.147.68A1.378,1.378,0,0,1,387.032,75.194Z" transform="translate(-216.08 2755.171)"/><path class="a" d="M390.527,73.459v.082l.083.007a1.45,1.45,0,0,1,.252.04l.064.025c-.022.043-.073.132-.145.242s-.178.273-.293.445c-.123-.2-.232-.378-.309-.508-.046-.078-.083-.141-.107-.187l-.008-.016a.805.805,0,0,1,.112-.023c.07-.01.146-.016.188-.018l.086,0v-.329h-1.527v.328l.085.005a.9.9,0,0,1,.254.053.5.5,0,0,1,.172.181c.151.241.313.506.473.8h0a.528.528,0,0,1,.092.2V75.3l-.01.049-.041.027c-.011,0-.089.014-.163.022s-.162.016-.2.018l-.084.005v.327h1.639v-.328l-.085,0c-.033,0-.121-.014-.2-.027l-.107-.019-.037-.008-.011,0h0l-.047-.032-.01-.04v-.339a.733.733,0,0,1,.067-.325,5.413,5.413,0,0,1,.588-.88.439.439,0,0,1,.164-.139h0a.677.677,0,0,1,.108-.032,1.082,1.082,0,0,1,.122-.024l.081-.008v-.325h-1.257Z" transform="translate(-216.08 2755.171)"/><path class="a" d="M396.447,74.249c-.17-.068-.349-.1-.531-.175a.523.523,0,0,1-.211-.133.27.27,0,0,1-.052-.182.232.232,0,0,1,.1-.2.287.287,0,0,1,.153-.059.606.606,0,0,1,.469.172,1.084,1.084,0,0,1,.226.447l.019.063h.313l-.042-1.005h-.266l-.1.124a1.071,1.071,0,0,0-.521-.148.991.991,0,0,0-.619.207.694.694,0,0,0-.271.546.8.8,0,0,0,.12.453.77.77,0,0,0,.363.282c.216.091.353.111.55.181a.619.619,0,0,1,.248.136.224.224,0,0,1,.06.167.323.323,0,0,1-.084.244.4.4,0,0,1-.287.089.608.608,0,0,1-.469-.182,1.287,1.287,0,0,1-.257-.479l-.02-.06h-.305l.035,1.045h.268l.106-.129a1.258,1.258,0,0,0,.622.158,1.032,1.032,0,0,0,.678-.234.777.777,0,0,0,.277-.6.7.7,0,0,0-.144-.461A1.012,1.012,0,0,0,396.447,74.249Z" transform="translate(-216.08 2755.171)"/><path class="a" d="M400.7,75.361h0a.174.174,0,0,1-.092-.1c-.129-.317-.487-1.163-.85-2.024l-.023-.055H399.4l-.023.055c-.271.64-.565,1.346-.824,1.92a.436.436,0,0,1-.158.205.626.626,0,0,1-.118.034,1.168,1.168,0,0,1-.148.023l-.084.005v.327h1.339v-.323l-.08-.009a1.882,1.882,0,0,1-.26-.045.45.45,0,0,1-.1-.039l-.007-.005a.612.612,0,0,1,.033-.144c.029-.083.048-.13.089-.234h.733l.166.393,0,.015a.511.511,0,0,1-.121.034,1.915,1.915,0,0,1-.2.024l-.084.006v.327h1.5v-.321l-.077-.011A1.247,1.247,0,0,1,400.7,75.361ZM399.2,74.6l.216-.524.219.524Z" transform="translate(-216.08 2755.171)"/><path class="a" d="M404.169,74.756l-.019.064a1.6,1.6,0,0,1-.292.509.61.61,0,0,1-.4.086.554.554,0,0,1-.277-.038l-.028-.045a.459.459,0,0,1-.013-.129V73.668l.051-.071a1.44,1.44,0,0,1,.311-.049l.085-.005v-.328h-1.512v.328l.084.005a1.363,1.363,0,0,1,.276.061h0l.042.028.011.048v1.622c-.006.043,0,.049-.052.071a2.161,2.161,0,0,1-.3.039l-.085.005v.327H404.4l.007-.081.083-.915h-.319Z" transform="translate(-216.08 2755.171)"/><path class="a" d="M407.776,74.809l-.021.059a2.078,2.078,0,0,1-.115.242,1.039,1.039,0,0,1-.161.235l0,0h0a.3.3,0,0,1-.16.047c-.089.009-.2.01-.326.01a.582.582,0,0,1-.276-.033l-.025-.043a.547.547,0,0,1-.012-.136v-.584h.151c.174,0,.207.043.242.077l0,.007a.764.764,0,0,1,.076.262l0,.085h.328v-1.18h-.323l-.008.08a.893.893,0,0,1-.032.155.306.306,0,0,1-.045.1c-.032.028-.06.067-.246.071h-.151v-.714h.288a2.879,2.879,0,0,1,.314.019.387.387,0,0,1,.152.127.769.769,0,0,1,.136.226l.019.063h.3v-.773h-2.3v.327l.084.006a1.517,1.517,0,0,1,.3.056c.054.028.054.037.058.074v1.632l-.01.047-.038.023h0a1.062,1.062,0,0,1-.141.023c-.064.008-.131.014-.166.016l-.084.006v.327h2.419l.007-.081.072-.861h-.309Z" transform="translate(-216.08 2755.171)"/><path class="a" d="M410.789,74.249c-.17-.068-.349-.1-.531-.175a.519.519,0,0,1-.211-.133.27.27,0,0,1-.052-.182.232.232,0,0,1,.1-.2.284.284,0,0,1,.153-.059.607.607,0,0,1,.469.172,1.078,1.078,0,0,1,.226.447l.019.063h.314l-.042-1.005h-.266l-.1.124a1.071,1.071,0,0,0-.521-.148.991.991,0,0,0-.619.207.693.693,0,0,0-.271.546.8.8,0,0,0,.12.453.77.77,0,0,0,.363.282c.216.091.352.111.55.181a.622.622,0,0,1,.248.136.224.224,0,0,1,.061.167.324.324,0,0,1-.084.244.4.4,0,0,1-.287.089.607.607,0,0,1-.469-.182,1.287,1.287,0,0,1-.257-.479l-.021-.06h-.305l.036,1.045h.268l.106-.129a1.258,1.258,0,0,0,.622.158,1.033,1.033,0,0,0,.678-.234.777.777,0,0,0,.277-.6.693.693,0,0,0-.144-.461A1.008,1.008,0,0,0,410.789,74.249Z" transform="translate(-216.08 2755.171)"/><path class="a" d="M388.42,35.232h-1.758a.409.409,0,1,0,0,.819h1.758a.409.409,0,1,0,0-.819Z" transform="translate(-216.08 2755.171)"/><path class="a" d="M400.485,39.458l1.6,1.177a1.242,1.242,0,0,0,1.981-.978v-5.22a2.012,2.012,0,0,0,1.3-1.865v-.436a2.012,2.012,0,0,0-1.3-1.865V25.052a1.242,1.242,0,0,0-1.984-.976l-1.53,1.135a16.454,16.454,0,0,1-6.794,2.948l-1.652.307h-7.658A1.453,1.453,0,0,0,383,29.757a1.707,1.707,0,0,0-1.279,1.631v1.929a1.705,1.705,0,0,0,1.276,1.629,1.45,1.45,0,0,0,1.449,1.292h.67l2.041,6.164a1.344,1.344,0,0,0,1.285.923h2.351a1.344,1.344,0,0,0,1.092-.548,1.3,1.3,0,0,0,.192-1.194l-.883-2.666h.443a.919.919,0,0,0,.738-.365.89.89,0,0,0,.145-.8l-.456-1.517,1.6.287A16.446,16.446,0,0,1,400.485,39.458Zm3.577-8.258a1.178,1.178,0,0,1,.474.936v.436a1.179,1.179,0,0,1-.474.937Zm-1.832-5.744.577-.427.016,0,.028.027V39.658l-.044.022-.577-.425Zm-19.243,8.611a.873.873,0,0,1-.437-.75V31.388a.873.873,0,0,1,.437-.75Zm7.917,8.009a.136.136,0,0,1-.113.056h-2.351a.139.139,0,0,1-.133-.1l-2.178-6.579a.6.6,0,0,0-.576-.411h-1.11a.244.244,0,0,1-.245-.242V29.9a.244.244,0,0,1,.245-.242h7.087v5.385h-2.06a.611.611,0,0,0-.491.247.594.594,0,0,0-.085.535l2.029,6.125A.135.135,0,0,1,390.9,42.076Zm.8-4.013-.071.035h-.714l-.616-1.86h.892l.524,1.747Zm1.142-8.524,1.128-.207a17.676,17.676,0,0,0,7.3-3.167l.123-.092V38.642l-.188-.139a17.687,17.687,0,0,0-7.334-3.155l-1.029-.184Z" transform="translate(-216.08 2755.171)"/><path class="b" d="M365.82,36.635a2.236,2.236,0,0,1-.322.041l-.068,0v.3h2.457l.078-.933h-.282l-.017.048a1.793,1.793,0,0,1-.292.5,1.081,1.081,0,0,1-.517.064c-.332,0-.343-.023-.343-.238V35.8h.175c.187,0,.24.058.265.086a.74.74,0,0,1,.088.29l0,.069h.3V35.067h-.3l-.006.064a.622.622,0,0,1-.086.276c-.028.028-.08.079-.268.079h-.175V34.71h.318a3,3,0,0,1,.326.02c.083.01.271.236.314.379l.016.051h.274V34.4H365.43v.3l.068,0a1.49,1.49,0,0,1,.316.059c.064.028.073.063.073.095v1.684A.08.08,0,0,1,365.82,36.635Z" transform="translate(-216.08 2755.171)"/><path class="b" d="M370.391,36.721c-.44,0-.625-.278-.768-.7l-.016-.049h-.28l.035,1.038h.247l.113-.138a1.281,1.281,0,0,0,.648.167.888.888,0,0,0,.965-.836.738.738,0,0,0-.568-.741c-.08-.032-.163-.056-.251-.082a3.08,3.08,0,0,1-.3-.1c-.242-.1-.285-.19-.285-.344a.292.292,0,0,1,.277-.283c.45,0,.616.25.737.653l.015.051h.287l-.041-1h-.246l-.112.131a1.1,1.1,0,0,0-.544-.156.828.828,0,0,0-.9.756.725.725,0,0,0,.485.74,2.792,2.792,0,0,0,.338.115c.07.02.143.041.229.072.277.1.332.2.332.332C370.8,36.6,370.663,36.721,370.391,36.721Z" transform="translate(-216.08 2755.171)"/><path class="b" d="M374.255,34.71a2.12,2.12,0,0,1,.249.014c.1.013.3.321.376.579l.015.052h.27V34.4h-2.519v.953h.263l.016-.05c.086-.265.285-.568.381-.58a2.193,2.193,0,0,1,.255-.014h.029v1.827a.091.091,0,0,1-.067.1c-.034.01-.271.035-.372.041l-.068,0v.3h1.646v-.3l-.068,0a3.583,3.583,0,0,1-.37-.06.092.092,0,0,1-.069-.093V34.71Z" transform="translate(-216.08 2755.171)"/><path class="b" d="M376.805,36.639a2.892,2.892,0,0,1-.318.037l-.068,0v.3h1.295a1.375,1.375,0,0,0,1.538-1.276,1.352,1.352,0,0,0-1.462-1.3h-1.355v.3l.067,0a1.6,1.6,0,0,1,.3.056.092.092,0,0,1,.068.1v1.689A.082.082,0,0,1,376.805,36.639Zm.692-1.914.06,0,.121,0a.875.875,0,0,1,.876.983c0,.633-.264.953-.784.953-.252,0-.272-.091-.272-.184Z" transform="translate(-216.08 2755.171)"/><path class="b" d="M410.021,33.836l.014-.083h-.224l-.019.013a1.05,1.05,0,0,1-.6.2,1.258,1.258,0,0,1-.5-.109l-.061-.026-.126.229.046.037a1.265,1.265,0,0,0,.635.331,1.34,1.34,0,0,0,.135-.006v2.043a.172.172,0,0,1-.109.167,2.184,2.184,0,0,1-.38.041l-.069,0v.3h1.722v-.3l-.069,0a1.5,1.5,0,0,1-.355-.059.187.187,0,0,1-.1-.175V34.574A5.127,5.127,0,0,1,410.021,33.836Z" transform="translate(-216.08 2755.171)"/><path class="b" d="M412.687,37.141c-.193,0-.24-.053-.258-.093a.774.774,0,0,1-.04-.136c-.036-.15-.086-.356-.32-.356s-.346.127-.346.377a.686.686,0,0,0,.757.566,2.017,2.017,0,0,0,1.843-2.205c0-1.434-.933-1.546-1.219-1.546a1.2,1.2,0,0,0-1.213,1.226,1.016,1.016,0,0,0,.99,1.106,1.076,1.076,0,0,0,.769-.3C413.546,36.482,413.223,37.141,412.687,37.141Zm.415-1.474c-.262,0-.53-.093-.53-.788,0-.539.178-.813.53-.813.285,0,.592.268.592.858S413.322,35.666,413.1,35.666Z" transform="translate(-216.08 2755.171)"/><path class="b" d="M417.423,33.706c.187,0,.215.03.239.08a1.03,1.03,0,0,1,.06.165c.044.145.093.31.325.31.151,0,.331-.062.331-.357,0-.227-.2-.566-.737-.566a2.135,2.135,0,0,0-1.807,2.215c0,.881.478,1.5,1.163,1.5a1.192,1.192,0,0,0,1.284-1.226,1.051,1.051,0,0,0-1.744-.846C416.68,34.219,417.031,33.706,417.423,33.706Zm-.39,1.4c.374,0,.556.235.556.718,0,.339-.075.908-.576.908-.26,0-.536-.283-.536-.808C416.477,35.358,416.756,35.1,417.033,35.1Z" transform="translate(-216.08 2755.171)"/><path class="b" d="M420.341,36.283a.273.273,0,0,0-.291-.291.375.375,0,0,0-.392.392c0,.386.427.666,1.016.666a1.222,1.222,0,0,0,1.31-1.086,1.036,1.036,0,0,0-1.1-1.036,1.376,1.376,0,0,0-.542.115l.131-.507c.063,0,.153.005.229.005a1.605,1.605,0,0,0,1.408-.658l.027-.051-.191-.159-.046.035a1.018,1.018,0,0,1-.716.25.843.843,0,0,1-.6-.17l-.022-.024H420.3l-.414,1.806.338.067.021-.06a.569.569,0,0,1,.549-.316c.193,0,.516.058.516.448,0,.1-.018,1.023-.642,1.023a.5.5,0,0,1-.4-.128.3.3,0,0,1,.031-.142A.381.381,0,0,0,420.341,36.283Z" transform="translate(-216.08 2755.171)"/><path class="b" d="M379.245,31.734H365.163a.358.358,0,1,0,0,.716h14.082a.358.358,0,1,0,0-.716Z" transform="translate(-216.08 2755.171)"/><path class="b" d="M379.245,39.012H365.163a.358.358,0,1,0,0,.716h14.082a.358.358,0,1,0,0-.716Z" transform="translate(-216.08 2755.171)"/><path class="b" d="M422.166,31.734H408.083a.358.358,0,1,0,0,.716h14.083a.358.358,0,1,0,0-.716Z" transform="translate(-216.08 2755.171)"/><path class="b" d="M422.166,39.012H408.083a.358.358,0,1,0,0,.716h14.083a.358.358,0,1,0,0-.716Z" transform="translate(-216.08 2755.171)"/><g transform="translate(-216.08 2755.171)"><path class="c" d="M423.74,67.238H364.035a.379.379,0,0,0,0,.755H423.74a.379.379,0,0,0,0-.755Z"/><path class="c" d="M414.469,47.365a1.122,1.122,0,0,0,1.177,1.237,2.68,2.68,0,0,0,2.719-2.448c0-.722-.471-1.34-1.542-1.34A2.558,2.558,0,0,0,414.469,47.365Z"/><path class="c" d="M437.949,57.389c-.131,0-.34.181-.5.438-.313.515-2.117,3.917-3.268,3.917-.287,0-.418-.206-.418-.541,0-1.572,2.536-6.03,2.536-8.942,0-.954-.392-2.345-1.935-2.345-1.36,0-2.693,1.881-3.765,4.3a13.439,13.439,0,0,0,.6-2.4,1.224,1.224,0,0,0-1.281-1.185.949.949,0,0,0-.967.67,67.113,67.113,0,0,0-1.69,6.63,2.907,2.907,0,0,1-2.493,1.514,13.063,13.063,0,0,0,1.386-5.566c0-2.216-.863-3.969-2.955-3.969-1.647,0-2.719,1.237-3.216,2.86-.654-.1-1.1.515-1.307.979a12.377,12.377,0,0,0-1.121,4.118c-.329.659-1.724,3.639-2.67,3.639-.34,0-.471-.31-.471-.851,0-1.984,2.17-8.195,2.17-9.561a1.3,1.3,0,0,0-1.36-1.314,1.013,1.013,0,0,0-1.046.67c-.675,2.443-1.326,5.288-1.7,7.419-.738,1.187-2.049,3.945-3.055,3.945-.392,0-.549-.412-.549-1.082,0-1.855,1.229-5.85,2.223-9.251,1.909-.206,2.876-.464,2.876-.825s-1.2-.438-2.484-.541a14.613,14.613,0,0,0,.679-2.809,1.279,1.279,0,0,0-1.359-1.289,1.029,1.029,0,0,0-1.072.645c-.34,1.057-.654,2.165-.967,3.324-.418-.026-.837-.026-1.229-.026-.288,0-.471.412-.471.8,0,.335.131.67.445.7l.836.078c-.565,2.275-1.03,4.529-1.3,6.322a2.915,2.915,0,0,1-2.541,1.589,13.057,13.057,0,0,0,1.386-5.566c0-2.216-.863-3.969-2.955-3.969-1.647,0-2.719,1.237-3.216,2.86-.654-.1-1.1.515-1.307.979a12.378,12.378,0,0,0-1.121,4.116c-.332.653-1.857,4.234-2.959,4.234-.34,0-.444-.232-.444-.644,0-1.7,2.223-6.339,2.223-9.2a1.9,1.9,0,0,0-1.935-2.165c-1.229,0-2.354,1.572-3.242,3.685.366-1.6.549-3.685-1.725-3.685-1.229,0-2.275,1.211-3.138,2.964a4.462,4.462,0,0,0,.287-1.237,1.224,1.224,0,0,0-1.282-1.185.949.949,0,0,0-.967.67c-.583,1.94-1.133,4.41-1.54,6.516l0,0a2.921,2.921,0,0,1-2.563,1.625,13.063,13.063,0,0,0,1.386-5.566c0-2.216-.863-3.969-2.955-3.969-1.647,0-2.719,1.237-3.216,2.86-.654-.1-1.1.515-1.307.979a11.414,11.414,0,0,0-.474,1.15c-.529.949-1.288,1.995-1.932,1.995a.528.528,0,0,1-.6-.567c0-.9,1.255-3.3,1.255-4.742,0-1.108-.366-1.675-1.333-1.675-1.282,0-2.432,1.443-3.373,3.427A7.27,7.27,0,0,0,367.9,51.8a1.215,1.215,0,0,0-1.281-1.134.969.969,0,0,0-.994.644,64.314,64.314,0,0,0-1.557,6.7c-1.232,2.438-2.632,3.852-4.954,4.355,2.17-1.778,3.818-6,3.818-9.045,0-1.856-.654-3.376-2.249-3.376-1.125,0-2.066,1.134-2.824,2.758a4.575,4.575,0,0,0,.209-1.031,1.036,1.036,0,0,0-1.124-.979,1.223,1.223,0,0,0-1.2.928c-1.02,3.633-3.661,16.648-3.661,17.5a1.032,1.032,0,0,0,1.125,1.108c.471,0,.915-.155.968-.773.078-.928.627-3.634,1.307-6.7a3.7,3.7,0,0,0,2.3.567,6.286,6.286,0,0,0,5.975-3.339,17.97,17.97,0,0,0-.2,2.179,1.014,1.014,0,0,0,.994,1.134.952.952,0,0,0,.967-.85l.418-2.732c.68-4.355,2.824-8.04,3.713-8.04.183,0,.261.129.261.309,0,.8-1.151,2.526-1.151,3.943A1.806,1.806,0,0,0,370.8,57.9a3.085,3.085,0,0,0,2.127-1.06,11.828,11.828,0,0,0-.191,2.091c0,2.371.863,4.3,2.955,4.3,1.49,0,2.876-1.263,3.9-3.04a4.069,4.069,0,0,0,2.744-1.09,28.61,28.61,0,0,0-.443,3.074,1.008,1.008,0,0,0,1.072,1,.978.978,0,0,0,1.046-.747c.889-5.592,2.981-10.72,4.183-10.72.287,0,.419.36.419.927,0,2.217-1.8,8.247-1.8,9.354a1.17,1.17,0,0,0,1.229,1.212,1.034,1.034,0,0,0,1.072-.722c.314-1.494.627-2.835.889-4.046,1.124-4.175,2.8-6.752,3.477-6.752.261,0,.366.232.366.619,0,1.7-2.066,6.468-2.066,8.71a2.038,2.038,0,0,0,2.04,2.268c1.612,0,2.777-2.16,3.45-3.74.141,2.081,1.024,3.689,2.931,3.689,1.49,0,2.876-1.263,3.9-3.04a4.069,4.069,0,0,0,2.8-1.143,13.781,13.781,0,0,0-.105,1.5c0,1.933.863,2.654,1.883,2.654,1.441,0,2.71-1.818,3.518-3.324-.026.261-.04.489-.04.669,0,1.933.863,2.654,1.882,2.654,1.572,0,2.794-2.163,3.5-3.724.128,2.11,1.01,3.75,2.936,3.75,1.49,0,2.876-1.263,3.9-3.04a4.069,4.069,0,0,0,2.693-1.043c-.144.864-.273,1.763-.392,2.744,0,.077-.026.154-.026.232a1.123,1.123,0,0,0,1.151,1.159,1.036,1.036,0,0,0,1.072-.85c.079-.567.183-1.186.314-1.907l.078-.181c1.02-4.664,3.321-8.659,4.288-8.659.288,0,.419.283.419.619,0,1.726-2.51,6.391-2.51,8.71a2.037,2.037,0,0,0,2.039,2.268c2.275,0,4.184-4.329,4.5-5.257a1.357,1.357,0,0,0,.1-.464C438.08,57.441,438.027,57.389,437.949,57.389Zm-81.137,4.562a1.349,1.349,0,0,0-.994-.593l.863-3.737c.863-3.3,2.013-5.824,3.033-5.824.471,0,.68.541.68,1.469C360.395,56.024,358.59,61.642,356.813,61.951Zm19.585.026a.741.741,0,0,1-.236.026c-.863,0-1.2-1.031-1.2-2.4a11.525,11.525,0,0,1,.288-2.422,4.092,4.092,0,0,0,2.589,2.757C377.391,61.1,376.894,61.9,376.4,61.977Zm1.751-2.938a4.187,4.187,0,0,1-1.7-3.763c0-2.242.941-4.381,1.83-4.381.628,0,.863.979.863,2.319A21.588,21.588,0,0,1,378.149,59.039ZM400.9,61.977a.738.738,0,0,1-.235.026c-.863,0-1.2-1.031-1.2-2.4a11.522,11.522,0,0,1,.287-2.422,4.093,4.093,0,0,0,2.589,2.757C401.892,61.1,401.4,61.9,400.9,61.977Zm1.752-2.938a4.188,4.188,0,0,1-1.7-3.763c0-2.242.941-4.381,1.831-4.381.628,0,.863.979.863,2.319A21.6,21.6,0,0,1,402.65,59.039Zm18.512,2.938a.738.738,0,0,1-.235.026c-.863,0-1.2-1.031-1.2-2.4a11.52,11.52,0,0,1,.287-2.422,4.093,4.093,0,0,0,2.589,2.757C422.156,61.1,421.66,61.9,421.163,61.977Zm1.752-2.938a4.188,4.188,0,0,1-1.7-3.763c0-2.242.941-4.381,1.831-4.381.628,0,.863.979.863,2.319A21.587,21.587,0,0,1,422.914,59.039Z"/><path class="c" d="M376.344,74.809l-.021.059a2.174,2.174,0,0,1-.115.242,1.024,1.024,0,0,1-.161.235l0,0h0a.3.3,0,0,1-.16.047c-.089.009-.2.01-.326.01a.58.58,0,0,1-.275-.033l-.026-.043a.547.547,0,0,1-.012-.136v-.584h.151c.174,0,.207.043.242.077l0,.007a.763.763,0,0,1,.076.262l0,.085h.328v-1.18h-.323l-.008.08a.9.9,0,0,1-.032.155.307.307,0,0,1-.045.1c-.032.028-.06.067-.246.071h-.151v-.714h.288a2.872,2.872,0,0,1,.314.019A.387.387,0,0,1,376,73.7a.77.77,0,0,1,.136.226l.019.063h.3v-.773h-2.3v.327l.084.006a1.516,1.516,0,0,1,.3.056c.054.028.054.037.058.074v1.632l-.01.047-.038.023h0a1.061,1.061,0,0,1-.141.023c-.064.008-.131.014-.166.016l-.084.006v.327h2.418l.007-.081.072-.861h-.309Z"/><path class="c" d="M379.482,73.459v.08l.081.008a2.1,2.1,0,0,1,.211.037.963.963,0,0,1,.2.063h0c.017.007.038.032.051.1a1.471,1.471,0,0,1,.017.271v.758l-1.207-1.564h-1.127v.327l.084.006a1.283,1.283,0,0,1,.241.051.878.878,0,0,1,.194.078.263.263,0,0,1,.076.19v1.085a1.291,1.291,0,0,1-.023.28.169.169,0,0,1-.054.106h0a1.161,1.161,0,0,1-.163.048,1.5,1.5,0,0,1-.176.033l-.084.005v.327h1.462v-.327l-.084-.005a2.011,2.011,0,0,1-.22-.041c-.047-.011-.092-.023-.128-.034l-.044-.015-.012,0a.2.2,0,0,1-.054-.11,1.191,1.191,0,0,1-.027-.284v-.891l1.359,1.745h.385V74a1.438,1.438,0,0,1,.018-.268c.014-.069.036-.1.051-.106a.924.924,0,0,1,.156-.047,1.4,1.4,0,0,1,.181-.033l.085-.005v-.328h-1.453Z"/><path class="c" d="M382.447,73.459v.084l.085,0a1.41,1.41,0,0,1,.318.056c.054.028.054.037.058.074v1.254a.831.831,0,0,1-.078.416.315.315,0,0,1-.212.146.361.361,0,0,0,.048-.179.368.368,0,0,0-.1-.26.376.376,0,0,0-.274-.11.394.394,0,0,0-.385.4.432.432,0,0,0,.166.33.8.8,0,0,0,.523.155,1.019,1.019,0,0,0,.7-.27.731.731,0,0,0,.255-.492v-1.4c0-.045.006-.054.048-.069h0a1.983,1.983,0,0,1,.293-.045l.085-.005v-.328h-1.537Z"/><path class="c" d="M387.528,73.536h0a1.4,1.4,0,0,0-1.926,0,1.28,1.28,0,0,0-.391.974,1.232,1.232,0,0,0,.428.953h0a1.321,1.321,0,0,0,.9.351,1.365,1.365,0,0,0,.949-.357h0a1.353,1.353,0,0,0,.035-1.921Zm-.5,1.658a.554.554,0,0,1-.947-.005,1.36,1.36,0,0,1-.16-.7,1.326,1.326,0,0,1,.176-.738.522.522,0,0,1,.456-.243.528.528,0,0,1,.49.287,1.409,1.409,0,0,1,.147.68A1.378,1.378,0,0,1,387.032,75.194Z"/><path class="c" d="M390.527,73.459v.082l.083.007a1.45,1.45,0,0,1,.252.04l.064.025c-.022.043-.073.132-.145.242s-.178.273-.293.445c-.123-.2-.232-.378-.309-.508-.046-.078-.083-.141-.107-.187l-.008-.016a.805.805,0,0,1,.112-.023c.07-.01.146-.016.188-.018l.086,0v-.329h-1.527v.328l.085.005a.9.9,0,0,1,.254.053.5.5,0,0,1,.172.181c.151.241.313.506.473.8h0a.528.528,0,0,1,.092.2V75.3l-.01.049-.041.027c-.011,0-.089.014-.163.022s-.162.016-.2.018l-.084.005v.327h1.639v-.328l-.085,0c-.033,0-.121-.014-.2-.027l-.107-.019-.037-.008-.011,0h0l-.047-.032-.01-.04v-.339a.733.733,0,0,1,.067-.325,5.413,5.413,0,0,1,.588-.88.439.439,0,0,1,.164-.139h0a.677.677,0,0,1,.108-.032,1.082,1.082,0,0,1,.122-.024l.081-.008v-.325h-1.257Z"/><path class="c" d="M396.447,74.249c-.17-.068-.349-.1-.531-.175a.523.523,0,0,1-.211-.133.27.27,0,0,1-.052-.182.232.232,0,0,1,.1-.2.287.287,0,0,1,.153-.059.606.606,0,0,1,.469.172,1.084,1.084,0,0,1,.226.447l.019.063h.313l-.042-1.005h-.266l-.1.124a1.071,1.071,0,0,0-.521-.148.991.991,0,0,0-.619.207.694.694,0,0,0-.271.546.8.8,0,0,0,.12.453.77.77,0,0,0,.363.282c.216.091.353.111.55.181a.619.619,0,0,1,.248.136.224.224,0,0,1,.06.167.323.323,0,0,1-.084.244.4.4,0,0,1-.287.089.608.608,0,0,1-.469-.182,1.287,1.287,0,0,1-.257-.479l-.02-.06h-.305l.035,1.045h.268l.106-.129a1.258,1.258,0,0,0,.622.158,1.032,1.032,0,0,0,.678-.234.777.777,0,0,0,.277-.6.7.7,0,0,0-.144-.461A1.012,1.012,0,0,0,396.447,74.249Z"/><path class="c" d="M400.7,75.361h0a.174.174,0,0,1-.092-.1c-.129-.317-.487-1.163-.85-2.024l-.023-.055H399.4l-.023.055c-.271.64-.565,1.346-.824,1.92a.436.436,0,0,1-.158.205.626.626,0,0,1-.118.034,1.168,1.168,0,0,1-.148.023l-.084.005v.327h1.339v-.323l-.08-.009a1.882,1.882,0,0,1-.26-.045.45.45,0,0,1-.1-.039l-.007-.005a.612.612,0,0,1,.033-.144c.029-.083.048-.13.089-.234h.733l.166.393,0,.015a.511.511,0,0,1-.121.034,1.915,1.915,0,0,1-.2.024l-.084.006v.327h1.5v-.321l-.077-.011A1.247,1.247,0,0,1,400.7,75.361ZM399.2,74.6l.216-.524.219.524Z"/><path class="c" d="M404.169,74.756l-.019.064a1.6,1.6,0,0,1-.292.509.61.61,0,0,1-.4.086.554.554,0,0,1-.277-.038l-.028-.045a.459.459,0,0,1-.013-.129V73.668l.051-.071a1.44,1.44,0,0,1,.311-.049l.085-.005v-.328h-1.512v.328l.084.005a1.363,1.363,0,0,1,.276.061h0l.042.028.011.048v1.622c-.006.043,0,.049-.052.071a2.161,2.161,0,0,1-.3.039l-.085.005v.327H404.4l.007-.081.083-.915h-.319Z"/><path class="c" d="M407.776,74.809l-.021.059a2.078,2.078,0,0,1-.115.242,1.039,1.039,0,0,1-.161.235l0,0h0a.3.3,0,0,1-.16.047c-.089.009-.2.01-.326.01a.582.582,0,0,1-.276-.033l-.025-.043a.547.547,0,0,1-.012-.136v-.584h.151c.174,0,.207.043.242.077l0,.007a.764.764,0,0,1,.076.262l0,.085h.328v-1.18h-.323l-.008.08a.893.893,0,0,1-.032.155.306.306,0,0,1-.045.1c-.032.028-.06.067-.246.071h-.151v-.714h.288a2.879,2.879,0,0,1,.314.019.387.387,0,0,1,.152.127.769.769,0,0,1,.136.226l.019.063h.3v-.773h-2.3v.327l.084.006a1.517,1.517,0,0,1,.3.056c.054.028.054.037.058.074v1.632l-.01.047-.038.023h0a1.062,1.062,0,0,1-.141.023c-.064.008-.131.014-.166.016l-.084.006v.327h2.419l.007-.081.072-.861h-.309Z"/><path class="c" d="M410.789,74.249c-.17-.068-.349-.1-.531-.175a.519.519,0,0,1-.211-.133.27.27,0,0,1-.052-.182.232.232,0,0,1,.1-.2.284.284,0,0,1,.153-.059.607.607,0,0,1,.469.172,1.078,1.078,0,0,1,.226.447l.019.063h.314l-.042-1.005h-.266l-.1.124a1.071,1.071,0,0,0-.521-.148.991.991,0,0,0-.619.207.693.693,0,0,0-.271.546.8.8,0,0,0,.12.453.77.77,0,0,0,.363.282c.216.091.352.111.55.181a.622.622,0,0,1,.248.136.224.224,0,0,1,.061.167.324.324,0,0,1-.084.244.4.4,0,0,1-.287.089.607.607,0,0,1-.469-.182,1.287,1.287,0,0,1-.257-.479l-.021-.06h-.305l.036,1.045h.268l.106-.129a1.258,1.258,0,0,0,.622.158,1.033,1.033,0,0,0,.678-.234.777.777,0,0,0,.277-.6.693.693,0,0,0-.144-.461A1.008,1.008,0,0,0,410.789,74.249Z"/><path class="c" d="M388.42,35.232h-1.758a.409.409,0,1,0,0,.819h1.758a.409.409,0,1,0,0-.819Z"/><path class="c" d="M400.485,39.458l1.6,1.177a1.242,1.242,0,0,0,1.981-.978v-5.22a2.012,2.012,0,0,0,1.3-1.865v-.436a2.012,2.012,0,0,0-1.3-1.865V25.052a1.242,1.242,0,0,0-1.984-.976l-1.53,1.135a16.454,16.454,0,0,1-6.794,2.948l-1.652.307h-7.658A1.453,1.453,0,0,0,383,29.757a1.707,1.707,0,0,0-1.279,1.631v1.929a1.705,1.705,0,0,0,1.276,1.629,1.45,1.45,0,0,0,1.449,1.292h.67l2.041,6.164a1.344,1.344,0,0,0,1.285.923h2.351a1.344,1.344,0,0,0,1.092-.548,1.3,1.3,0,0,0,.192-1.194l-.883-2.666h.443a.919.919,0,0,0,.738-.365.89.89,0,0,0,.145-.8l-.456-1.517,1.6.287A16.446,16.446,0,0,1,400.485,39.458Zm3.577-8.258a1.178,1.178,0,0,1,.474.936v.436a1.179,1.179,0,0,1-.474.937Zm-1.832-5.744.577-.427.016,0,.028.027V39.658l-.044.022-.577-.425Zm-19.243,8.611a.873.873,0,0,1-.437-.75V31.388a.873.873,0,0,1,.437-.75Zm7.917,8.009a.136.136,0,0,1-.113.056h-2.351a.139.139,0,0,1-.133-.1l-2.178-6.579a.6.6,0,0,0-.576-.411h-1.11a.244.244,0,0,1-.245-.242V29.9a.244.244,0,0,1,.245-.242h7.087v5.385h-2.06a.611.611,0,0,0-.491.247.594.594,0,0,0-.085.535l2.029,6.125A.135.135,0,0,1,390.9,42.076Zm.8-4.013-.071.035h-.714l-.616-1.86h.892l.524,1.747Zm1.142-8.524,1.128-.207a17.676,17.676,0,0,0,7.3-3.167l.123-.092V38.642l-.188-.139a17.687,17.687,0,0,0-7.334-3.155l-1.029-.184Z"/><path class="c" d="M365.82,36.635a2.236,2.236,0,0,1-.322.041l-.068,0v.3h2.457l.078-.933h-.282l-.017.048a1.793,1.793,0,0,1-.292.5,1.081,1.081,0,0,1-.517.064c-.332,0-.343-.023-.343-.238V35.8h.175c.187,0,.24.058.265.086a.74.74,0,0,1,.088.29l0,.069h.3V35.067h-.3l-.006.064a.622.622,0,0,1-.086.276c-.028.028-.08.079-.268.079h-.175V34.71h.318a3,3,0,0,1,.326.02c.083.01.271.236.314.379l.016.051h.274V34.4H365.43v.3l.068,0a1.49,1.49,0,0,1,.316.059c.064.028.073.063.073.095v1.684A.08.08,0,0,1,365.82,36.635Z"/><path class="c" d="M370.391,36.721c-.44,0-.625-.278-.768-.7l-.016-.049h-.28l.035,1.038h.247l.113-.138a1.281,1.281,0,0,0,.648.167.888.888,0,0,0,.965-.836.738.738,0,0,0-.568-.741c-.08-.032-.163-.056-.251-.082a3.08,3.08,0,0,1-.3-.1c-.242-.1-.285-.19-.285-.344a.292.292,0,0,1,.277-.283c.45,0,.616.25.737.653l.015.051h.287l-.041-1h-.246l-.112.131a1.1,1.1,0,0,0-.544-.156.828.828,0,0,0-.9.756.725.725,0,0,0,.485.74,2.792,2.792,0,0,0,.338.115c.07.02.143.041.229.072.277.1.332.2.332.332C370.8,36.6,370.663,36.721,370.391,36.721Z"/><path class="c" d="M374.255,34.71a2.12,2.12,0,0,1,.249.014c.1.013.3.321.376.579l.015.052h.27V34.4h-2.519v.953h.263l.016-.05c.086-.265.285-.568.381-.58a2.193,2.193,0,0,1,.255-.014h.029v1.827a.091.091,0,0,1-.067.1c-.034.01-.271.035-.372.041l-.068,0v.3h1.646v-.3l-.068,0a3.583,3.583,0,0,1-.37-.06.092.092,0,0,1-.069-.093V34.71Z"/><path class="c" d="M376.805,36.639a2.892,2.892,0,0,1-.318.037l-.068,0v.3h1.295a1.375,1.375,0,0,0,1.538-1.276,1.352,1.352,0,0,0-1.462-1.3h-1.355v.3l.067,0a1.6,1.6,0,0,1,.3.056.092.092,0,0,1,.068.1v1.689A.082.082,0,0,1,376.805,36.639Zm.692-1.914.06,0,.121,0a.875.875,0,0,1,.876.983c0,.633-.264.953-.784.953-.252,0-.272-.091-.272-.184Z"/><path class="c" d="M410.021,33.836l.014-.083h-.224l-.019.013a1.05,1.05,0,0,1-.6.2,1.258,1.258,0,0,1-.5-.109l-.061-.026-.126.229.046.037a1.265,1.265,0,0,0,.635.331,1.34,1.34,0,0,0,.135-.006v2.043a.172.172,0,0,1-.109.167,2.184,2.184,0,0,1-.38.041l-.069,0v.3h1.722v-.3l-.069,0a1.5,1.5,0,0,1-.355-.059.187.187,0,0,1-.1-.175V34.574A5.127,5.127,0,0,1,410.021,33.836Z"/><path class="c" d="M412.687,37.141c-.193,0-.24-.053-.258-.093a.774.774,0,0,1-.04-.136c-.036-.15-.086-.356-.32-.356s-.346.127-.346.377a.686.686,0,0,0,.757.566,2.017,2.017,0,0,0,1.843-2.205c0-1.434-.933-1.546-1.219-1.546a1.2,1.2,0,0,0-1.213,1.226,1.016,1.016,0,0,0,.99,1.106,1.076,1.076,0,0,0,.769-.3C413.546,36.482,413.223,37.141,412.687,37.141Zm.415-1.474c-.262,0-.53-.093-.53-.788,0-.539.178-.813.53-.813.285,0,.592.268.592.858S413.322,35.666,413.1,35.666Z"/><path class="c" d="M417.423,33.706c.187,0,.215.03.239.08a1.03,1.03,0,0,1,.06.165c.044.145.093.31.325.31.151,0,.331-.062.331-.357,0-.227-.2-.566-.737-.566a2.135,2.135,0,0,0-1.807,2.215c0,.881.478,1.5,1.163,1.5a1.192,1.192,0,0,0,1.284-1.226,1.051,1.051,0,0,0-1.744-.846C416.68,34.219,417.031,33.706,417.423,33.706Zm-.39,1.4c.374,0,.556.235.556.718,0,.339-.075.908-.576.908-.26,0-.536-.283-.536-.808C416.477,35.358,416.756,35.1,417.033,35.1Z"/><path class="c" d="M420.341,36.283a.273.273,0,0,0-.291-.291.375.375,0,0,0-.392.392c0,.386.427.666,1.016.666a1.222,1.222,0,0,0,1.31-1.086,1.036,1.036,0,0,0-1.1-1.036,1.376,1.376,0,0,0-.542.115l.131-.507c.063,0,.153.005.229.005a1.605,1.605,0,0,0,1.408-.658l.027-.051-.191-.159-.046.035a1.018,1.018,0,0,1-.716.25.843.843,0,0,1-.6-.17l-.022-.024H420.3l-.414,1.806.338.067.021-.06a.569.569,0,0,1,.549-.316c.193,0,.516.058.516.448,0,.1-.018,1.023-.642,1.023a.5.5,0,0,1-.4-.128.3.3,0,0,1,.031-.142A.381.381,0,0,0,420.341,36.283Z"/><path class="c" d="M379.245,31.734H365.163a.358.358,0,1,0,0,.716h14.082a.358.358,0,1,0,0-.716Z"/><path class="c" d="M379.245,39.012H365.163a.358.358,0,1,0,0,.716h14.082a.358.358,0,1,0,0-.716Z"/><path class="c" d="M422.166,31.734H408.083a.358.358,0,1,0,0,.716h14.083a.358.358,0,1,0,0-.716Z"/><path class="c" d="M422.166,39.012H408.083a.358.358,0,1,0,0,.716h14.083a.358.358,0,1,0,0-.716Z"/></g></g></svg>