<svg xmlns="http://www.w3.org/2000/svg" width="85" height="50" viewBox="0 0 85 50"><defs><style>.a{fill:#877d5c;}.b{fill:#d6d5d6;}.c{fill:#999591;}</style></defs><g transform="translate(-1485 -2780)"><path class="a" d="M263.1,35.83a1.759,1.759,0,0,1-.253.033l-.053,0V36.1h1.93l.061-.744h-.222l-.013.038a1.447,1.447,0,0,1-.23.4c-.051.051-.239.051-.406.051-.261,0-.27-.019-.27-.19v-.5h.138c.147,0,.189.046.209.068a.6.6,0,0,1,.069.232l0,.055h.236V34.58h-.233l0,.051a.507.507,0,0,1-.067.22c-.022.022-.063.063-.211.063h-.138V34.3h.25a2.337,2.337,0,0,1,.256.015c.065.008.213.189.247.3l.012.041h.215v-.6H262.8v.238l.053,0a1.153,1.153,0,0,1,.248.047c.051.022.057.05.057.075v1.343A.064.064,0,0,1,263.1,35.83Z" transform="translate(1242.713 2752.844)"/><path class="a" d="M266.7,35.9c-.346,0-.491-.222-.6-.555l-.013-.039h-.22l.028.827h.194l.089-.11a1,1,0,0,0,.51.133.7.7,0,0,0,.758-.667.588.588,0,0,0-.446-.591c-.063-.025-.128-.045-.2-.065a2.434,2.434,0,0,1-.232-.078c-.191-.079-.224-.152-.224-.274a.231.231,0,0,1,.218-.226c.354,0,.484.2.578.521l.012.041h.226l-.033-.8h-.193l-.088.1a.851.851,0,0,0-.428-.125.654.654,0,0,0-.706.6.578.578,0,0,0,.381.59,2.174,2.174,0,0,0,.266.092c.055.016.113.033.18.057.217.076.261.158.261.265C267.013,35.8,266.909,35.9,266.7,35.9Z" transform="translate(1242.713 2752.844)"/><path class="a" d="M269.732,34.3a1.559,1.559,0,0,1,.2.011c.079.01.236.256.3.461l.012.042h.212v-.76h-1.979v.76h.206l.013-.04c.067-.211.224-.453.3-.463a1.8,1.8,0,0,1,.2-.011h.023v1.457l-.053.077c-.027.008-.213.028-.292.033l-.053,0V36.1H270.1v-.238l-.053,0a2.757,2.757,0,0,1-.291-.048l-.054-.074V34.3Z" transform="translate(1242.713 2752.844)"/><path class="a" d="M271.736,35.834a2.244,2.244,0,0,1-.25.03l-.053,0V36.1h1.017a1.085,1.085,0,0,0,1.209-1.018,1.067,1.067,0,0,0-1.149-1.037h-1.065v.238l.053,0a1.251,1.251,0,0,1,.236.045l.054.078v1.347A.065.065,0,0,1,271.736,35.834Zm.544-1.527h.047l.095,0a.693.693,0,0,1,.688.783c0,.5-.207.76-.616.76-.2,0-.214-.072-.214-.146Z" transform="translate(1242.713 2752.844)"/><path class="a" d="M297.228,35.827a1.769,1.769,0,0,1-.3.033l-.054,0V36.1h1.353v-.243l-.054,0a1.172,1.172,0,0,1-.279-.047.15.15,0,0,1-.081-.139V34.187a4.151,4.151,0,0,1,.055-.588l.011-.066H297.7l-.015.01a.81.81,0,0,1-.474.157.976.976,0,0,1-.4-.087l-.048-.021-.1.183.036.03a.99.99,0,0,0,.5.264l.106,0v1.629A.138.138,0,0,1,297.228,35.827Z" transform="translate(1242.713 2752.844)"/><path class="a" d="M299.965,36.233c-.152,0-.189-.042-.2-.074l-.032-.108c-.028-.12-.067-.284-.252-.284s-.272.1-.272.3a.541.541,0,0,0,.595.452,1.6,1.6,0,0,0,1.448-1.759c0-1.144-.733-1.232-.958-1.232a.947.947,0,0,0-.954.977.806.806,0,0,0,.779.882.837.837,0,0,0,.6-.24C300.64,35.708,300.386,36.233,299.965,36.233Zm.327-1.175c-.206,0-.417-.074-.417-.628,0-.43.14-.648.417-.648.224,0,.465.214.465.684S300.464,35.058,300.292,35.058Z" transform="translate(1242.713 2752.844)"/><path class="a" d="M303.1,36.233c-.152,0-.189-.042-.2-.074l-.031-.108c-.028-.12-.067-.284-.252-.284s-.272.1-.272.3a.541.541,0,0,0,.6.452,1.6,1.6,0,0,0,1.448-1.759c0-1.144-.733-1.232-.958-1.232a.946.946,0,0,0-.954.977.805.805,0,0,0,.778.882.839.839,0,0,0,.6-.24C303.779,35.708,303.525,36.233,303.1,36.233Zm.327-1.175c-.206,0-.417-.074-.417-.628,0-.43.14-.648.417-.648.224,0,.464.214.464.684S303.6,35.058,303.431,35.058Z" transform="translate(1242.713 2752.844)"/><path class="a" d="M306.266,34.16a1.253,1.253,0,0,0,1.106-.525l.021-.04-.149-.127-.036.029a.794.794,0,0,1-.563.2.655.655,0,0,1-.475-.136l-.017-.02h-.2l-.326,1.441.266.053.016-.047a.446.446,0,0,1,.432-.252c.151,0,.405.046.405.357,0,.083-.014.816-.5.816a.392.392,0,0,1-.313-.1.239.239,0,0,1,.024-.113.31.31,0,0,0,.031-.142.216.216,0,0,0-.229-.232.3.3,0,0,0-.308.312c0,.308.336.531.8.531a.965.965,0,0,0,1.029-.866.819.819,0,0,0-.862-.826,1.071,1.071,0,0,0-.425.092l.1-.4C306.135,34.158,306.206,34.16,306.266,34.16Z" transform="translate(1242.713 2752.844)"/><path class="a" d="M262.587,32.493h11.067a.285.285,0,1,0,0-.571H262.587a.285.285,0,1,0,0,.571Z" transform="translate(1242.713 2752.844)"/><path class="a" d="M262.587,38.3h11.067a.285.285,0,1,0,0-.571H262.587a.285.285,0,1,0,0,.571Z" transform="translate(1242.713 2752.844)"/><path class="a" d="M296.347,32.493h11.067a.285.285,0,1,0,0-.571H296.347a.285.285,0,1,0,0,.571Z" transform="translate(1242.713 2752.844)"/><path class="a" d="M296.347,38.3h11.067a.285.285,0,1,0,0-.571H296.347a.285.285,0,1,0,0,.571Z" transform="translate(1242.713 2752.844)"/><path class="a" d="M244.863,58.535H246.7V55.958h2.577V54.125H246.7V51.548h-1.833v2.577h-2.577v1.833h2.577Z" transform="translate(1242.713 2752.844)"/><path class="a" d="M322.877,58.535h1.833V55.958h2.577V54.125H324.71V51.548h-1.833v2.577H320.3v1.833h2.577Z" transform="translate(1242.713 2752.844)"/><path class="a" d="M258,69.164a.3.3,0,0,0,.3.3h52.308a.3.3,0,1,0,0-.606H258.307A.3.3,0,0,0,258,69.164Z" transform="translate(1242.713 2752.844)"/><path class="a" d="M258,76.853a.3.3,0,0,0,.3.3h52.308a.3.3,0,0,0,0-.607H258.307A.3.3,0,0,0,258,76.853Z" transform="translate(1242.713 2752.844)"/><path class="b" d="M254.646,62.028l-.295.059a.747.747,0,0,1-.139.016l-.06-.007c-.008,0-.023-.015-.049-.057l-.007-.06a.935.935,0,0,1,.023-.183l.005-.025v-.016c0-.014.012-.089.03-.2s.046-.29.082-.508c.069-.42.165-.969.285-1.636h2.245c.1.664.182,1.214.251,1.636q.057.348.086.531c.009.061.017.108.021.14l0,.036h0v.008l0,.017a1.1,1.1,0,0,1,.011.141l-.007.084-.006.018v0a.193.193,0,0,1-.064.068l-.074.01a.558.558,0,0,1-.123-.015l-.3-.066v1.073h3.552V62.028l-.295.06a.78.78,0,0,1-.149.016l-.117-.013a.436.436,0,0,1-.194-.109h0a.458.458,0,0,1-.1-.267h0c0-.033-.013-.088-.031-.194s-.042-.25-.075-.439q-.1-.6-.26-1.569t-.343-2.194q-.188-1.229-.4-2.521-.479-3-1.082-6.807l-.033-.208h-1.476l-1.287,7.03h0q-.229,1.29-.458,2.517t-.406,2.2q-.177.969-.281,1.563-.052.3-.079.452l-.02.12-.006.036v0a.55.55,0,0,1-.122.279.44.44,0,0,1-.192.107.615.615,0,0,1-.13.015.594.594,0,0,1-.134-.015l-.3-.066v1.073h2.491Zm.309-5.2q.166-.977.343-1.965t.344-1.926c.023-.128.046-.246.068-.37.02.123.039.24.06.367q.156.935.312,1.924t.312,1.967c.088.548.166,1.059.239,1.547h-1.941Z" transform="translate(1242.713 2752.844)"/><path class="b" d="M266.49,60.417h-1.023l-.01.236a3.285,3.285,0,0,1-.115.772,1.192,1.192,0,0,1-.275.474.636.636,0,0,1-.489.164h-1.71V49.088a.718.718,0,0,1,.047-.319l.052-.071,0,0,.036-.005.1.014.305.076V47.718H260.4v1.061l.306-.076.086-.013h.005l.007,0a.316.316,0,0,1,.105.1.556.556,0,0,1,.053.3V61.725a.5.5,0,0,1-.053.277l-.057.06-.009.006-.05.01-.016.012-.044-.012-.333-.125v1.143h6.092Z" transform="translate(1242.713 2752.844)"/><path class="b" d="M267.38,62l-.056.06-.009.006-.05.01-.016.012-.044-.012-.333-.125v1.143h6.092V60.417H271.94l-.01.236a3.276,3.276,0,0,1-.115.771,1.185,1.185,0,0,1-.275.474.636.636,0,0,1-.488.164h-1.711V49.088a.725.725,0,0,1,.047-.319l.053-.071,0,0,.036-.005.1.014.305.076V47.718h-3.011v1.061l.306-.076.086-.013h.006l.006,0a.316.316,0,0,1,.105.1.556.556,0,0,1,.053.3V61.725A.5.5,0,0,1,267.38,62Z" transform="translate(1242.713 2752.844)"/><path class="b" d="M277.268,59.545a7.073,7.073,0,0,0,.2,1.3,3.141,3.141,0,0,0,.439.979h0a2.952,2.952,0,0,0,1.166,1.029,3.051,3.051,0,0,0,2.831,0,2.975,2.975,0,0,0,1.154-1.029h0a3.163,3.163,0,0,0,.44-.979,7.115,7.115,0,0,0,.195-1.3q.053-.75.053-1.755V55.438q0-1.813-.031-3.014a13.483,13.483,0,0,0-.181-2.026h0a2.729,2.729,0,0,0-.444-1.27,3.145,3.145,0,0,0-.892-.89,3.229,3.229,0,0,0-.834-.384,3.061,3.061,0,0,0-.882-.136,3.209,3.209,0,0,0-1.712.516l0,0h0a3.03,3.03,0,0,0-.883.894,2.982,2.982,0,0,0-.451,1.26h0a10.983,10.983,0,0,0-.193,2.035q-.021,1.2-.021,3.012V57.79Q277.216,58.8,277.268,59.545Zm1.876-4.108v-4.6a2.593,2.593,0,0,1,.4-1.669,1.227,1.227,0,0,1,1.878,0,2.6,2.6,0,0,1,.4,1.669v2.092q0,1.218.021,2.508-.022,1.311-.021,2.54v2.1a3.175,3.175,0,0,1-.341,1.723,1.089,1.089,0,0,1-.974.446,1.143,1.143,0,0,1-1-.451,3.026,3.026,0,0,1-.358-1.717Z" transform="translate(1242.713 2752.844)"/><path class="b" d="M286.575,62l-.3.067a.557.557,0,0,1-.118.015l-.055-.007a.242.242,0,0,1-.085-.081h0a.525.525,0,0,1-.044-.268V52.637L289,63.095h2.179V49.109a.558.558,0,0,1,.05-.287.239.239,0,0,1,.081-.084l.054-.007a.553.553,0,0,1,.118.015l.3.066V47.739h-2.324v1.082l.306-.076.1-.013.05.007a.327.327,0,0,1,.1.095.5.5,0,0,1,.053.277v9.807L286.8,47.739h-2.554v1.082l.306-.076.1-.013.049.007a.321.321,0,0,1,.1.095.492.492,0,0,1,.053.277V61.725a.464.464,0,0,1-.047.259.32.32,0,0,1-.1.092l-.05.007-.1-.013-.306-.077v1.1h2.324Z" transform="translate(1242.713 2752.844)"/><path class="b" d="M298.689,60.417h-1.023l-.01.236a3.283,3.283,0,0,1-.115.772,1.192,1.192,0,0,1-.275.474.636.636,0,0,1-.489.164h-1.71V49.088a.725.725,0,0,1,.047-.319l.052-.071,0,0,.036-.005.1.014.305.076V47.718H292.6v1.061l.306-.076.086-.013h.005l.007,0a.316.316,0,0,1,.105.1.557.557,0,0,1,.053.3V61.725a.5.5,0,0,1-.053.277l-.057.06-.009.006-.05.01-.016.012-.044-.012-.333-.125v1.143h6.092Z" transform="translate(1242.713 2752.844)"/><path class="b" d="M299.4,62.011l-.058.073h0l0,0-.027.005-.07-.015-.333-.125v1.142h3.011V61.952l-.332.125-.064.015-.025-.015-.018,0-.051-.061h0a.56.56,0,0,1-.05-.286V49.088a.635.635,0,0,1,.05-.308l.063-.078.013-.012.019,0,.091.014.305.076V47.718H298.9v1.061l.306-.076.1-.013.021,0a.989.989,0,0,1,.069.089.628.628,0,0,1,.05.307V61.725A.567.567,0,0,1,299.4,62.011Z" transform="translate(1242.713 2752.844)"/><path class="b" d="M307.584,47.985v.836l.306-.076.1-.013.049.007a.322.322,0,0,1,.1.095.5.5,0,0,1,.053.277v9.807l-3.254-11.177H302.38v1.082l.306-.076.1-.013.049.007a.321.321,0,0,1,.1.095.5.5,0,0,1,.053.277V61.725a.466.466,0,0,1-.046.259.33.33,0,0,1-.1.092l-.05.007-.1-.013-.307-.077v1.1H304.7V62l-.3.067a.554.554,0,0,1-.118.015l-.055-.007a.245.245,0,0,1-.085-.081h0a.536.536,0,0,1-.044-.268V52.637l3.024,10.458h2.18V49.109a.56.56,0,0,1,.05-.287.239.239,0,0,1,.081-.084l.054-.007a.561.561,0,0,1,.119.015l.3.066V47.739h-2.324Z" transform="translate(1242.713 2752.844)"/><path class="b" d="M317.027,60.417H316l-.01.236a3.576,3.576,0,0,1-.115.793,1.223,1.223,0,0,1-.285.483.618.618,0,0,1-.478.174H313.2V55.955h1.211a.3.3,0,0,1,.236.078.666.666,0,0,1,.152.268l0,.01,0,.01a1.1,1.1,0,0,1,.066.409v.246h.972V53.921h-.972v.246a1.274,1.274,0,0,1-.068.436v.006a.6.6,0,0,1-.149.237.322.322,0,0,1-.242.073H313.2V48.669h1.919a.567.567,0,0,1,.468.194,1.555,1.555,0,0,1,.3.507,3.594,3.594,0,0,1,.115.791l.01.236h1.023V47.718h-6.3v1.061l.306-.076.086-.013h.006l.007,0a.243.243,0,0,1,.086.088.625.625,0,0,1,.05.308V61.725a.555.555,0,0,1-.05.286h0l-.046.053,0,0-.049.01-.016.012-.044-.012-.333-.125v1.143h6.3Z" transform="translate(1242.713 2752.844)"/><path class="b" d="M259.477,73.85a.587.587,0,0,1-.458-.18,1.308,1.308,0,0,1-.256-.487l-.029-.083h-.366l.038,1.147h.319l.1-.125a1.315,1.315,0,0,0,.63.155,1.077,1.077,0,0,0,.714-.251.843.843,0,0,0,.295-.642.762.762,0,0,0-.154-.5,1.067,1.067,0,0,0-.44-.3c-.179-.072-.362-.106-.544-.182a.5.5,0,0,1-.2-.13.25.25,0,0,1-.046-.169.211.211,0,0,1,.086-.179.27.27,0,0,1,.138-.055.586.586,0,0,1,.458.169,1.1,1.1,0,0,1,.224.452l.026.088h.376l-.045-1.107h-.317l-.1.119a1.115,1.115,0,0,0-.527-.144,1.037,1.037,0,0,0-.654.222.758.758,0,0,0-.289.591.875.875,0,0,0,.128.488.823.823,0,0,0,.385.3c.224.1.366.117.566.189a.6.6,0,0,1,.242.134.2.2,0,0,1,.054.153.308.308,0,0,1-.077.231A.372.372,0,0,1,259.477,73.85Z" transform="translate(1242.713 2752.844)"/><path class="b" d="M261.11,73.769a1.2,1.2,0,0,1-.125.02c-.06.007-.125.013-.159.016l-.115.008v.4h1.575v-.393l-.108-.013c-.035,0-.1-.016-.16-.027l-.081-.017-.028-.007-.01,0h-.007l-.03-.039v-.663h.917v.677l-.007.033-.017.011h0l-.009,0a2.647,2.647,0,0,1-.272.032l-.115.007v.4h1.575v-.4l-.114-.008c-.025,0-.092-.011-.152-.023l-.083-.017-.028-.007-.008,0h0l-.039-.042v-1.7l0-.03.027-.015a1.833,1.833,0,0,1,.281-.044l.115-.007v-.4h-1.575v.4l.115.007a1.368,1.368,0,0,1,.272.056l.036.048v.591h-.917v-.607l.005-.033.02-.01h0a1.762,1.762,0,0,1,.278-.045l.116-.007v-.4h-1.575v.4l.115.008a1.962,1.962,0,0,1,.282.06l.031.044v1.7Z" transform="translate(1242.713 2752.844)"/><path class="b" d="M266.59,71.854h0a1.453,1.453,0,0,0-2.016,0h0a1.37,1.37,0,0,0-.41,1.034,1.317,1.317,0,0,0,.449,1.013h0a1.369,1.369,0,0,0,.946.372,1.419,1.419,0,0,0,.993-.378h0a1.455,1.455,0,0,0,.037-2.043h0Zm-.555,1.731a.532.532,0,0,1-.917-.005,1.4,1.4,0,0,1-.159-.71,1.366,1.366,0,0,1,.176-.75.5.5,0,0,1,.441-.239.508.508,0,0,1,.474.282,1.449,1.449,0,0,1,.147.692A1.418,1.418,0,0,1,266.035,73.585Z" transform="translate(1242.713 2752.844)"/><path class="b" d="M268.529,73.209a1.246,1.246,0,0,0,.744-.246.851.851,0,0,0,.355-.677.708.708,0,0,0-.286-.568,1.065,1.065,0,0,0-.653-.205h-1.483v.4l.115.007a1.972,1.972,0,0,1,.3.051l.019.01.007.037v1.7l0,.03-.025.014c-.012,0-.069.014-.125.022s-.123.016-.157.018l-.116.007v.4h1.645v-.4l-.117-.006c-.048,0-.13-.01-.2-.018l-.1-.013-.033-.006-.009,0H268.4l-.02-.01-.005-.033v-.511Zm-.154-.427v-.851h.1a.3.3,0,0,1,.28.13.581.581,0,0,1,.076.311.467.467,0,0,1-.076.276.392.392,0,0,1-.345.134Z" transform="translate(1242.713 2752.844)"/><path class="b" d="M271.105,73.209a1.246,1.246,0,0,0,.744-.246.851.851,0,0,0,.356-.677.708.708,0,0,0-.286-.568,1.065,1.065,0,0,0-.653-.205h-1.482v.4l.116.007a1.981,1.981,0,0,1,.3.051l.018.01.007.037v1.7l0,.03-.026.014c-.012,0-.068.014-.124.022s-.124.016-.158.018l-.115.007v.4h1.645v-.4l-.117-.006c-.048,0-.13-.01-.2-.018l-.1-.013-.033-.006-.01,0h-.006l-.021-.01-.005-.033v-.511Zm-.154-.427v-.851h.1a.3.3,0,0,1,.28.13.581.581,0,0,1,.075.311.467.467,0,0,1-.076.276.392.392,0,0,1-.345.134Z" transform="translate(1242.713 2752.844)"/><path class="b" d="M272.8,73.756l-.024.013a1.308,1.308,0,0,1-.132.02c-.064.007-.133.013-.167.016l-.115.008v.4h1.61v-.4l-.115-.007c-.029,0-.1-.013-.166-.024l-.087-.018-.029-.007-.007,0h0l-.034-.021,0-.02V72l.006-.029.016-.007h.008a2.067,2.067,0,0,1,.3-.045l.115-.007v-.4h-1.61v.4l.115.008a2.124,2.124,0,0,1,.3.06L272.8,72l0,.023v1.712Z" transform="translate(1242.713 2752.844)"/><path class="b" d="M275.187,71.513h-1.2v.4l.114.008a1.26,1.26,0,0,1,.24.051.878.878,0,0,1,.189.077.248.248,0,0,1,.065.172v1.128a1.3,1.3,0,0,1-.023.285c-.015.065-.035.087-.042.091a1.164,1.164,0,0,1-.158.047,1.363,1.363,0,0,1-.175.034l-.115.007v.4h1.56v-.4l-.116-.007a1.965,1.965,0,0,1-.22-.042c-.047-.011-.094-.023-.129-.034l-.042-.015-.007,0a.193.193,0,0,1-.043-.1,1.266,1.266,0,0,1-.027-.287v-.836l1.347,1.754h.44V72.362a1.45,1.45,0,0,1,.018-.272c.013-.067.034-.09.038-.09l.012-.005a1.756,1.756,0,0,1,.32-.073l.116-.007v-.4H275.8v.4l.11.012a2.066,2.066,0,0,1,.212.038.992.992,0,0,1,.2.063h0s.022.015.036.082a1.489,1.489,0,0,1,.016.276v.7Z" transform="translate(1242.713 2752.844)"/><path class="b" d="M278.784,71.881a.66.66,0,0,1,.471.177,1.2,1.2,0,0,1,.294.5l.029.083h.365l-.032-1.158h-.353l-.077.119a1.291,1.291,0,0,0-.556-.144,1.547,1.547,0,0,0-1.095.418,1.428,1.428,0,0,0-.428,1.039,1.383,1.383,0,0,0,.4,1.006,1.232,1.232,0,0,0,.856.361,2.121,2.121,0,0,0,.783-.161l.161.164.046.048.191-.038.1-.02v-.922l.031-.056-.043-.115.044.115a1.048,1.048,0,0,1,.132-.03c.06-.011.118-.021.159-.03l.1-.022v-.372h-1.651v.4l.115.007a2.24,2.24,0,0,1,.4.06l.016.007.007.066v.165a.3.3,0,0,1-.1.205.536.536,0,0,1-.754-.159,1.246,1.246,0,0,1-.191-.7,1.368,1.368,0,0,1,.19-.773A.476.476,0,0,1,278.784,71.881Z" transform="translate(1242.713 2752.844)"/><path class="b" d="M282.016,73.753l-.022.011h0a1.148,1.148,0,0,1-.139.023c-.065.008-.133.014-.168.017l-.115.008v.4h2.537l.009-.113.077-.929h-.372l-.029.083a2.12,2.12,0,0,1-.115.247,1.054,1.054,0,0,1-.158.236l0,0,0,0a.3.3,0,0,1-.146.04c-.089.01-.206.01-.331.01a.6.6,0,0,1-.264-.029l-.014-.027a.569.569,0,0,1-.011-.133v-.577h.124c.171,0,.192.039.224.068a.555.555,0,0,1,.046.112.654.654,0,0,1,.03.15l.005.118h.4V72.235a.428.428,0,0,1,.026.056l.027.087h.36v-.866h-2.416v.4l.115.008c.03,0,.1.01.157.022a.884.884,0,0,1,.14.034l.035.025.006.023v1.7Zm.73-1.827h.265a2.917,2.917,0,0,1,.318.02h0a.463.463,0,0,1,.148.136.934.934,0,0,1,.069.1h-.364l-.011.111a.934.934,0,0,1-.031.155l-.025.067-.011.02,0,0h0l-.056.038a.452.452,0,0,1-.173.026h-.124Z" transform="translate(1242.713 2752.844)"/><path class="b" d="M285.64,71.916v-.4h-1.58v.4l.116.007a.784.784,0,0,1,.25.056c.06.038.063.041.1.115.311.8.447,1.171.794,2.072l.03.079h.375l.033-.073c.291-.653.764-1.675.916-2.008v0a.349.349,0,0,1,.129-.182h0a.888.888,0,0,1,.237-.056l.057,0,.061,0c.03,0,.1.01.157.022a.859.859,0,0,1,.14.034l.035.025.006.023v1.7l-.005.032-.022.011h0a1.147,1.147,0,0,1-.139.023c-.065.008-.133.014-.168.017l-.115.008v.4h2.537l.01-.113.077-.929h-.373l-.029.083a2.2,2.2,0,0,1-.115.247,1.085,1.085,0,0,1-.158.236l0,0,0,0a.3.3,0,0,1-.146.04c-.088.01-.205.01-.331.01a.6.6,0,0,1-.264-.029l-.014-.027a.523.523,0,0,1-.011-.133v-.577h.123c.171,0,.192.039.224.068a.538.538,0,0,1,.045.112.683.683,0,0,1,.03.15l.005.118h.4V72.235a.5.5,0,0,1,.026.056l.026.087h.36v-.866h-3.708v.4l.112.01a1.506,1.506,0,0,1,.272.047l.077.031a.8.8,0,0,1-.073.226c-.1.212-.245.559-.423.955-.235-.614-.411-1.081-.464-1.219a1.255,1.255,0,0,1,.268-.04Zm2.581.01h.265a2.917,2.917,0,0,1,.318.02h0a.459.459,0,0,1,.148.136.934.934,0,0,1,.069.1h-.364l-.011.111a.854.854,0,0,1-.031.155l-.025.067-.01.02,0,0h0l-.056.038a.453.453,0,0,1-.174.026h-.123Z" transform="translate(1242.713 2752.844)"/><path class="b" d="M290.239,73.751l-.026.014c-.012,0-.068.014-.124.022s-.124.016-.158.018l-.115.007v.4h1.575v-.4l-.115-.007c-.034,0-.1-.009-.157-.018s-.117-.02-.119-.021h-.006l-.02-.01-.005-.033v-.637h.048a.5.5,0,0,1,.44.357h0a3.464,3.464,0,0,1,.2.672l.021.1H292.8V73.8h-.123a1.122,1.122,0,0,1-.21-.021h0a.178.178,0,0,1-.077-.031.231.231,0,0,1-.058-.106h0c-.025-.073-.089-.224-.149-.365h0a.823.823,0,0,0-.41-.417,1.265,1.265,0,0,0,.209-.118.663.663,0,0,0,.3-.534.624.624,0,0,0-.322-.538,1.2,1.2,0,0,0-.611-.159h-1.527v.4l.115.007a1.959,1.959,0,0,1,.286.051l.02.01.006.038v1.7Zm.73-1.82h.159a.418.418,0,0,1,.258.064c.052.042.1.11.1.276a.353.353,0,0,1-.125.3.521.521,0,0,1-.316.088h-.073Z" transform="translate(1242.713 2752.844)"/><path class="b" d="M293.956,71.921l.117-.005v-.4h-1.625v.4l.115.007a.912.912,0,0,1,.248.052.481.481,0,0,1,.164.177c.155.251.32.525.484.829h0a.564.564,0,0,1,.09.2v.539l-.006.034-.025.015c-.051.012-.3.036-.362.04l-.115.007v.4h1.741v-.4l-.116-.007c-.031,0-.121-.014-.2-.027l-.109-.02-.037-.008-.008,0-.033-.021,0-.025v-.353a.752.752,0,0,1,.066-.323,5.6,5.6,0,0,1,.6-.91c.04-.045.065-.072.083-.089l.076-.048h.005l.179-.044.046.008a.441.441,0,0,1,.1.03h0c.066.04.057.037.075.083v0h0c.106.316.393,1.188.69,2.094l.028.085h.41l.578-1.486c.132.389.289.859.464,1.4l.027.085h.407l.03-.081c.261-.718.593-1.579.763-2v0h0c.038-.1.071-.144.124-.169h.006a.84.84,0,0,1,.241-.061l.086-.006.079.006a1.975,1.975,0,0,1,.282.06l.031.044v1.7l-.029.043a1.247,1.247,0,0,1-.125.02c-.06.007-.125.013-.159.016l-.115.008v.4H300.9v-.393l-.108-.013c-.035,0-.1-.016-.16-.027l-.081-.017-.028-.007-.009,0h-.007l-.03-.039v-.663h.916v.677l-.007.033-.017.011h0l-.01,0a2.639,2.639,0,0,1-.271.032l-.116.007v.4h1.576v-.4l-.114-.008c-.025,0-.092-.011-.152-.023l-.083-.017-.029-.007-.008,0h0l-.039-.042v-1.7l0-.03.027-.015a1.85,1.85,0,0,1,.281-.044l.116-.007v-.4h-1.576v.4l.116.007a1.375,1.375,0,0,1,.272.056l.036.048v.591h-.917v-.607l.005-.033.02-.01h0a1.745,1.745,0,0,1,.278-.045l.115-.007v-.4h-6.813v.4l.113.01a1.434,1.434,0,0,1,.252.041l.03.012-.017.033c-.069.121-.209.337-.386.608-.115-.19-.218-.361-.291-.485-.043-.073-.076-.131-.1-.176.027-.006.058-.012.089-.016C293.846,71.928,293.915,71.922,293.956,71.921Zm3.979,0,.1,0,.062,0a1.156,1.156,0,0,1,.265.047l.076.033a1.437,1.437,0,0,1-.063.244c-.066.212-.168.485-.308.847-.2-.581-.338-.989-.38-1.118v-.009A.966.966,0,0,1,297.935,71.916Zm-1.639.019a.823.823,0,0,1,.149-.019l.1,0,.056,0a.79.79,0,0,1,.13.023.486.486,0,0,1,.1.033h0a.239.239,0,0,1,.119.223l-.353.9c-.189-.579-.321-.989-.368-1.129l0-.014A.514.514,0,0,1,296.3,71.935Z" transform="translate(1242.713 2752.844)"/><path class="b" d="M303.186,73.753l-.022.011h0a1.117,1.117,0,0,1-.139.023c-.065.008-.133.014-.168.017l-.115.008v.4h2.537l.01-.113.077-.929h-.373l-.029.083a2.13,2.13,0,0,1-.115.247,1.069,1.069,0,0,1-.158.236l0,0,0,0a.3.3,0,0,1-.146.04c-.089.01-.206.01-.332.01a.6.6,0,0,1-.264-.029l-.014-.027a.568.568,0,0,1-.011-.133v-.577h.124c.171,0,.192.039.224.068a.536.536,0,0,1,.045.112.658.658,0,0,1,.03.15l.005.118h.4V72.235a.5.5,0,0,1,.026.056l.026.087h.36v-.866h-2.416v.4l.115.008c.03,0,.1.01.157.022a.88.88,0,0,1,.141.034l.035.025.005.023v1.7Zm.73-1.827h.265a2.917,2.917,0,0,1,.318.02h0a.458.458,0,0,1,.148.136.934.934,0,0,1,.069.1h-.364l-.011.111a.851.851,0,0,1-.031.155l-.024.067-.011.02,0,0h0l-.056.038a.452.452,0,0,1-.173.026h-.124Z" transform="translate(1242.713 2752.844)"/><path class="b" d="M305.934,73.751l-.025.014c-.012,0-.069.014-.125.022s-.123.016-.157.018l-.116.007v.4h1.575v-.4l-.115-.007c-.034,0-.1-.009-.157-.018s-.117-.02-.119-.021h-.006l-.02-.01-.005-.033v-.637h.048a.5.5,0,0,1,.44.357h0a3.462,3.462,0,0,1,.2.672l.021.1h3.615L311,74.1l.077-.929H310.7l-.029.083a2.12,2.12,0,0,1-.115.247,1.054,1.054,0,0,1-.158.236l0,0,0,0a.3.3,0,0,1-.146.04c-.089.01-.206.01-.331.01a.6.6,0,0,1-.264-.029l-.014-.027a.569.569,0,0,1-.011-.133v-.577h.124c.171,0,.192.039.224.068a.553.553,0,0,1,.046.112.709.709,0,0,1,.03.15l0,.118h.4V72.235a.44.44,0,0,1,.026.056l.026.087h.36v-.866h-2.416v.4l.115.008c.029,0,.095.01.156.022a.88.88,0,0,1,.141.034L308.9,72l.006.023v1.7l-.006.032-.022.011h0a1.151,1.151,0,0,1-.139.023c-.065.008-.133.014-.168.017l-.074.005V73.8h-.123a1.117,1.117,0,0,1-.21-.021h0a.179.179,0,0,1-.077-.031.236.236,0,0,1-.058-.106h0c-.025-.073-.089-.224-.149-.365h0a.824.824,0,0,0-.41-.417,1.266,1.266,0,0,0,.209-.118.663.663,0,0,0,.3-.534.624.624,0,0,0-.322-.538,1.2,1.2,0,0,0-.611-.159h-1.527v.4l.116.007a1.964,1.964,0,0,1,.286.051l.02.01.006.038v1.7Zm3.7-1.825h.265a2.917,2.917,0,0,1,.318.02h0a.459.459,0,0,1,.148.136.934.934,0,0,1,.069.1h-.364l-.011.111a.934.934,0,0,1-.031.155l-.025.067-.011.02,0,0h0l-.056.038a.452.452,0,0,1-.173.026h-.124Zm-2.968.005h.159a.418.418,0,0,1,.258.064c.052.042.1.11.1.276a.351.351,0,0,1-.125.3.521.521,0,0,1-.316.088h-.073Z" transform="translate(1242.713 2752.844)"/><path class="b" d="M277.535,39.119h6.345v1.545h-1.7a.645.645,0,0,0-.644.644v.622a.645.645,0,0,0,.644.644h5.8a.645.645,0,0,0,.645-.644v-.622a.646.646,0,0,0-.645-.644h-1.7V39.119h6.346a1.308,1.308,0,0,0,1.307-1.307v-9.35a1.308,1.308,0,0,0-1.307-1.307h-15.1a1.308,1.308,0,0,0-1.307,1.307v9.35A1.308,1.308,0,0,0,277.535,39.119Zm15.6-1.307a.5.5,0,0,1-.5.5h-15.1a.5.5,0,0,1-.5-.5v-9.35a.5.5,0,0,1,.5-.5h15.1a.5.5,0,0,1,.5.5Zm-8.442,3.664V39.119h.789v2.357h2.341v.288h-5.471v-.288Z" transform="translate(1242.713 2752.844)"/><path class="b" d="M292.036,28.475h-13.9a.583.583,0,0,0-.582.582v8.16a.583.583,0,0,0,.582.583h13.9a.583.583,0,0,0,.582-.583v-8.16A.583.583,0,0,0,292.036,28.475Zm0,8.8h-13.9l-.053-.054v-8.16l.053-.053h13.9l.053.053v8.16Z" transform="translate(1242.713 2752.844)"/><path class="b" d="M286.213,30.144h0q-.144-.053-.294-.093t-.294-.064a3.246,3.246,0,0,0-.534-.047,3.3,3.3,0,0,0-.543.048c-.1.017-.2.039-.294.064a3.083,3.083,0,0,0-.294.094,3.2,3.2,0,0,0,0,5.985q.144.053.294.094c.1.026.194.047.294.064a3.248,3.248,0,0,0,.543.049,3.066,3.066,0,0,0,.534-.052c.08-.014.165-.027.251-.049l.007,0,.049-.02h0a.316.316,0,0,0,.194-.287l-.013-.073h0a.256.256,0,0,0-.007-.032v0h0a.284.284,0,0,0-.178-.209.363.363,0,0,0-.132-.025l-.079.009h0c-.043.012-.088.021-.134.03a2.671,2.671,0,0,1-.491.036,2.509,2.509,0,0,1-.5-.05,2.383,2.383,0,0,1-.269-.071,2.433,2.433,0,0,1-.269-.106,2.528,2.528,0,0,1,.269-4.7,2.582,2.582,0,0,1,.269-.071,2.484,2.484,0,0,1,.987,0,2.581,2.581,0,0,1,.269.07,2.427,2.427,0,0,1,.269.106,2.532,2.532,0,0,1,1.49,2.293,2.365,2.365,0,0,1-.274,1.143l0,.006,0,.007a.858.858,0,0,1-.145.2.613.613,0,0,1-.272.179h-.049a.215.215,0,0,1-.053-.007l-.036-.106.026-.142h-.034V33.133a1.81,1.81,0,0,0-.509-1.265,1.691,1.691,0,0,0-.3-.247,1.627,1.627,0,0,0-.306-.151,1.58,1.58,0,0,0-.556-.1,1.6,1.6,0,0,0-.565.1,1.666,1.666,0,0,0-.305.151,1.725,1.725,0,0,0-.3.244,1.8,1.8,0,0,0-.519,1.265,1.825,1.825,0,0,0,.518,1.277,1.721,1.721,0,0,0,.3.246,1.645,1.645,0,0,0,.305.153,1.6,1.6,0,0,0,.566.105,1.564,1.564,0,0,0,.557-.1,1.6,1.6,0,0,0,.306-.156,1.737,1.737,0,0,0,.145-.12v.027a.882.882,0,0,0,.161.489l0,0,0,0a.809.809,0,0,0,.809.265,1.4,1.4,0,0,0,.64-.415,1.875,1.875,0,0,0,.162-.206l.044-.067.01-.016.008-.008.009-.017a3.226,3.226,0,0,0-1.734-4.45Zm-.163,3.276a1.1,1.1,0,0,1-.253.475,1.037,1.037,0,0,1-.252.193.891.891,0,0,1-.915,0,.993.993,0,0,1-.252-.2,1.1,1.1,0,0,1-.254-.514,1.18,1.18,0,0,1-.024-.236,1.162,1.162,0,0,1,.024-.234,1.126,1.126,0,0,1,.254-.518,1.012,1.012,0,0,1,.252-.2.868.868,0,0,1,.912,0,1.024,1.024,0,0,1,.253.2,1.12,1.12,0,0,1,.254.479,1.024,1.024,0,0,1,0,.57Z" transform="translate(1242.713 2752.844)"/><g transform="translate(1242.713 2752.844)"><path class="c" d="M263.1,35.83a1.759,1.759,0,0,1-.253.033l-.053,0V36.1h1.93l.061-.744h-.222l-.013.038a1.447,1.447,0,0,1-.23.4c-.051.051-.239.051-.406.051-.261,0-.27-.019-.27-.19v-.5h.138c.147,0,.189.046.209.068a.6.6,0,0,1,.069.232l0,.055h.236V34.58h-.233l0,.051a.507.507,0,0,1-.067.22c-.022.022-.063.063-.211.063h-.138V34.3h.25a2.337,2.337,0,0,1,.256.015c.065.008.213.189.247.3l.012.041h.215v-.6H262.8v.238l.053,0a1.153,1.153,0,0,1,.248.047c.051.022.057.05.057.075v1.343A.064.064,0,0,1,263.1,35.83Z"/><path class="c" d="M266.7,35.9c-.346,0-.491-.222-.6-.555l-.013-.039h-.22l.028.827h.194l.089-.11a1,1,0,0,0,.51.133.7.7,0,0,0,.758-.667.588.588,0,0,0-.446-.591c-.063-.025-.128-.045-.2-.065a2.434,2.434,0,0,1-.232-.078c-.191-.079-.224-.152-.224-.274a.231.231,0,0,1,.218-.226c.354,0,.484.2.578.521l.012.041h.226l-.033-.8h-.193l-.088.1a.851.851,0,0,0-.428-.125.654.654,0,0,0-.706.6.578.578,0,0,0,.381.59,2.174,2.174,0,0,0,.266.092c.055.016.113.033.18.057.217.076.261.158.261.265C267.013,35.8,266.909,35.9,266.7,35.9Z"/><path class="c" d="M269.732,34.3a1.559,1.559,0,0,1,.2.011c.079.01.236.256.3.461l.012.042h.212v-.76h-1.979v.76h.206l.013-.04c.067-.211.224-.453.3-.463a1.8,1.8,0,0,1,.2-.011h.023v1.457l-.053.077c-.027.008-.213.028-.292.033l-.053,0V36.1H270.1v-.238l-.053,0a2.757,2.757,0,0,1-.291-.048l-.054-.074V34.3Z"/><path class="c" d="M271.736,35.834a2.244,2.244,0,0,1-.25.03l-.053,0V36.1h1.017a1.085,1.085,0,0,0,1.209-1.018,1.067,1.067,0,0,0-1.149-1.037h-1.065v.238l.053,0a1.251,1.251,0,0,1,.236.045l.054.078v1.347A.065.065,0,0,1,271.736,35.834Zm.544-1.527h.047l.095,0a.693.693,0,0,1,.688.783c0,.5-.207.76-.616.76-.2,0-.214-.072-.214-.146Z"/><path class="c" d="M297.228,35.827a1.769,1.769,0,0,1-.3.033l-.054,0V36.1h1.353v-.243l-.054,0a1.172,1.172,0,0,1-.279-.047.15.15,0,0,1-.081-.139V34.187a4.151,4.151,0,0,1,.055-.588l.011-.066H297.7l-.015.01a.81.81,0,0,1-.474.157.976.976,0,0,1-.4-.087l-.048-.021-.1.183.036.03a.99.99,0,0,0,.5.264l.106,0v1.629A.138.138,0,0,1,297.228,35.827Z"/><path class="c" d="M299.965,36.233c-.152,0-.189-.042-.2-.074l-.032-.108c-.028-.12-.067-.284-.252-.284s-.272.1-.272.3a.541.541,0,0,0,.595.452,1.6,1.6,0,0,0,1.448-1.759c0-1.144-.733-1.232-.958-1.232a.947.947,0,0,0-.954.977.806.806,0,0,0,.779.882.837.837,0,0,0,.6-.24C300.64,35.708,300.386,36.233,299.965,36.233Zm.327-1.175c-.206,0-.417-.074-.417-.628,0-.43.14-.648.417-.648.224,0,.465.214.465.684S300.464,35.058,300.292,35.058Z"/><path class="c" d="M303.1,36.233c-.152,0-.189-.042-.2-.074l-.031-.108c-.028-.12-.067-.284-.252-.284s-.272.1-.272.3a.541.541,0,0,0,.6.452,1.6,1.6,0,0,0,1.448-1.759c0-1.144-.733-1.232-.958-1.232a.946.946,0,0,0-.954.977.805.805,0,0,0,.778.882.839.839,0,0,0,.6-.24C303.779,35.708,303.525,36.233,303.1,36.233Zm.327-1.175c-.206,0-.417-.074-.417-.628,0-.43.14-.648.417-.648.224,0,.464.214.464.684S303.6,35.058,303.431,35.058Z"/><path class="c" d="M306.266,34.16a1.253,1.253,0,0,0,1.106-.525l.021-.04-.149-.127-.036.029a.794.794,0,0,1-.563.2.655.655,0,0,1-.475-.136l-.017-.02h-.2l-.326,1.441.266.053.016-.047a.446.446,0,0,1,.432-.252c.151,0,.405.046.405.357,0,.083-.014.816-.5.816a.392.392,0,0,1-.313-.1.239.239,0,0,1,.024-.113.31.31,0,0,0,.031-.142.216.216,0,0,0-.229-.232.3.3,0,0,0-.308.312c0,.308.336.531.8.531a.965.965,0,0,0,1.029-.866.819.819,0,0,0-.862-.826,1.071,1.071,0,0,0-.425.092l.1-.4C306.135,34.158,306.206,34.16,306.266,34.16Z"/><path class="c" d="M262.587,32.493h11.067a.285.285,0,1,0,0-.571H262.587a.285.285,0,1,0,0,.571Z"/><path class="c" d="M262.587,38.3h11.067a.285.285,0,1,0,0-.571H262.587a.285.285,0,1,0,0,.571Z"/><path class="c" d="M296.347,32.493h11.067a.285.285,0,1,0,0-.571H296.347a.285.285,0,1,0,0,.571Z"/><path class="c" d="M296.347,38.3h11.067a.285.285,0,1,0,0-.571H296.347a.285.285,0,1,0,0,.571Z"/><path class="c" d="M244.863,58.535H246.7V55.958h2.577V54.125H246.7V51.548h-1.833v2.577h-2.577v1.833h2.577Z"/><path class="c" d="M322.877,58.535h1.833V55.958h2.577V54.125H324.71V51.548h-1.833v2.577H320.3v1.833h2.577Z"/><path class="c" d="M258,69.164a.3.3,0,0,0,.3.3h52.308a.3.3,0,1,0,0-.606H258.307A.3.3,0,0,0,258,69.164Z"/><path class="c" d="M258,76.853a.3.3,0,0,0,.3.3h52.308a.3.3,0,0,0,0-.607H258.307A.3.3,0,0,0,258,76.853Z"/><path class="c" d="M254.646,62.028l-.295.059a.747.747,0,0,1-.139.016l-.06-.007c-.008,0-.023-.015-.049-.057l-.007-.06a.935.935,0,0,1,.023-.183l.005-.025v-.016c0-.014.012-.089.03-.2s.046-.29.082-.508c.069-.42.165-.969.285-1.636h2.245c.1.664.182,1.214.251,1.636q.057.348.086.531c.009.061.017.108.021.14l0,.036h0v.008l0,.017a1.1,1.1,0,0,1,.011.141l-.007.084-.006.018v0a.193.193,0,0,1-.064.068l-.074.01a.558.558,0,0,1-.123-.015l-.3-.066v1.073h3.552V62.028l-.295.06a.78.78,0,0,1-.149.016l-.117-.013a.436.436,0,0,1-.194-.109h0a.458.458,0,0,1-.1-.267h0c0-.033-.013-.088-.031-.194s-.042-.25-.075-.439q-.1-.6-.26-1.569t-.343-2.194q-.188-1.229-.4-2.521-.479-3-1.082-6.807l-.033-.208h-1.476l-1.287,7.03h0q-.229,1.29-.458,2.517t-.406,2.2q-.177.969-.281,1.563-.052.3-.079.452l-.02.12-.006.036v0a.55.55,0,0,1-.122.279.44.44,0,0,1-.192.107.615.615,0,0,1-.13.015.594.594,0,0,1-.134-.015l-.3-.066v1.073h2.491Zm.309-5.2q.166-.977.343-1.965t.344-1.926c.023-.128.046-.246.068-.37.02.123.039.24.06.367q.156.935.312,1.924t.312,1.967c.088.548.166,1.059.239,1.547h-1.941Z"/><path class="c" d="M266.49,60.417h-1.023l-.01.236a3.285,3.285,0,0,1-.115.772,1.192,1.192,0,0,1-.275.474.636.636,0,0,1-.489.164h-1.71V49.088a.718.718,0,0,1,.047-.319l.052-.071,0,0,.036-.005.1.014.305.076V47.718H260.4v1.061l.306-.076.086-.013h.005l.007,0a.316.316,0,0,1,.105.1.556.556,0,0,1,.053.3V61.725a.5.5,0,0,1-.053.277l-.057.06-.009.006-.05.01-.016.012-.044-.012-.333-.125v1.143h6.092Z"/><path class="c" d="M267.38,62l-.056.06-.009.006-.05.01-.016.012-.044-.012-.333-.125v1.143h6.092V60.417H271.94l-.01.236a3.276,3.276,0,0,1-.115.771,1.185,1.185,0,0,1-.275.474.636.636,0,0,1-.488.164h-1.711V49.088a.725.725,0,0,1,.047-.319l.053-.071,0,0,.036-.005.1.014.305.076V47.718h-3.011v1.061l.306-.076.086-.013h.006l.006,0a.316.316,0,0,1,.105.1.556.556,0,0,1,.053.3V61.725A.5.5,0,0,1,267.38,62Z"/><path class="c" d="M277.268,59.545a7.073,7.073,0,0,0,.2,1.3,3.141,3.141,0,0,0,.439.979h0a2.952,2.952,0,0,0,1.166,1.029,3.051,3.051,0,0,0,2.831,0,2.975,2.975,0,0,0,1.154-1.029h0a3.163,3.163,0,0,0,.44-.979,7.115,7.115,0,0,0,.195-1.3q.053-.75.053-1.755V55.438q0-1.813-.031-3.014a13.483,13.483,0,0,0-.181-2.026h0a2.729,2.729,0,0,0-.444-1.27,3.145,3.145,0,0,0-.892-.89,3.229,3.229,0,0,0-.834-.384,3.061,3.061,0,0,0-.882-.136,3.209,3.209,0,0,0-1.712.516l0,0h0a3.03,3.03,0,0,0-.883.894,2.982,2.982,0,0,0-.451,1.26h0a10.983,10.983,0,0,0-.193,2.035q-.021,1.2-.021,3.012V57.79Q277.216,58.8,277.268,59.545Zm1.876-4.108v-4.6a2.593,2.593,0,0,1,.4-1.669,1.227,1.227,0,0,1,1.878,0,2.6,2.6,0,0,1,.4,1.669v2.092q0,1.218.021,2.508-.022,1.311-.021,2.54v2.1a3.175,3.175,0,0,1-.341,1.723,1.089,1.089,0,0,1-.974.446,1.143,1.143,0,0,1-1-.451,3.026,3.026,0,0,1-.358-1.717Z"/><path class="c" d="M286.575,62l-.3.067a.557.557,0,0,1-.118.015l-.055-.007a.242.242,0,0,1-.085-.081h0a.525.525,0,0,1-.044-.268V52.637L289,63.095h2.179V49.109a.558.558,0,0,1,.05-.287.239.239,0,0,1,.081-.084l.054-.007a.553.553,0,0,1,.118.015l.3.066V47.739h-2.324v1.082l.306-.076.1-.013.05.007a.327.327,0,0,1,.1.095.5.5,0,0,1,.053.277v9.807L286.8,47.739h-2.554v1.082l.306-.076.1-.013.049.007a.321.321,0,0,1,.1.095.492.492,0,0,1,.053.277V61.725a.464.464,0,0,1-.047.259.32.32,0,0,1-.1.092l-.05.007-.1-.013-.306-.077v1.1h2.324Z"/><path class="c" d="M298.689,60.417h-1.023l-.01.236a3.283,3.283,0,0,1-.115.772,1.192,1.192,0,0,1-.275.474.636.636,0,0,1-.489.164h-1.71V49.088a.725.725,0,0,1,.047-.319l.052-.071,0,0,.036-.005.1.014.305.076V47.718H292.6v1.061l.306-.076.086-.013h.005l.007,0a.316.316,0,0,1,.105.1.557.557,0,0,1,.053.3V61.725a.5.5,0,0,1-.053.277l-.057.06-.009.006-.05.01-.016.012-.044-.012-.333-.125v1.143h6.092Z"/><path class="c" d="M299.4,62.011l-.058.073h0l0,0-.027.005-.07-.015-.333-.125v1.142h3.011V61.952l-.332.125-.064.015-.025-.015-.018,0-.051-.061h0a.56.56,0,0,1-.05-.286V49.088a.635.635,0,0,1,.05-.308l.063-.078.013-.012.019,0,.091.014.305.076V47.718H298.9v1.061l.306-.076.1-.013.021,0a.989.989,0,0,1,.069.089.628.628,0,0,1,.05.307V61.725A.567.567,0,0,1,299.4,62.011Z"/><path class="c" d="M307.584,47.985v.836l.306-.076.1-.013.049.007a.322.322,0,0,1,.1.095.5.5,0,0,1,.053.277v9.807l-3.254-11.177H302.38v1.082l.306-.076.1-.013.049.007a.321.321,0,0,1,.1.095.5.5,0,0,1,.053.277V61.725a.466.466,0,0,1-.046.259.33.33,0,0,1-.1.092l-.05.007-.1-.013-.307-.077v1.1H304.7V62l-.3.067a.554.554,0,0,1-.118.015l-.055-.007a.245.245,0,0,1-.085-.081h0a.536.536,0,0,1-.044-.268V52.637l3.024,10.458h2.18V49.109a.56.56,0,0,1,.05-.287.239.239,0,0,1,.081-.084l.054-.007a.561.561,0,0,1,.119.015l.3.066V47.739h-2.324Z"/><path class="c" d="M317.027,60.417H316l-.01.236a3.576,3.576,0,0,1-.115.793,1.223,1.223,0,0,1-.285.483.618.618,0,0,1-.478.174H313.2V55.955h1.211a.3.3,0,0,1,.236.078.666.666,0,0,1,.152.268l0,.01,0,.01a1.1,1.1,0,0,1,.066.409v.246h.972V53.921h-.972v.246a1.274,1.274,0,0,1-.068.436v.006a.6.6,0,0,1-.149.237.322.322,0,0,1-.242.073H313.2V48.669h1.919a.567.567,0,0,1,.468.194,1.555,1.555,0,0,1,.3.507,3.594,3.594,0,0,1,.115.791l.01.236h1.023V47.718h-6.3v1.061l.306-.076.086-.013h.006l.007,0a.243.243,0,0,1,.086.088.625.625,0,0,1,.05.308V61.725a.555.555,0,0,1-.05.286h0l-.046.053,0,0-.049.01-.016.012-.044-.012-.333-.125v1.143h6.3Z"/><path class="c" d="M259.477,73.85a.587.587,0,0,1-.458-.18,1.308,1.308,0,0,1-.256-.487l-.029-.083h-.366l.038,1.147h.319l.1-.125a1.315,1.315,0,0,0,.63.155,1.077,1.077,0,0,0,.714-.251.843.843,0,0,0,.295-.642.762.762,0,0,0-.154-.5,1.067,1.067,0,0,0-.44-.3c-.179-.072-.362-.106-.544-.182a.5.5,0,0,1-.2-.13.25.25,0,0,1-.046-.169.211.211,0,0,1,.086-.179.27.27,0,0,1,.138-.055.586.586,0,0,1,.458.169,1.1,1.1,0,0,1,.224.452l.026.088h.376l-.045-1.107h-.317l-.1.119a1.115,1.115,0,0,0-.527-.144,1.037,1.037,0,0,0-.654.222.758.758,0,0,0-.289.591.875.875,0,0,0,.128.488.823.823,0,0,0,.385.3c.224.1.366.117.566.189a.6.6,0,0,1,.242.134.2.2,0,0,1,.054.153.308.308,0,0,1-.077.231A.372.372,0,0,1,259.477,73.85Z"/><path class="c" d="M261.11,73.769a1.2,1.2,0,0,1-.125.02c-.06.007-.125.013-.159.016l-.115.008v.4h1.575v-.393l-.108-.013c-.035,0-.1-.016-.16-.027l-.081-.017-.028-.007-.01,0h-.007l-.03-.039v-.663h.917v.677l-.007.033-.017.011h0l-.009,0a2.647,2.647,0,0,1-.272.032l-.115.007v.4h1.575v-.4l-.114-.008c-.025,0-.092-.011-.152-.023l-.083-.017-.028-.007-.008,0h0l-.039-.042v-1.7l0-.03.027-.015a1.833,1.833,0,0,1,.281-.044l.115-.007v-.4h-1.575v.4l.115.007a1.368,1.368,0,0,1,.272.056l.036.048v.591h-.917v-.607l.005-.033.02-.01h0a1.762,1.762,0,0,1,.278-.045l.116-.007v-.4h-1.575v.4l.115.008a1.962,1.962,0,0,1,.282.06l.031.044v1.7Z"/><path class="c" d="M266.59,71.854h0a1.453,1.453,0,0,0-2.016,0h0a1.37,1.37,0,0,0-.41,1.034,1.317,1.317,0,0,0,.449,1.013h0a1.369,1.369,0,0,0,.946.372,1.419,1.419,0,0,0,.993-.378h0a1.455,1.455,0,0,0,.037-2.043h0Zm-.555,1.731a.532.532,0,0,1-.917-.005,1.4,1.4,0,0,1-.159-.71,1.366,1.366,0,0,1,.176-.75.5.5,0,0,1,.441-.239.508.508,0,0,1,.474.282,1.449,1.449,0,0,1,.147.692A1.418,1.418,0,0,1,266.035,73.585Z"/><path class="c" d="M268.529,73.209a1.246,1.246,0,0,0,.744-.246.851.851,0,0,0,.355-.677.708.708,0,0,0-.286-.568,1.065,1.065,0,0,0-.653-.205h-1.483v.4l.115.007a1.972,1.972,0,0,1,.3.051l.019.01.007.037v1.7l0,.03-.025.014c-.012,0-.069.014-.125.022s-.123.016-.157.018l-.116.007v.4h1.645v-.4l-.117-.006c-.048,0-.13-.01-.2-.018l-.1-.013-.033-.006-.009,0H268.4l-.02-.01-.005-.033v-.511Zm-.154-.427v-.851h.1a.3.3,0,0,1,.28.13.581.581,0,0,1,.076.311.467.467,0,0,1-.076.276.392.392,0,0,1-.345.134Z"/><path class="c" d="M271.105,73.209a1.246,1.246,0,0,0,.744-.246.851.851,0,0,0,.356-.677.708.708,0,0,0-.286-.568,1.065,1.065,0,0,0-.653-.205h-1.482v.4l.116.007a1.981,1.981,0,0,1,.3.051l.018.01.007.037v1.7l0,.03-.026.014c-.012,0-.068.014-.124.022s-.124.016-.158.018l-.115.007v.4h1.645v-.4l-.117-.006c-.048,0-.13-.01-.2-.018l-.1-.013-.033-.006-.01,0h-.006l-.021-.01-.005-.033v-.511Zm-.154-.427v-.851h.1a.3.3,0,0,1,.28.13.581.581,0,0,1,.075.311.467.467,0,0,1-.076.276.392.392,0,0,1-.345.134Z"/><path class="c" d="M272.8,73.756l-.024.013a1.308,1.308,0,0,1-.132.02c-.064.007-.133.013-.167.016l-.115.008v.4h1.61v-.4l-.115-.007c-.029,0-.1-.013-.166-.024l-.087-.018-.029-.007-.007,0h0l-.034-.021,0-.02V72l.006-.029.016-.007h.008a2.067,2.067,0,0,1,.3-.045l.115-.007v-.4h-1.61v.4l.115.008a2.124,2.124,0,0,1,.3.06L272.8,72l0,.023v1.712Z"/><path class="c" d="M275.187,71.513h-1.2v.4l.114.008a1.26,1.26,0,0,1,.24.051.878.878,0,0,1,.189.077.248.248,0,0,1,.065.172v1.128a1.3,1.3,0,0,1-.023.285c-.015.065-.035.087-.042.091a1.164,1.164,0,0,1-.158.047,1.363,1.363,0,0,1-.175.034l-.115.007v.4h1.56v-.4l-.116-.007a1.965,1.965,0,0,1-.22-.042c-.047-.011-.094-.023-.129-.034l-.042-.015-.007,0a.193.193,0,0,1-.043-.1,1.266,1.266,0,0,1-.027-.287v-.836l1.347,1.754h.44V72.362a1.45,1.45,0,0,1,.018-.272c.013-.067.034-.09.038-.09l.012-.005a1.756,1.756,0,0,1,.32-.073l.116-.007v-.4H275.8v.4l.11.012a2.066,2.066,0,0,1,.212.038.992.992,0,0,1,.2.063h0s.022.015.036.082a1.489,1.489,0,0,1,.016.276v.7Z"/><path class="c" d="M278.784,71.881a.66.66,0,0,1,.471.177,1.2,1.2,0,0,1,.294.5l.029.083h.365l-.032-1.158h-.353l-.077.119a1.291,1.291,0,0,0-.556-.144,1.547,1.547,0,0,0-1.095.418,1.428,1.428,0,0,0-.428,1.039,1.383,1.383,0,0,0,.4,1.006,1.232,1.232,0,0,0,.856.361,2.121,2.121,0,0,0,.783-.161l.161.164.046.048.191-.038.1-.02v-.922l.031-.056-.043-.115.044.115a1.048,1.048,0,0,1,.132-.03c.06-.011.118-.021.159-.03l.1-.022v-.372h-1.651v.4l.115.007a2.24,2.24,0,0,1,.4.06l.016.007.007.066v.165a.3.3,0,0,1-.1.205.536.536,0,0,1-.754-.159,1.246,1.246,0,0,1-.191-.7,1.368,1.368,0,0,1,.19-.773A.476.476,0,0,1,278.784,71.881Z"/><path class="c" d="M282.016,73.753l-.022.011h0a1.148,1.148,0,0,1-.139.023c-.065.008-.133.014-.168.017l-.115.008v.4h2.537l.009-.113.077-.929h-.372l-.029.083a2.12,2.12,0,0,1-.115.247,1.054,1.054,0,0,1-.158.236l0,0,0,0a.3.3,0,0,1-.146.04c-.089.01-.206.01-.331.01a.6.6,0,0,1-.264-.029l-.014-.027a.569.569,0,0,1-.011-.133v-.577h.124c.171,0,.192.039.224.068a.555.555,0,0,1,.046.112.654.654,0,0,1,.03.15l.005.118h.4V72.235a.428.428,0,0,1,.026.056l.027.087h.36v-.866h-2.416v.4l.115.008c.03,0,.1.01.157.022a.884.884,0,0,1,.14.034l.035.025.006.023v1.7Zm.73-1.827h.265a2.917,2.917,0,0,1,.318.02h0a.463.463,0,0,1,.148.136.934.934,0,0,1,.069.1h-.364l-.011.111a.934.934,0,0,1-.031.155l-.025.067-.011.02,0,0h0l-.056.038a.452.452,0,0,1-.173.026h-.124Z"/><path class="c" d="M285.64,71.916v-.4h-1.58v.4l.116.007a.784.784,0,0,1,.25.056c.06.038.063.041.1.115.311.8.447,1.171.794,2.072l.03.079h.375l.033-.073c.291-.653.764-1.675.916-2.008v0a.349.349,0,0,1,.129-.182h0a.888.888,0,0,1,.237-.056l.057,0,.061,0c.03,0,.1.01.157.022a.859.859,0,0,1,.14.034l.035.025.006.023v1.7l-.005.032-.022.011h0a1.147,1.147,0,0,1-.139.023c-.065.008-.133.014-.168.017l-.115.008v.4h2.537l.01-.113.077-.929h-.373l-.029.083a2.2,2.2,0,0,1-.115.247,1.085,1.085,0,0,1-.158.236l0,0,0,0a.3.3,0,0,1-.146.04c-.088.01-.205.01-.331.01a.6.6,0,0,1-.264-.029l-.014-.027a.523.523,0,0,1-.011-.133v-.577h.123c.171,0,.192.039.224.068a.538.538,0,0,1,.045.112.683.683,0,0,1,.03.15l.005.118h.4V72.235a.5.5,0,0,1,.026.056l.026.087h.36v-.866h-3.708v.4l.112.01a1.506,1.506,0,0,1,.272.047l.077.031a.8.8,0,0,1-.073.226c-.1.212-.245.559-.423.955-.235-.614-.411-1.081-.464-1.219a1.255,1.255,0,0,1,.268-.04Zm2.581.01h.265a2.917,2.917,0,0,1,.318.02h0a.459.459,0,0,1,.148.136.934.934,0,0,1,.069.1h-.364l-.011.111a.854.854,0,0,1-.031.155l-.025.067-.01.02,0,0h0l-.056.038a.453.453,0,0,1-.174.026h-.123Z"/><path class="c" d="M290.239,73.751l-.026.014c-.012,0-.068.014-.124.022s-.124.016-.158.018l-.115.007v.4h1.575v-.4l-.115-.007c-.034,0-.1-.009-.157-.018s-.117-.02-.119-.021h-.006l-.02-.01-.005-.033v-.637h.048a.5.5,0,0,1,.44.357h0a3.464,3.464,0,0,1,.2.672l.021.1H292.8V73.8h-.123a1.122,1.122,0,0,1-.21-.021h0a.178.178,0,0,1-.077-.031.231.231,0,0,1-.058-.106h0c-.025-.073-.089-.224-.149-.365h0a.823.823,0,0,0-.41-.417,1.265,1.265,0,0,0,.209-.118.663.663,0,0,0,.3-.534.624.624,0,0,0-.322-.538,1.2,1.2,0,0,0-.611-.159h-1.527v.4l.115.007a1.959,1.959,0,0,1,.286.051l.02.01.006.038v1.7Zm.73-1.82h.159a.418.418,0,0,1,.258.064c.052.042.1.11.1.276a.353.353,0,0,1-.125.3.521.521,0,0,1-.316.088h-.073Z"/><path class="c" d="M293.956,71.921l.117-.005v-.4h-1.625v.4l.115.007a.912.912,0,0,1,.248.052.481.481,0,0,1,.164.177c.155.251.32.525.484.829h0a.564.564,0,0,1,.09.2v.539l-.006.034-.025.015c-.051.012-.3.036-.362.04l-.115.007v.4h1.741v-.4l-.116-.007c-.031,0-.121-.014-.2-.027l-.109-.02-.037-.008-.008,0-.033-.021,0-.025v-.353a.752.752,0,0,1,.066-.323,5.6,5.6,0,0,1,.6-.91c.04-.045.065-.072.083-.089l.076-.048h.005l.179-.044.046.008a.441.441,0,0,1,.1.03h0c.066.04.057.037.075.083v0h0c.106.316.393,1.188.69,2.094l.028.085h.41l.578-1.486c.132.389.289.859.464,1.4l.027.085h.407l.03-.081c.261-.718.593-1.579.763-2v0h0c.038-.1.071-.144.124-.169h.006a.84.84,0,0,1,.241-.061l.086-.006.079.006a1.975,1.975,0,0,1,.282.06l.031.044v1.7l-.029.043a1.247,1.247,0,0,1-.125.02c-.06.007-.125.013-.159.016l-.115.008v.4H300.9v-.393l-.108-.013c-.035,0-.1-.016-.16-.027l-.081-.017-.028-.007-.009,0h-.007l-.03-.039v-.663h.916v.677l-.007.033-.017.011h0l-.01,0a2.639,2.639,0,0,1-.271.032l-.116.007v.4h1.576v-.4l-.114-.008c-.025,0-.092-.011-.152-.023l-.083-.017-.029-.007-.008,0h0l-.039-.042v-1.7l0-.03.027-.015a1.85,1.85,0,0,1,.281-.044l.116-.007v-.4h-1.576v.4l.116.007a1.375,1.375,0,0,1,.272.056l.036.048v.591h-.917v-.607l.005-.033.02-.01h0a1.745,1.745,0,0,1,.278-.045l.115-.007v-.4h-6.813v.4l.113.01a1.434,1.434,0,0,1,.252.041l.03.012-.017.033c-.069.121-.209.337-.386.608-.115-.19-.218-.361-.291-.485-.043-.073-.076-.131-.1-.176.027-.006.058-.012.089-.016C293.846,71.928,293.915,71.922,293.956,71.921Zm3.979,0,.1,0,.062,0a1.156,1.156,0,0,1,.265.047l.076.033a1.437,1.437,0,0,1-.063.244c-.066.212-.168.485-.308.847-.2-.581-.338-.989-.38-1.118v-.009A.966.966,0,0,1,297.935,71.916Zm-1.639.019a.823.823,0,0,1,.149-.019l.1,0,.056,0a.79.79,0,0,1,.13.023.486.486,0,0,1,.1.033h0a.239.239,0,0,1,.119.223l-.353.9c-.189-.579-.321-.989-.368-1.129l0-.014A.514.514,0,0,1,296.3,71.935Z"/><path class="c" d="M303.186,73.753l-.022.011h0a1.117,1.117,0,0,1-.139.023c-.065.008-.133.014-.168.017l-.115.008v.4h2.537l.01-.113.077-.929h-.373l-.029.083a2.13,2.13,0,0,1-.115.247,1.069,1.069,0,0,1-.158.236l0,0,0,0a.3.3,0,0,1-.146.04c-.089.01-.206.01-.332.01a.6.6,0,0,1-.264-.029l-.014-.027a.568.568,0,0,1-.011-.133v-.577h.124c.171,0,.192.039.224.068a.536.536,0,0,1,.045.112.658.658,0,0,1,.03.15l.005.118h.4V72.235a.5.5,0,0,1,.026.056l.026.087h.36v-.866h-2.416v.4l.115.008c.03,0,.1.01.157.022a.88.88,0,0,1,.141.034l.035.025.005.023v1.7Zm.73-1.827h.265a2.917,2.917,0,0,1,.318.02h0a.458.458,0,0,1,.148.136.934.934,0,0,1,.069.1h-.364l-.011.111a.851.851,0,0,1-.031.155l-.024.067-.011.02,0,0h0l-.056.038a.452.452,0,0,1-.173.026h-.124Z"/><path class="c" d="M305.934,73.751l-.025.014c-.012,0-.069.014-.125.022s-.123.016-.157.018l-.116.007v.4h1.575v-.4l-.115-.007c-.034,0-.1-.009-.157-.018s-.117-.02-.119-.021h-.006l-.02-.01-.005-.033v-.637h.048a.5.5,0,0,1,.44.357h0a3.462,3.462,0,0,1,.2.672l.021.1h3.615L311,74.1l.077-.929H310.7l-.029.083a2.12,2.12,0,0,1-.115.247,1.054,1.054,0,0,1-.158.236l0,0,0,0a.3.3,0,0,1-.146.04c-.089.01-.206.01-.331.01a.6.6,0,0,1-.264-.029l-.014-.027a.569.569,0,0,1-.011-.133v-.577h.124c.171,0,.192.039.224.068a.553.553,0,0,1,.046.112.709.709,0,0,1,.03.15l0,.118h.4V72.235a.44.44,0,0,1,.026.056l.026.087h.36v-.866h-2.416v.4l.115.008c.029,0,.095.01.156.022a.88.88,0,0,1,.141.034L308.9,72l.006.023v1.7l-.006.032-.022.011h0a1.151,1.151,0,0,1-.139.023c-.065.008-.133.014-.168.017l-.074.005V73.8h-.123a1.117,1.117,0,0,1-.21-.021h0a.179.179,0,0,1-.077-.031.236.236,0,0,1-.058-.106h0c-.025-.073-.089-.224-.149-.365h0a.824.824,0,0,0-.41-.417,1.266,1.266,0,0,0,.209-.118.663.663,0,0,0,.3-.534.624.624,0,0,0-.322-.538,1.2,1.2,0,0,0-.611-.159h-1.527v.4l.116.007a1.964,1.964,0,0,1,.286.051l.02.01.006.038v1.7Zm3.7-1.825h.265a2.917,2.917,0,0,1,.318.02h0a.459.459,0,0,1,.148.136.934.934,0,0,1,.069.1h-.364l-.011.111a.934.934,0,0,1-.031.155l-.025.067-.011.02,0,0h0l-.056.038a.452.452,0,0,1-.173.026h-.124Zm-2.968.005h.159a.418.418,0,0,1,.258.064c.052.042.1.11.1.276a.351.351,0,0,1-.125.3.521.521,0,0,1-.316.088h-.073Z"/><path class="c" d="M277.535,39.119h6.345v1.545h-1.7a.645.645,0,0,0-.644.644v.622a.645.645,0,0,0,.644.644h5.8a.645.645,0,0,0,.645-.644v-.622a.646.646,0,0,0-.645-.644h-1.7V39.119h6.346a1.308,1.308,0,0,0,1.307-1.307v-9.35a1.308,1.308,0,0,0-1.307-1.307h-15.1a1.308,1.308,0,0,0-1.307,1.307v9.35A1.308,1.308,0,0,0,277.535,39.119Zm15.6-1.307a.5.5,0,0,1-.5.5h-15.1a.5.5,0,0,1-.5-.5v-9.35a.5.5,0,0,1,.5-.5h15.1a.5.5,0,0,1,.5.5Zm-8.442,3.664V39.119h.789v2.357h2.341v.288h-5.471v-.288Z"/><path class="c" d="M292.036,28.475h-13.9a.583.583,0,0,0-.582.582v8.16a.583.583,0,0,0,.582.583h13.9a.583.583,0,0,0,.582-.583v-8.16A.583.583,0,0,0,292.036,28.475Zm0,8.8h-13.9l-.053-.054v-8.16l.053-.053h13.9l.053.053v8.16Z"/><path class="c" d="M286.213,30.144h0q-.144-.053-.294-.093t-.294-.064a3.246,3.246,0,0,0-.534-.047,3.3,3.3,0,0,0-.543.048c-.1.017-.2.039-.294.064a3.083,3.083,0,0,0-.294.094,3.2,3.2,0,0,0,0,5.985q.144.053.294.094c.1.026.194.047.294.064a3.248,3.248,0,0,0,.543.049,3.066,3.066,0,0,0,.534-.052c.08-.014.165-.027.251-.049l.007,0,.049-.02h0a.316.316,0,0,0,.194-.287l-.013-.073h0a.256.256,0,0,0-.007-.032v0h0a.284.284,0,0,0-.178-.209.363.363,0,0,0-.132-.025l-.079.009h0c-.043.012-.088.021-.134.03a2.671,2.671,0,0,1-.491.036,2.509,2.509,0,0,1-.5-.05,2.383,2.383,0,0,1-.269-.071,2.433,2.433,0,0,1-.269-.106,2.528,2.528,0,0,1,.269-4.7,2.582,2.582,0,0,1,.269-.071,2.484,2.484,0,0,1,.987,0,2.581,2.581,0,0,1,.269.07,2.427,2.427,0,0,1,.269.106,2.532,2.532,0,0,1,1.49,2.293,2.365,2.365,0,0,1-.274,1.143l0,.006,0,.007a.858.858,0,0,1-.145.2.613.613,0,0,1-.272.179h-.049a.215.215,0,0,1-.053-.007l-.036-.106.026-.142h-.034V33.133a1.81,1.81,0,0,0-.509-1.265,1.691,1.691,0,0,0-.3-.247,1.627,1.627,0,0,0-.306-.151,1.58,1.58,0,0,0-.556-.1,1.6,1.6,0,0,0-.565.1,1.666,1.666,0,0,0-.305.151,1.725,1.725,0,0,0-.3.244,1.8,1.8,0,0,0-.519,1.265,1.825,1.825,0,0,0,.518,1.277,1.721,1.721,0,0,0,.3.246,1.645,1.645,0,0,0,.305.153,1.6,1.6,0,0,0,.566.105,1.564,1.564,0,0,0,.557-.1,1.6,1.6,0,0,0,.306-.156,1.737,1.737,0,0,0,.145-.12v.027a.882.882,0,0,0,.161.489l0,0,0,0a.809.809,0,0,0,.809.265,1.4,1.4,0,0,0,.64-.415,1.875,1.875,0,0,0,.162-.206l.044-.067.01-.016.008-.008.009-.017a3.226,3.226,0,0,0-1.734-4.45Zm-.163,3.276a1.1,1.1,0,0,1-.253.475,1.037,1.037,0,0,1-.252.193.891.891,0,0,1-.915,0,.993.993,0,0,1-.252-.2,1.1,1.1,0,0,1-.254-.514,1.18,1.18,0,0,1-.024-.236,1.162,1.162,0,0,1,.024-.234,1.126,1.126,0,0,1,.254-.518,1.012,1.012,0,0,1,.252-.2.868.868,0,0,1,.912,0,1.024,1.024,0,0,1,.253.2,1.12,1.12,0,0,1,.254.479,1.024,1.024,0,0,1,0,.57Z"/></g></g></svg>