<svg xmlns="http://www.w3.org/2000/svg" width="89" height="58" viewBox="0 0 89 58"><defs><style>.a{fill:#877d5c;}.b{fill:#d6d5d6;}.c{fill:#999591;}</style></defs><g transform="translate(-1034 -2776)"><path class="a" d="M35.128,167.6a.342.342,0,0,0,.341.342H94.356a.342.342,0,0,0,0-.684H35.47A.341.341,0,0,0,35.128,167.6Z" transform="translate(1013.438 2657.381)"/><path class="b" d="M37.083,173.513a1.033,1.033,0,0,1-.8-.317,2.179,2.179,0,0,1-.427-.809l-.02-.061h-.4l.054,1.606h.352l.185-.228a1.947,1.947,0,0,0,1.02.276,1.6,1.6,0,0,0,1.06-.372,1.234,1.234,0,0,0,.429-.937,1.1,1.1,0,0,0-.221-.723,1.586,1.586,0,0,0-.654-.436h0c-.267-.108-.558-.163-.858-.287a.89.89,0,0,1-.366-.237.5.5,0,0,1-.1-.333.441.441,0,0,1,.177-.367.521.521,0,0,1,.282-.109,1.029,1.029,0,0,1,.8.3,1.842,1.842,0,0,1,.378.759L38,171.3h.407l-.063-1.543H38l-.184.22a1.652,1.652,0,0,0-.855-.26,1.531,1.531,0,0,0-.967.327,1.093,1.093,0,0,0-.418.855,1.28,1.28,0,0,0,.184.715,1.2,1.2,0,0,0,.561.443c.344.147.562.18.887.3h0a1.049,1.049,0,0,1,.423.238.43.43,0,0,1,.113.314.6.6,0,0,1-.153.441A.691.691,0,0,1,37.083,173.513Z" transform="translate(1013.438 2657.381)"/><path class="b" d="M36.317,172.06h0Z" transform="translate(1013.438 2657.381)"/><path class="b" d="M44.182,170.383a.116.116,0,0,1,.075-.057,3.936,3.936,0,0,1,.535-.076l.084-.005v-.429H43.027l-.007.082a1.811,1.811,0,0,1-.128.45h0l-.878,2.133-1.077-2.666H38.95v.431l.086,0a2.593,2.593,0,0,1,.344.044,1.013,1.013,0,0,1,.3.093h0a.41.41,0,0,1,.134.363v1.873a2.046,2.046,0,0,1-.043.476.334.334,0,0,1-.116.206.994.994,0,0,1-.281.091c-.118.025-.235.043-.3.056l-.072.014v.411h2.2v-.429l-.084-.006a2.45,2.45,0,0,1-.324-.065c-.068-.017-.135-.037-.19-.056a.522.522,0,0,1-.107-.046c-.083-.055-.165-.28-.162-.676v-1.923l.94,2.307h0a6.364,6.364,0,0,1,.282.753l.017.068h.375l1.282-2.956v2.341c0,.09-.026.13-.129.18h0a1.314,1.314,0,0,1-.249.044c-.116.014-.239.024-.3.027l-.084.005v.429h2.389v-.429l-.084-.005c-.057,0-.172-.019-.277-.037a1.667,1.667,0,0,1-.223-.05.169.169,0,0,1-.107-.165V170.5A.243.243,0,0,1,44.182,170.383Z" transform="translate(1013.438 2657.381)"/><path class="b" d="M47.412,173.442l-.083.006v.429h2.31v-.423l-.077-.011a2,2,0,0,1-.442-.1h0a.343.343,0,0,1-.178-.193c-.207-.52-.787-1.913-1.375-3.331l-.023-.055h-.477l-.023.055c-.437,1.052-.914,2.215-1.334,3.162h0a.769.769,0,0,1-.279.363.992.992,0,0,1-.207.062,1.861,1.861,0,0,1-.248.039l-.084.005v.429h2.055v-.425l-.08-.009a3.085,3.085,0,0,1-.43-.076.737.737,0,0,1-.18-.069l-.038-.031,0-.006a.945.945,0,0,1,.059-.274c.05-.149.082-.227.159-.425h1.262l.286.69a.251.251,0,0,1,.017.068.619.619,0,0,1-.228.077A3.067,3.067,0,0,1,47.412,173.442Zm-.791-1.347.432-1.067.438,1.067Z" transform="translate(1013.438 2657.381)"/><path class="b" d="M50.4,173.308a.171.171,0,0,1-.1.066,3.721,3.721,0,0,1-.471.068l-.084.005v.429h2.278v-.429l-.084-.005c-.059,0-.161-.015-.256-.029a1.805,1.805,0,0,1-.206-.038h0a.146.146,0,0,1-.093-.061.2.2,0,0,1-.024-.107v-1.113h.18a.89.89,0,0,1,.792.63h0a5.621,5.621,0,0,1,.329,1.084l.015.071h1.577v-.435h-.09a1.872,1.872,0,0,1-.358-.037h0a.377.377,0,0,1-.165-.072.467.467,0,0,1-.121-.213h0c-.035-.1-.137-.348-.233-.572h0a1.308,1.308,0,0,0-.8-.7,2.058,2.058,0,0,0,.518-.269.944.944,0,0,0,.427-.761.879.879,0,0,0-.459-.761,1.787,1.787,0,0,0-.91-.238H49.746v.429l.084.005a3.092,3.092,0,0,1,.474.085h0a.144.144,0,0,1,.093.062.22.22,0,0,1,.024.115V173.2A.192.192,0,0,1,50.4,173.308Zm.958-3.042h.355a.759.759,0,0,1,.471.123.609.609,0,0,1,.194.52.661.661,0,0,1-.237.562.917.917,0,0,1-.563.16h-.22Z" transform="translate(1013.438 2657.381)"/><path class="b" d="M56.76,170.259a3.135,3.135,0,0,1,.394.023.294.294,0,0,1,.144.091,2.242,2.242,0,0,1,.465.849l.019.065h.38v-1.471h-3.9v1.471h.37l.02-.063a2.831,2.831,0,0,1,.288-.609,1.4,1.4,0,0,1,.186-.24.294.294,0,0,1,.143-.092,3.443,3.443,0,0,1,.4-.023h.069V173.2a.168.168,0,0,1-.123.178.786.786,0,0,1-.091.016c-.148.021-.405.045-.5.051l-.084.005v.429h2.532v-.429l-.083-.006c-.051,0-.19-.023-.318-.044l-.177-.032c-.049-.01-.09-.02-.092-.021a.169.169,0,0,1-.125-.171v-2.914Z" transform="translate(1013.438 2657.381)"/><path class="b" d="M62.15,173.513a1.032,1.032,0,0,1-.8-.317,2.173,2.173,0,0,1-.427-.809l-.021-.061h-.4l.053,1.606h.352l.186-.228a1.945,1.945,0,0,0,1.02.276,1.6,1.6,0,0,0,1.059-.372,1.231,1.231,0,0,0,.429-.937,1.1,1.1,0,0,0-.22-.723,1.586,1.586,0,0,0-.654-.436h0c-.267-.108-.558-.163-.858-.287a.885.885,0,0,1-.365-.237.5.5,0,0,1-.1-.333.441.441,0,0,1,.177-.367.52.52,0,0,1,.282-.109,1.028,1.028,0,0,1,.8.3,1.842,1.842,0,0,1,.379.759l.019.065h.407l-.063-1.543h-.35l-.184.22a1.653,1.653,0,0,0-.855-.26,1.53,1.53,0,0,0-.967.327,1.093,1.093,0,0,0-.419.855,1.287,1.287,0,0,0,.184.715,1.2,1.2,0,0,0,.562.443c.344.147.562.18.887.3h0a1.044,1.044,0,0,1,.423.238.432.432,0,0,1,.113.314.6.6,0,0,1-.153.441A.691.691,0,0,1,62.15,173.513Z" transform="translate(1013.438 2657.381)"/><path class="b" d="M61.384,172.06h0Z" transform="translate(1013.438 2657.381)"/><path class="b" d="M64.763,173.382a1.874,1.874,0,0,1-.216.035c-.1.012-.2.022-.257.025l-.084.006v.429h2.278v-.424l-.078-.01c-.06-.007-.165-.025-.26-.044s-.188-.04-.2-.047h-.005a.153.153,0,0,1-.12-.161v-1.153h1.657v1.177c0,.089-.027.14-.112.17h0a1.68,1.68,0,0,1-.208.034c-.1.012-.2.022-.262.025l-.084.005v.429h2.278v-.429L69,173.442c-.048,0-.153-.019-.251-.037a1.5,1.5,0,0,1-.212-.051h0c-.094-.041-.124-.088-.127-.163V170.5a.191.191,0,0,1,.023-.1.172.172,0,0,1,.1-.067,2.871,2.871,0,0,1,.47-.075l.084-.005v-.429H66.807v.429l.084.005a2.2,2.2,0,0,1,.463.1.182.182,0,0,1,.12.172v1.042H65.818V170.5a.2.2,0,0,1,.024-.107.147.147,0,0,1,.093-.061h0a2.92,2.92,0,0,1,.464-.076l.084-.005v-.429H64.207v.429l.084.005a3.2,3.2,0,0,1,.471.1.172.172,0,0,1,.121.17v2.693A.162.162,0,0,1,64.763,173.382Z" transform="translate(1013.438 2657.381)"/><path class="b" d="M73.317,170.326h0a2.189,2.189,0,0,0-3.04,0h0a2.064,2.064,0,0,0-.615,1.562,1.982,1.982,0,0,0,.674,1.525h0a2.06,2.06,0,0,0,1.426.564,2.133,2.133,0,0,0,1.5-.573h0a2.2,2.2,0,0,0,.057-3.08h0Zm-.715,2.719a.944.944,0,0,1-1.628-.008,2.322,2.322,0,0,1-.267-1.178A2.266,2.266,0,0,1,71,170.612a.9.9,0,0,1,.784-.425.908.908,0,0,1,.841.5,2.4,2.4,0,0,1,.246,1.147A2.359,2.359,0,0,1,72.6,173.044Z" transform="translate(1013.438 2657.381)"/><path class="b" d="M76.453,172.291a1.856,1.856,0,0,0,1.111-.368,1.241,1.241,0,0,0,.52-.989,1.015,1.015,0,0,0-.41-.815,1.578,1.578,0,0,0-.967-.3H74.471v.429l.084.005a3.269,3.269,0,0,1,.5.085.144.144,0,0,1,.092.064.223.223,0,0,1,.025.112V173.2a.188.188,0,0,1-.024.1.171.171,0,0,1-.1.066,3.72,3.72,0,0,1-.471.068l-.084.005v.429h2.389v-.431l-.085,0c-.08,0-.21-.016-.328-.029a2.233,2.233,0,0,1-.244-.038h0a.146.146,0,0,1-.093-.061.2.2,0,0,1-.024-.107v-.914Zm-.347-2.024h.268a.581.581,0,0,1,.529.253,1.018,1.018,0,0,1,.136.549.843.843,0,0,1-.14.5.721.721,0,0,1-.628.255h-.165Z" transform="translate(1013.438 2657.381)"/><path class="b" d="M80.523,172.291a1.856,1.856,0,0,0,1.111-.368,1.241,1.241,0,0,0,.52-.989,1.015,1.015,0,0,0-.41-.815,1.578,1.578,0,0,0-.967-.3H78.541v.429l.084.005a3.269,3.269,0,0,1,.5.085.143.143,0,0,1,.092.064.223.223,0,0,1,.025.112V173.2a.188.188,0,0,1-.024.1.171.171,0,0,1-.1.066,3.72,3.72,0,0,1-.471.068l-.084.005v.429h2.389v-.431l-.085,0c-.08,0-.21-.016-.328-.029a2.234,2.234,0,0,1-.244-.038h0a.145.145,0,0,1-.093-.061.2.2,0,0,1-.024-.107v-.914Zm-.347-2.024h.268a.581.581,0,0,1,.529.253,1.018,1.018,0,0,1,.136.549.843.843,0,0,1-.14.5.721.721,0,0,1-.628.255h-.165Z" transform="translate(1013.438 2657.381)"/><path class="b" d="M83.2,173.382a2.034,2.034,0,0,1-.227.035c-.1.012-.212.021-.269.025l-.084.006v.429h2.333v-.429l-.084-.005a2.728,2.728,0,0,1-.274-.041c-.052-.01-.1-.02-.142-.029l-.071-.019h0c-.1-.044-.122-.079-.127-.163v-2.7a.19.19,0,0,1,.026-.1.134.134,0,0,1,.088-.055h.006a3.353,3.353,0,0,1,.5-.076l.084-.005v-.429H82.62v.429l.084.005a3.461,3.461,0,0,1,.494.1.188.188,0,0,1,.1.065.162.162,0,0,1,.025.1v2.709A.152.152,0,0,1,83.2,173.382Z" transform="translate(1013.438 2657.381)"/><path class="b" d="M86.92,169.816H85.18v.429l.083.006a2.074,2.074,0,0,1,.4.086,1.4,1.4,0,0,1,.33.136.485.485,0,0,1,.146.357v1.785a2.145,2.145,0,0,1-.039.474.329.329,0,0,1-.112.208h0a.59.59,0,0,1-.094.035,2.993,2.993,0,0,1-.478.107l-.084.005v.429h2.254v-.429l-.084-.005a3.087,3.087,0,0,1-.366-.068c-.077-.018-.152-.038-.211-.057a.593.593,0,0,1-.107-.041.378.378,0,0,1-.11-.213,2.043,2.043,0,0,1-.045-.48v-1.632l2.282,2.981h.539v-2.879a2.476,2.476,0,0,1,.03-.452.3.3,0,0,1,.109-.212,1.448,1.448,0,0,1,.269-.083,2.319,2.319,0,0,1,.3-.056l.084-.005v-.429H88.041v.426l.08.009a3.229,3.229,0,0,1,.348.063,1.576,1.576,0,0,1,.342.11h0c.05.024.089.085.113.2a2.487,2.487,0,0,1,.028.457V172.5Z" transform="translate(1013.438 2657.381)"/><path class="b" d="M94.964,172.328l.07-.016v-.4h-2.4v.429l.084.005a3.644,3.644,0,0,1,.656.1.126.126,0,0,1,.091.07.378.378,0,0,1,.02.147v.271a.58.58,0,0,1-.2.4.95.95,0,0,1-1.344-.273,2.072,2.072,0,0,1-.32-1.175,2.269,2.269,0,0,1,.318-1.284.855.855,0,0,1,.713-.412,1.146,1.146,0,0,1,.814.308,2.013,2.013,0,0,1,.493.827l.021.06h.394l-.045-1.622h-.4l-.147.225a1.9,1.9,0,0,0-.91-.264,2.337,2.337,0,0,0-1.656.633,2.158,2.158,0,0,0-.643,1.569,2.087,2.087,0,0,0,.6,1.518,1.844,1.844,0,0,0,1.279.541,3.339,3.339,0,0,0,1.264-.272l.335.344L94.3,174l.072-.015v-1.372a.181.181,0,0,1,.117-.187h0a1.649,1.649,0,0,1,.227-.054C94.813,172.357,94.907,172.341,94.964,172.328Z" transform="translate(1013.438 2657.381)"/><path class="a" d="M94.7,176.276a.342.342,0,0,0-.341-.342H35.47a.342.342,0,0,0,0,.684H94.356A.342.342,0,0,0,94.7,176.276Z" transform="translate(1013.438 2657.381)"/><path class="a" d="M57.841,141.1a7.044,7.044,0,1,0,14.088,0v-8.921a7.051,7.051,0,0,0-6.687-7.041,4.1,4.1,0,0,1,.6-1.586,2.344,2.344,0,0,1,2.059-1.062h0a2.493,2.493,0,0,0,1.991-.821h0a3.574,3.574,0,0,0,.708-2.293,4.577,4.577,0,0,0-.042-.65l-.017-.111-.483.075-.112.017.018.112a4.21,4.21,0,0,1,.033.553,3.013,3.013,0,0,1-.561,1.906,1.923,1.923,0,0,1-1.536.612,2.906,2.906,0,0,0-2.54,1.322,4.919,4.919,0,0,0-.72,1.92,7.055,7.055,0,0,0-6.8,7.048Zm11.328-13.217a6.046,6.046,0,0,1,1.782,4.3v1.276H66.373v-3.193a1.483,1.483,0,0,0-1.187-1.449v-2.7A6.01,6.01,0,0,1,69.169,127.887Zm-4.452,1.507a.841.841,0,0,1,.334,0,.89.89,0,0,1,.72.872v3.539a.81.81,0,0,1-.014.126l.11.018-.11-.017a.918.918,0,0,1-.873.763.887.887,0,0,1-.874-.762.956.956,0,0,1-.013-.128v-3.538a.891.891,0,0,1,.72-.873Zm-5.9,2.789a6.075,6.075,0,0,1,5.767-6.064v2.7a1.523,1.523,0,0,0-1.187,1.446h0v3.192H58.818Zm0,1.878h4.614a1.474,1.474,0,0,0,2.5.8,1.466,1.466,0,0,0,.4-.8h4.613V141.1a6.067,6.067,0,1,1-12.134,0Z" transform="translate(1013.438 2657.381)"/><path class="b" d="M32.977,157.755a15.255,15.255,0,0,0,.672-2.478,13.521,13.521,0,0,0,.23-2.422,8.448,8.448,0,0,0-.377-2.591,5.965,5.965,0,0,0-1.084-2.023,4.876,4.876,0,0,0-1.734-1.32,5.516,5.516,0,0,0-2.328-.472,6.2,6.2,0,0,0-1.816.258,6.559,6.559,0,0,0-1.578.718,6.982,6.982,0,0,0-1.34,1.093,9.512,9.512,0,0,0-1.1,1.386,10.933,10.933,0,0,0-.858,1.6,13.315,13.315,0,0,0-.616,1.723,13.139,13.139,0,0,0-.368,1.763,12.659,12.659,0,0,0-.121,1.723,9.971,9.971,0,0,0,.39,2.864,6.851,6.851,0,0,0,1.118,2.248,5.151,5.151,0,0,0,1.765,1.469,5.07,5.07,0,0,0,2.328.526,5.357,5.357,0,0,0,2.285-.49A6.937,6.937,0,0,0,30.359,162a9.4,9.4,0,0,0,1.517-1.933A13.376,13.376,0,0,0,32.977,157.755ZM31.585,153.8q-.074.7-.23,1.467t-.394,1.542a13.622,13.622,0,0,1-.559,1.507,9.677,9.677,0,0,1-.733,1.362,6.09,6.09,0,0,1-.911,1.109,3.972,3.972,0,0,1-1.1.745,3.089,3.089,0,0,1-1.292.272,3.138,3.138,0,0,1-1.5-.355,3.387,3.387,0,0,1-1.127-.977,4.551,4.551,0,0,1-.711-1.476,6.608,6.608,0,0,1-.247-1.844A8.986,8.986,0,0,1,23,155.237a11.97,11.97,0,0,1,.607-1.963,11.746,11.746,0,0,1,.936-1.835,8.727,8.727,0,0,1,1.2-1.533,5.757,5.757,0,0,1,1.4-1.051,3.293,3.293,0,0,1,1.543-.39,2.607,2.607,0,0,1,1.3.316,2.708,2.708,0,0,1,.928.863,3.99,3.99,0,0,1,.55,1.288,6.61,6.61,0,0,1,.182,1.582A12.449,12.449,0,0,1,31.585,153.8Z" transform="translate(1013.438 2657.381)"/><path class="b" d="M36.391,156.64q.039-.361.083-.643t.082-.548q.039-.265.065-.487a3.172,3.172,0,0,0,.026-.352,1.412,1.412,0,0,0-.182-.765.708.708,0,0,0-.65-.287,1.007,1.007,0,0,0-.741.269,1.359,1.359,0,0,0-.369.669q-.121.513-.251,1.234t-.234,1.621q-.1.9-.173,1.651t-.069,1.326a5.65,5.65,0,0,0,.039.674,1.949,1.949,0,0,0,.156.582.988.988,0,0,0,.334.408.975.975,0,0,0,.572.152.958.958,0,0,0,.5-.13,1.131,1.131,0,0,0,.39-.487l2.272-4.52h.138q-.1.7-.173,1.3a9.848,9.848,0,0,0-.07,1.126,4.918,4.918,0,0,0,.325,2.021q.325.691.8.691a2.959,2.959,0,0,0,.911-.139,8.181,8.181,0,0,0,.841-.347q.277-.122,1.378-.713l.39-.211a3.472,3.472,0,0,0,.658,1,1.206,1.206,0,0,0,.868.406,2.972,2.972,0,0,0,.651-.078,6,6,0,0,0,.714-.211q.366-.133.727-.3c.2-.094.394-.19.584-.286a1.313,1.313,0,0,0,.217.4,1.267,1.267,0,0,0,.5.352,2,2,0,0,0,.759.126,3.414,3.414,0,0,0,1.062-.183,7.586,7.586,0,0,0,1.1-.456,8.337,8.337,0,0,0,.856-.506h0a1.949,1.949,0,0,0,.156.582.987.987,0,0,0,.334.408.976.976,0,0,0,.572.152.959.959,0,0,0,.5-.13,1.127,1.127,0,0,0,.39-.487l2.272-4.52h.139q-.1.7-.173,1.3a9.942,9.942,0,0,0-.069,1.126,4.911,4.911,0,0,0,.325,2.021q.325.691.8.691a2.955,2.955,0,0,0,.91-.139,8.139,8.139,0,0,0,.841-.347q.278-.122,1.379-.713l.287-.155c.053.081.1.168.157.244a2.946,2.946,0,0,0,1.012.81,3.154,3.154,0,0,0,1.417.3,4.418,4.418,0,0,0,1.028-.121,6.11,6.11,0,0,0,.98-.322,7.249,7.249,0,0,0,.9-.461q.429-.26.8-.529a11.555,11.555,0,0,0,1.621-1.441l-1.118-1.139a8.865,8.865,0,0,1-.824.684,9.551,9.551,0,0,1-1.031.667,7.253,7.253,0,0,1-1.123.51,3.292,3.292,0,0,1-1.1.2,1.338,1.338,0,0,1-.309-.034.867.867,0,0,1-.274-.119,1.159,1.159,0,0,1-.257-.238,2.739,2.739,0,0,1-.257-.383,6.037,6.037,0,0,0,1.4-.569,5.192,5.192,0,0,0,1.117-.833,4.732,4.732,0,0,0,.821-1.122,2.54,2.54,0,0,0,.352-1.181,2.223,2.223,0,0,0-.173-.894,1.986,1.986,0,0,0-.482-.681,2.2,2.2,0,0,0-.725-.439,2.547,2.547,0,0,0-.9-.157,2.7,2.7,0,0,0-1.082.211,3.162,3.162,0,0,0-.88.566,3.918,3.918,0,0,0-.686.824,5.489,5.489,0,0,0-.487.982q-.194.515-.375,1.18a4.453,4.453,0,0,0-.181,1.145,4.985,4.985,0,0,0,.065.783l-.1.064a4.35,4.35,0,0,1-.581.348,2.7,2.7,0,0,0-.4.287,1.122,1.122,0,0,1-.364.182.851.851,0,0,1-.295.078q-.286,0-.42-.347a2.489,2.489,0,0,1-.134-.887,6.97,6.97,0,0,1,.039-.7q.039-.382.1-.773t.134-.887q.074-.5.134-.808t.1-.539a2.172,2.172,0,0,0,.039-.321,1.734,1.734,0,0,0-.256-1.008.8.8,0,0,0-.689-.365,1.771,1.771,0,0,0-.789.174,1.57,1.57,0,0,0-.633.643c-.041.069-.1.177-.182.321s-.17.312-.269.5-.2.385-.317.591a5.245,5.245,0,0,0-.316.708,5.333,5.333,0,0,1-.26.613c-.075.143-.13.245-.165.309h-.173a2.035,2.035,0,0,1,.026-.239c.017-.119.039-.3.065-.539s.053-.455.082-.643.057-.371.083-.548.048-.339.065-.487a3.172,3.172,0,0,0,.026-.352,1.408,1.408,0,0,0-.182-.765.708.708,0,0,0-.65-.287,1.008,1.008,0,0,0-.741.269,1.359,1.359,0,0,0-.368.669q-.121.513-.251,1.234t-.234,1.621q-.1.9-.173,1.651c-.01.108-.015.2-.023.3-.168.144-.335.289-.509.426a6.155,6.155,0,0,1-.772.526,1.424,1.424,0,0,1-.694.218.343.343,0,0,1-.355-.23,1.808,1.808,0,0,1-.087-.621,3.622,3.622,0,0,1,.124-.888q.125-.489.207-.984a8.876,8.876,0,0,1,.305-1.2q.224-.7.337-1.149t.2-.8a2.376,2.376,0,0,0,.089-.54.5.5,0,0,0-.128-.361.67.67,0,0,0-.486-.135,2.3,2.3,0,0,0-.439.048,2.2,2.2,0,0,0-.468.15,1.593,1.593,0,0,0-.4.259.711.711,0,0,0-.238.4q-.078.313-.407,1.351-.355,1.274-.473,1.645-.071.187-.321,1.7v.006c-.077.053-.156.111-.232.161q-.24.158-.5.311t-.5.272a3.613,3.613,0,0,1-.462.189,1.277,1.277,0,0,1-.386.07c-.047,0-.1-.034-.148-.1a1.159,1.159,0,0,1-.148-.272,2.388,2.388,0,0,1-.117-.385,2.009,2.009,0,0,1-.048-.442v-.123c.017-.117.04-.237.07-.359s.058-.238.087-.346.059-.209.091-.3a1.91,1.91,0,0,1,.091-.228q.4-.789.874-1.615t.942-1.678q.468-.853.9-1.718t.762-1.726a12.7,12.7,0,0,0,.523-1.713,7.536,7.536,0,0,0,.194-1.674,3.505,3.505,0,0,0-.06-.65,1.764,1.764,0,0,0-.21-.571,1.137,1.137,0,0,0-.411-.406,1.29,1.29,0,0,0-.663-.153,2.1,2.1,0,0,0-1.086.317,4.326,4.326,0,0,0-1.025.871,8.748,8.748,0,0,0-.937,1.3,14.789,14.789,0,0,0-.827,1.606,15.846,15.846,0,0,0-.76,2.282l-.379,1.422s-.083.474-.25,1.424a13.9,13.9,0,0,0-.25,2.277,10.286,10.286,0,0,0,.169,1.9c0,.018.008.035.011.054L42,159.3a4.317,4.317,0,0,1-.581.348,2.71,2.71,0,0,0-.4.287,1.133,1.133,0,0,1-.364.182.854.854,0,0,1-.295.078.451.451,0,0,1-.421-.347,2.489,2.489,0,0,1-.134-.887,6.97,6.97,0,0,1,.039-.7q.039-.382.1-.773t.134-.887q.073-.5.134-.808t.1-.539a2.155,2.155,0,0,0,.039-.321,1.737,1.737,0,0,0-.255-1.008.8.8,0,0,0-.69-.365,1.769,1.769,0,0,0-.789.174,1.571,1.571,0,0,0-.633.643c-.04.069-.1.177-.182.321s-.171.312-.269.5-.2.385-.317.591a5.244,5.244,0,0,0-.317.708,5.426,5.426,0,0,1-.26.613c-.075.143-.13.245-.165.309H36.3a2.069,2.069,0,0,1,.026-.239C36.343,157.06,36.365,156.881,36.391,156.64Zm25.2.916a2.646,2.646,0,0,1,.161-.671q.143-.407.252-.684a1.825,1.825,0,0,1,.287-.493,1.334,1.334,0,0,1,1.084-.489.413.413,0,0,1,.353.246,1.242,1.242,0,0,1,.143.629,1.28,1.28,0,0,1-.3.688,3.288,3.288,0,0,1-.622.663,3.079,3.079,0,0,1-.687.4,1.763,1.763,0,0,1-.683.157C61.574,157.882,61.58,157.732,61.592,157.556ZM44.6,153.188l.233-1.178.382-1.27a13.364,13.364,0,0,1,.657-1.833,4.455,4.455,0,0,1,.55-.894.735.735,0,0,1,.514-.33c.043,0,.07.06.078.18s.013.264.013.434a8.752,8.752,0,0,1-.366,1.722q-.287.925-.678,1.854t-.831,1.806q-.44.877-.831,1.578A14.605,14.605,0,0,1,44.6,153.188Z" transform="translate(1013.438 2657.381)"/><path class="b" d="M51.264,149.993a1.394,1.394,0,0,0-.468-.215,2.262,2.262,0,0,0-.572-.07,1.9,1.9,0,0,0-.811.153,1.562,1.562,0,0,0-.52.377,1.485,1.485,0,0,0-.368.935,1.309,1.309,0,0,0,.364.97,1.536,1.536,0,0,0,1.127.364,1.916,1.916,0,0,0,.759-.136,1.558,1.558,0,0,0,.524-.356,1.351,1.351,0,0,0,.3-.5,1.79,1.79,0,0,0,.1-.579,1.252,1.252,0,0,0-.117-.561A1.017,1.017,0,0,0,51.264,149.993Z" transform="translate(1013.438 2657.381)"/><path class="b" d="M74.5,158.022q.038-.2.071-.361a1.583,1.583,0,0,0,.033-.313.576.576,0,0,0-.187-.474.711.711,0,0,0-.464-.152,1.4,1.4,0,0,0-.581.143,1.859,1.859,0,0,0-.577.426,2.367,2.367,0,0,0-.442.7,2.5,2.5,0,0,0-.178.978,3.593,3.593,0,0,0,.481,1.882,4.173,4.173,0,0,0,1.279,1.339,5.887,5.887,0,0,0,1.821.8,8.35,8.35,0,0,0,2.107.265,8.807,8.807,0,0,0,1.534-.135,8.185,8.185,0,0,0,1.457-.395,6.331,6.331,0,0,0,1.292-.66,4.876,4.876,0,0,0,1.036-.921,4.088,4.088,0,0,0,.69-1.178,3.987,3.987,0,0,0,.251-1.438A3.378,3.378,0,0,0,83.791,157a4.356,4.356,0,0,0-.884-1.2,7.029,7.029,0,0,0-1.249-.951q-.7-.422-1.431-.791t-1.431-.716a9.714,9.714,0,0,1-1.248-.734,3.8,3.8,0,0,1-.884-.838,1.679,1.679,0,0,1-.334-1.025,1.444,1.444,0,0,1,.187-.686,1.907,1.907,0,0,1,.572-.63,3.232,3.232,0,0,1,.962-.46,4.624,4.624,0,0,1,1.357-.178,6.906,6.906,0,0,1,1.3.113,3.548,3.548,0,0,1,1.013.338,1.893,1.893,0,0,1,.661.56,1.3,1.3,0,0,1,.239.776,1.927,1.927,0,0,1-.114.62,3.584,3.584,0,0,1-.35.716,3.4,3.4,0,0,0-.359.707,1.71,1.71,0,0,0-.1.534.588.588,0,0,0,.165.455.6.6,0,0,0,.425.152,1.512,1.512,0,0,0,.776-.265,2.661,2.661,0,0,0,.794-.813,4.535,4.535,0,0,0,.542-1.087,3.277,3.277,0,0,0,.169-1.017,2.9,2.9,0,0,0-.412-1.521,4.033,4.033,0,0,0-1.088-1.182,5.235,5.235,0,0,0-1.539-.765,5.9,5.9,0,0,0-1.765-.269,7.929,7.929,0,0,0-2.476.348,5.639,5.639,0,0,0-1.762.91,3.759,3.759,0,0,0-1.056,1.271,3.228,3.228,0,0,0-.35,1.441,2.875,2.875,0,0,0,.333,1.395,4.164,4.164,0,0,0,.882,1.107,7.7,7.7,0,0,0,1.249.908q.7.412,1.429.786t1.431.738a9.047,9.047,0,0,1,1.253.777,3.885,3.885,0,0,1,.884.9,1.907,1.907,0,0,1,.334,1.1,1.974,1.974,0,0,1-.373,1.186,3.2,3.2,0,0,1-.971.873,4.866,4.866,0,0,1-1.353.538,6.392,6.392,0,0,1-1.508.182,5.423,5.423,0,0,1-1.237-.139,3.437,3.437,0,0,1-1.055-.426,2.27,2.27,0,0,1-.735-.73,1.942,1.942,0,0,1-.277-1.051,3.666,3.666,0,0,1,.033-.513Q74.464,158.218,74.5,158.022Z" transform="translate(1013.438 2657.381)"/><path class="b" d="M89.379,153.883q.4-.821.781-1.695t.68-1.725a15.212,15.212,0,0,0,.481-1.642,6.439,6.439,0,0,0,.182-1.44,4.147,4.147,0,0,0-.069-.791,1.573,1.573,0,0,0-.247-.607,1.175,1.175,0,0,0-.477-.394,1.818,1.818,0,0,0-.767-.14,2.643,2.643,0,0,0-1.6.505,4.551,4.551,0,0,0-1.211,1.362,9.334,9.334,0,0,0-.877,1.985,14.785,14.785,0,0,0-.542,2.375l-.366,2.508q-.184,1.26-.253,2.436t-.082,2.143q-.013.966-.013,1.563,0,.343.026.67a2.414,2.414,0,0,0,.113.584.984.984,0,0,0,.251.412.63.63,0,0,0,.451.155.64.64,0,0,0,.355-.09.9.9,0,0,0,.256-.265,2.86,2.86,0,0,0,.239-.463q.121-.288.312-.675a14.827,14.827,0,0,1,.854-1.518q.472-.735.914-1.324t.794-.976a3.272,3.272,0,0,1,.5-.481l.182.026a1.209,1.209,0,0,0-.117.194q-.09.167-.212.43t-.262.6q-.14.334-.253.685t-.19.7a2.922,2.922,0,0,0-.077.628,3.385,3.385,0,0,0,.115.845,3,3,0,0,0,.346.824,2.011,2.011,0,0,0,.59.621,1.472,1.472,0,0,0,.847.244,2.392,2.392,0,0,0,.654-.1,5.342,5.342,0,0,0,.685-.249,6.865,6.865,0,0,0,.681-.347q.338-.2.628-.388c.145-.1.277-.186.4-.274.028.048.048.1.077.148a2.783,2.783,0,0,0,.889.874,2.433,2.433,0,0,0,1.3.334,2.713,2.713,0,0,0,1-.183,3.322,3.322,0,0,0,.863-.5,3.719,3.719,0,0,0,.7-.739,4.925,4.925,0,0,0,.52-.912,5.338,5.338,0,0,0,.325-1.008,4.88,4.88,0,0,0,.113-1.034,5.819,5.819,0,0,0-.126-1.265,4.673,4.673,0,0,0-.377-1.065l.069-.1q.312.209.746.517a7.12,7.12,0,0,1,.88.752c.28.278.545.531.8.763-.071.338-.136.679-.187,1.027q-.1.69-.2,1.346-.755,1.2-1.344,2.324-.252.484-.49,1t-.429,1.013a8.127,8.127,0,0,0-.3.95,3.407,3.407,0,0,0-.113.814,8.044,8.044,0,0,0,.082,1.177,3.477,3.477,0,0,0,.277.971,1.706,1.706,0,0,0,.525.661,1.343,1.343,0,0,0,.823.245,1.882,1.882,0,0,0,1.224-.5A4.355,4.355,0,0,0,102.778,167a9.241,9.241,0,0,0,.728-2.212,14.052,14.052,0,0,0,.272-2.885v-.157q.717.113,1.136.192t.644.127l.315.065a.758.758,0,0,0,.151.019,3.57,3.57,0,0,0,1.019-.153,5.044,5.044,0,0,0,1.847-1,4.668,4.668,0,0,0,.672-.7l-.1-1.927a6.89,6.89,0,0,1-.854.82,5.53,5.53,0,0,1-1.058.669,6.176,6.176,0,0,1-1.3.454,6.989,6.989,0,0,1-1.591.168l-.052-.177a6.614,6.614,0,0,0,1.346-.762,5.879,5.879,0,0,0,.978-.913,4.078,4.078,0,0,0,.671-1.153,3.535,3.535,0,0,0,.173-1.237,3.479,3.479,0,0,0-.2-1.256,2.231,2.231,0,0,0-.546-.836,2.08,2.08,0,0,0-.805-.468,3.271,3.271,0,0,0-.987-.144,2.607,2.607,0,0,0-2.129.958,4.968,4.968,0,0,0-.694,1.169c-.087.194-.157.383-.226.57-.157-.194-.32-.391-.488-.593a5.742,5.742,0,0,0-1.171-1.082,5.851,5.851,0,0,0-1.348-.687,4.566,4.566,0,0,0-1.543-.256,4.133,4.133,0,0,0-1.734.352,3.8,3.8,0,0,0-1.3.965,4.307,4.307,0,0,0-.819,1.443,6.082,6.082,0,0,0-.286,1.977,5.9,5.9,0,0,0,.05.749l-.023.023q-.2.194-.425.373a4.242,4.242,0,0,1-.46.32,2.87,2.87,0,0,1-.468.228,1.266,1.266,0,0,1-.442.088q-.165,0-.269-.212a1.3,1.3,0,0,1-.1-.567,4.733,4.733,0,0,1,.16-1.24,6.363,6.363,0,0,1,.62-1.408,6.8,6.8,0,0,0,.624-1.387,4.222,4.222,0,0,0,.164-1.174,1.312,1.312,0,0,0-.078-.492.806.806,0,0,0-.2-.3.65.65,0,0,0-.247-.146.808.808,0,0,0-.234-.04,1.617,1.617,0,0,0-.889.317,9.365,9.365,0,0,0-1.214,1.041,14.543,14.543,0,0,0-1.184,1.276q-.442.554-.8,1.036l-.173-.123q.295-.553.68-1.282T89.379,153.883Zm12.3,8.5-.023.54q-.014.324-.041.791-.019.267-.023.605t-.02.691q-.015.354-.041.691a4.183,4.183,0,0,1-.087.606,1.491,1.491,0,0,1-.156.428.279.279,0,0,1-.243.16.364.364,0,0,1-.277-.121.987.987,0,0,1-.182-.276,1.414,1.414,0,0,1-.1-.311,1.321,1.321,0,0,1-.03-.225,2.263,2.263,0,0,1,.048-.369q.047-.256.13-.607t.195-.759q.113-.408.251-.816t.295-.785a5.716,5.716,0,0,1,.321-.664C101.692,162.078,101.686,162.218,101.68,162.38Zm1.912-3.75a5.546,5.546,0,0,1,.193-1.094q.16-.594.277-1a2.926,2.926,0,0,1,.3-.7,1.536,1.536,0,0,1,.42-.467.952.952,0,0,1,.564-.172.611.611,0,0,1,.445.156.853.853,0,0,1,.225.374,1.383,1.383,0,0,1,.052.467,2.508,2.508,0,0,1-.057.433,5.97,5.97,0,0,1-.364.993q-.425.758-.538.774a4.677,4.677,0,0,1-.642.665,4.589,4.589,0,0,1-.9.564Q103.561,159.131,103.592,158.631Zm-8.016-1.222a4.738,4.738,0,0,1,.381-1.047,2.851,2.851,0,0,1,.564-.778.974.974,0,0,1,.676-.3.731.731,0,0,1,.46.148,1.1,1.1,0,0,1,.312.4,2.285,2.285,0,0,1,.182.6,4.282,4.282,0,0,1,.061.743,6.146,6.146,0,0,1-.126,1.152,4.95,4.95,0,0,1-.334,1.1,2.832,2.832,0,0,1-.486.756.79.79,0,0,1-.572.3,1.085,1.085,0,0,1-.971-.526,1.761,1.761,0,0,1-.217-.561,3.232,3.232,0,0,1-.07-.687A5.521,5.521,0,0,1,95.576,157.409Zm-7.623-3.9q-.269.63-.547,1.273t-.513,1.191q.1-.989.291-2.02.063-.438.135-.932l.145-1.005q.074-.511.2-1.024t.273-.99a18.381,18.381,0,0,1,1.041-2.146q.442-.739.668-.739.185,0,.185.661a6.175,6.175,0,0,1-.23,1.347,20.256,20.256,0,0,1-.742,2.242q-.157.391-.4.952T87.954,153.51Z" transform="translate(1013.438 2657.381)"/><path class="b" d="M42.974,142.118a.341.341,0,0,0,.341.342H52.44a.342.342,0,0,0,0-.684H43.315A.341.341,0,0,0,42.974,142.118Z" transform="translate(1013.438 2657.381)"/><path class="b" d="M76.372,142.118a.342.342,0,0,0,.341.342h9.125a.342.342,0,0,0,0-.684H76.713A.341.341,0,0,0,76.372,142.118Z" transform="translate(1013.438 2657.381)"/><path class="b" d="M46.242,135.877l.016-.1H46l-.021.015a1.2,1.2,0,0,1-.7.233,1.446,1.446,0,0,1-.585-.129l-.071-.031-.146.271.053.044a.958.958,0,0,0,.894.385v2.413a.2.2,0,0,1-.127.2,2.541,2.541,0,0,1-.441.048l-.08,0v.36h2v-.36l-.08,0a1.744,1.744,0,0,1-.412-.069.221.221,0,0,1-.12-.206v-2.2A6.157,6.157,0,0,1,46.242,135.877Z" transform="translate(1013.438 2657.381)"/><path class="b" d="M49.339,139.781c-.224,0-.279-.062-.3-.109a.957.957,0,0,1-.047-.16c-.042-.177-.1-.421-.372-.421s-.4.15-.4.445a.8.8,0,0,0,.879.669,2.371,2.371,0,0,0,2.139-2.605c0-1.695-1.083-1.826-1.415-1.826a1.4,1.4,0,0,0-1.409,1.448,1.192,1.192,0,0,0,1.15,1.307,1.238,1.238,0,0,0,.893-.356C50.337,139,49.961,139.781,49.339,139.781Zm.482-1.741c-.3,0-.616-.111-.616-.931,0-.637.207-.96.616-.96.331,0,.687.317.687,1.013S50.077,138.039,49.821,138.039Z" transform="translate(1013.438 2657.381)"/><path class="b" d="M78.93,139.781c-.224,0-.279-.062-.3-.109a.917.917,0,0,1-.047-.16c-.042-.177-.1-.421-.372-.421s-.4.15-.4.445a.8.8,0,0,0,.879.669,2.371,2.371,0,0,0,2.139-2.605c0-1.695-1.084-1.826-1.415-1.826A1.4,1.4,0,0,0,78,137.221a1.191,1.191,0,0,0,1.15,1.307,1.238,1.238,0,0,0,.893-.356C79.928,139,79.553,139.781,78.93,139.781Zm.483-1.741c-.3,0-.616-.111-.616-.931,0-.637.207-.96.616-.96.331,0,.687.317.687,1.013S79.668,138.039,79.413,138.039Z" transform="translate(1013.438 2657.381)"/><path class="b" d="M83.269,138.767a.32.32,0,0,0-.337-.344.439.439,0,0,0-.455.463c0,.456.5.787,1.179.787a1.427,1.427,0,0,0,1.521-1.283,1.211,1.211,0,0,0-1.274-1.224,1.578,1.578,0,0,0-.629.136l.151-.6c.073,0,.178.007.265.007a1.85,1.85,0,0,0,1.635-.778l.03-.06-.221-.188-.054.042a1.168,1.168,0,0,1-.831.3.968.968,0,0,1-.7-.2l-.025-.029h-.3l-.482,2.134.393.078.024-.07a.66.66,0,0,1,.638-.373c.223,0,.6.069.6.529,0,.124-.02,1.208-.745,1.208a.584.584,0,0,1-.464-.151.355.355,0,0,1,.036-.168A.46.46,0,0,0,83.269,138.767Z" transform="translate(1013.438 2657.381)"/><g transform="translate(1013.438 2657.381)"><path class="c" d="M35.128,167.6a.342.342,0,0,0,.341.342H94.356a.342.342,0,0,0,0-.684H35.47A.341.341,0,0,0,35.128,167.6Z"/><path class="c" d="M37.083,173.513a1.033,1.033,0,0,1-.8-.317,2.179,2.179,0,0,1-.427-.809l-.02-.061h-.4l.054,1.606h.352l.185-.228a1.947,1.947,0,0,0,1.02.276,1.6,1.6,0,0,0,1.06-.372,1.234,1.234,0,0,0,.429-.937,1.1,1.1,0,0,0-.221-.723,1.586,1.586,0,0,0-.654-.436h0c-.267-.108-.558-.163-.858-.287a.89.89,0,0,1-.366-.237.5.5,0,0,1-.1-.333.441.441,0,0,1,.177-.367.521.521,0,0,1,.282-.109,1.029,1.029,0,0,1,.8.3,1.842,1.842,0,0,1,.378.759L38,171.3h.407l-.063-1.543H38l-.184.22a1.652,1.652,0,0,0-.855-.26,1.531,1.531,0,0,0-.967.327,1.093,1.093,0,0,0-.418.855,1.28,1.28,0,0,0,.184.715,1.2,1.2,0,0,0,.561.443c.344.147.562.18.887.3h0a1.049,1.049,0,0,1,.423.238.43.43,0,0,1,.113.314.6.6,0,0,1-.153.441A.691.691,0,0,1,37.083,173.513Z"/><path class="c" d="M36.317,172.06h0Z"/><path class="c" d="M44.182,170.383a.116.116,0,0,1,.075-.057,3.936,3.936,0,0,1,.535-.076l.084-.005v-.429H43.027l-.007.082a1.811,1.811,0,0,1-.128.45h0l-.878,2.133-1.077-2.666H38.95v.431l.086,0a2.593,2.593,0,0,1,.344.044,1.013,1.013,0,0,1,.3.093h0a.41.41,0,0,1,.134.363v1.873a2.046,2.046,0,0,1-.043.476.334.334,0,0,1-.116.206.994.994,0,0,1-.281.091c-.118.025-.235.043-.3.056l-.072.014v.411h2.2v-.429l-.084-.006a2.45,2.45,0,0,1-.324-.065c-.068-.017-.135-.037-.19-.056a.522.522,0,0,1-.107-.046c-.083-.055-.165-.28-.162-.676v-1.923l.94,2.307h0a6.364,6.364,0,0,1,.282.753l.017.068h.375l1.282-2.956v2.341c0,.09-.026.13-.129.18h0a1.314,1.314,0,0,1-.249.044c-.116.014-.239.024-.3.027l-.084.005v.429h2.389v-.429l-.084-.005c-.057,0-.172-.019-.277-.037a1.667,1.667,0,0,1-.223-.05.169.169,0,0,1-.107-.165V170.5A.243.243,0,0,1,44.182,170.383Z"/><path class="c" d="M47.412,173.442l-.083.006v.429h2.31v-.423l-.077-.011a2,2,0,0,1-.442-.1h0a.343.343,0,0,1-.178-.193c-.207-.52-.787-1.913-1.375-3.331l-.023-.055h-.477l-.023.055c-.437,1.052-.914,2.215-1.334,3.162h0a.769.769,0,0,1-.279.363.992.992,0,0,1-.207.062,1.861,1.861,0,0,1-.248.039l-.084.005v.429h2.055v-.425l-.08-.009a3.085,3.085,0,0,1-.43-.076.737.737,0,0,1-.18-.069l-.038-.031,0-.006a.945.945,0,0,1,.059-.274c.05-.149.082-.227.159-.425h1.262l.286.69a.251.251,0,0,1,.017.068.619.619,0,0,1-.228.077A3.067,3.067,0,0,1,47.412,173.442Zm-.791-1.347.432-1.067.438,1.067Z"/><path class="c" d="M50.4,173.308a.171.171,0,0,1-.1.066,3.721,3.721,0,0,1-.471.068l-.084.005v.429h2.278v-.429l-.084-.005c-.059,0-.161-.015-.256-.029a1.805,1.805,0,0,1-.206-.038h0a.146.146,0,0,1-.093-.061.2.2,0,0,1-.024-.107v-1.113h.18a.89.89,0,0,1,.792.63h0a5.621,5.621,0,0,1,.329,1.084l.015.071h1.577v-.435h-.09a1.872,1.872,0,0,1-.358-.037h0a.377.377,0,0,1-.165-.072.467.467,0,0,1-.121-.213h0c-.035-.1-.137-.348-.233-.572h0a1.308,1.308,0,0,0-.8-.7,2.058,2.058,0,0,0,.518-.269.944.944,0,0,0,.427-.761.879.879,0,0,0-.459-.761,1.787,1.787,0,0,0-.91-.238H49.746v.429l.084.005a3.092,3.092,0,0,1,.474.085h0a.144.144,0,0,1,.093.062.22.22,0,0,1,.024.115V173.2A.192.192,0,0,1,50.4,173.308Zm.958-3.042h.355a.759.759,0,0,1,.471.123.609.609,0,0,1,.194.52.661.661,0,0,1-.237.562.917.917,0,0,1-.563.16h-.22Z"/><path class="c" d="M56.76,170.259a3.135,3.135,0,0,1,.394.023.294.294,0,0,1,.144.091,2.242,2.242,0,0,1,.465.849l.019.065h.38v-1.471h-3.9v1.471h.37l.02-.063a2.831,2.831,0,0,1,.288-.609,1.4,1.4,0,0,1,.186-.24.294.294,0,0,1,.143-.092,3.443,3.443,0,0,1,.4-.023h.069V173.2a.168.168,0,0,1-.123.178.786.786,0,0,1-.091.016c-.148.021-.405.045-.5.051l-.084.005v.429h2.532v-.429l-.083-.006c-.051,0-.19-.023-.318-.044l-.177-.032c-.049-.01-.09-.02-.092-.021a.169.169,0,0,1-.125-.171v-2.914Z"/><path class="c" d="M62.15,173.513a1.032,1.032,0,0,1-.8-.317,2.173,2.173,0,0,1-.427-.809l-.021-.061h-.4l.053,1.606h.352l.186-.228a1.945,1.945,0,0,0,1.02.276,1.6,1.6,0,0,0,1.059-.372,1.231,1.231,0,0,0,.429-.937,1.1,1.1,0,0,0-.22-.723,1.586,1.586,0,0,0-.654-.436h0c-.267-.108-.558-.163-.858-.287a.885.885,0,0,1-.365-.237.5.5,0,0,1-.1-.333.441.441,0,0,1,.177-.367.52.52,0,0,1,.282-.109,1.028,1.028,0,0,1,.8.3,1.842,1.842,0,0,1,.379.759l.019.065h.407l-.063-1.543h-.35l-.184.22a1.653,1.653,0,0,0-.855-.26,1.53,1.53,0,0,0-.967.327,1.093,1.093,0,0,0-.419.855,1.287,1.287,0,0,0,.184.715,1.2,1.2,0,0,0,.562.443c.344.147.562.18.887.3h0a1.044,1.044,0,0,1,.423.238.432.432,0,0,1,.113.314.6.6,0,0,1-.153.441A.691.691,0,0,1,62.15,173.513Z"/><path class="c" d="M61.384,172.06h0Z"/><path class="c" d="M64.763,173.382a1.874,1.874,0,0,1-.216.035c-.1.012-.2.022-.257.025l-.084.006v.429h2.278v-.424l-.078-.01c-.06-.007-.165-.025-.26-.044s-.188-.04-.2-.047h-.005a.153.153,0,0,1-.12-.161v-1.153h1.657v1.177c0,.089-.027.14-.112.17h0a1.68,1.68,0,0,1-.208.034c-.1.012-.2.022-.262.025l-.084.005v.429h2.278v-.429L69,173.442c-.048,0-.153-.019-.251-.037a1.5,1.5,0,0,1-.212-.051h0c-.094-.041-.124-.088-.127-.163V170.5a.191.191,0,0,1,.023-.1.172.172,0,0,1,.1-.067,2.871,2.871,0,0,1,.47-.075l.084-.005v-.429H66.807v.429l.084.005a2.2,2.2,0,0,1,.463.1.182.182,0,0,1,.12.172v1.042H65.818V170.5a.2.2,0,0,1,.024-.107.147.147,0,0,1,.093-.061h0a2.92,2.92,0,0,1,.464-.076l.084-.005v-.429H64.207v.429l.084.005a3.2,3.2,0,0,1,.471.1.172.172,0,0,1,.121.17v2.693A.162.162,0,0,1,64.763,173.382Z"/><path class="c" d="M73.317,170.326h0a2.189,2.189,0,0,0-3.04,0h0a2.064,2.064,0,0,0-.615,1.562,1.982,1.982,0,0,0,.674,1.525h0a2.06,2.06,0,0,0,1.426.564,2.133,2.133,0,0,0,1.5-.573h0a2.2,2.2,0,0,0,.057-3.08h0Zm-.715,2.719a.944.944,0,0,1-1.628-.008,2.322,2.322,0,0,1-.267-1.178A2.266,2.266,0,0,1,71,170.612a.9.9,0,0,1,.784-.425.908.908,0,0,1,.841.5,2.4,2.4,0,0,1,.246,1.147A2.359,2.359,0,0,1,72.6,173.044Z"/><path class="c" d="M76.453,172.291a1.856,1.856,0,0,0,1.111-.368,1.241,1.241,0,0,0,.52-.989,1.015,1.015,0,0,0-.41-.815,1.578,1.578,0,0,0-.967-.3H74.471v.429l.084.005a3.269,3.269,0,0,1,.5.085.144.144,0,0,1,.092.064.223.223,0,0,1,.025.112V173.2a.188.188,0,0,1-.024.1.171.171,0,0,1-.1.066,3.72,3.72,0,0,1-.471.068l-.084.005v.429h2.389v-.431l-.085,0c-.08,0-.21-.016-.328-.029a2.233,2.233,0,0,1-.244-.038h0a.146.146,0,0,1-.093-.061.2.2,0,0,1-.024-.107v-.914Zm-.347-2.024h.268a.581.581,0,0,1,.529.253,1.018,1.018,0,0,1,.136.549.843.843,0,0,1-.14.5.721.721,0,0,1-.628.255h-.165Z"/><path class="c" d="M80.523,172.291a1.856,1.856,0,0,0,1.111-.368,1.241,1.241,0,0,0,.52-.989,1.015,1.015,0,0,0-.41-.815,1.578,1.578,0,0,0-.967-.3H78.541v.429l.084.005a3.269,3.269,0,0,1,.5.085.143.143,0,0,1,.092.064.223.223,0,0,1,.025.112V173.2a.188.188,0,0,1-.024.1.171.171,0,0,1-.1.066,3.72,3.72,0,0,1-.471.068l-.084.005v.429h2.389v-.431l-.085,0c-.08,0-.21-.016-.328-.029a2.234,2.234,0,0,1-.244-.038h0a.145.145,0,0,1-.093-.061.2.2,0,0,1-.024-.107v-.914Zm-.347-2.024h.268a.581.581,0,0,1,.529.253,1.018,1.018,0,0,1,.136.549.843.843,0,0,1-.14.5.721.721,0,0,1-.628.255h-.165Z"/><path class="c" d="M83.2,173.382a2.034,2.034,0,0,1-.227.035c-.1.012-.212.021-.269.025l-.084.006v.429h2.333v-.429l-.084-.005a2.728,2.728,0,0,1-.274-.041c-.052-.01-.1-.02-.142-.029l-.071-.019h0c-.1-.044-.122-.079-.127-.163v-2.7a.19.19,0,0,1,.026-.1.134.134,0,0,1,.088-.055h.006a3.353,3.353,0,0,1,.5-.076l.084-.005v-.429H82.62v.429l.084.005a3.461,3.461,0,0,1,.494.1.188.188,0,0,1,.1.065.162.162,0,0,1,.025.1v2.709A.152.152,0,0,1,83.2,173.382Z"/><path class="c" d="M86.92,169.816H85.18v.429l.083.006a2.074,2.074,0,0,1,.4.086,1.4,1.4,0,0,1,.33.136.485.485,0,0,1,.146.357v1.785a2.145,2.145,0,0,1-.039.474.329.329,0,0,1-.112.208h0a.59.59,0,0,1-.094.035,2.993,2.993,0,0,1-.478.107l-.084.005v.429h2.254v-.429l-.084-.005a3.087,3.087,0,0,1-.366-.068c-.077-.018-.152-.038-.211-.057a.593.593,0,0,1-.107-.041.378.378,0,0,1-.11-.213,2.043,2.043,0,0,1-.045-.48v-1.632l2.282,2.981h.539v-2.879a2.476,2.476,0,0,1,.03-.452.3.3,0,0,1,.109-.212,1.448,1.448,0,0,1,.269-.083,2.319,2.319,0,0,1,.3-.056l.084-.005v-.429H88.041v.426l.08.009a3.229,3.229,0,0,1,.348.063,1.576,1.576,0,0,1,.342.11h0c.05.024.089.085.113.2a2.487,2.487,0,0,1,.028.457V172.5Z"/><path class="c" d="M94.964,172.328l.07-.016v-.4h-2.4v.429l.084.005a3.644,3.644,0,0,1,.656.1.126.126,0,0,1,.091.07.378.378,0,0,1,.02.147v.271a.58.58,0,0,1-.2.4.95.95,0,0,1-1.344-.273,2.072,2.072,0,0,1-.32-1.175,2.269,2.269,0,0,1,.318-1.284.855.855,0,0,1,.713-.412,1.146,1.146,0,0,1,.814.308,2.013,2.013,0,0,1,.493.827l.021.06h.394l-.045-1.622h-.4l-.147.225a1.9,1.9,0,0,0-.91-.264,2.337,2.337,0,0,0-1.656.633,2.158,2.158,0,0,0-.643,1.569,2.087,2.087,0,0,0,.6,1.518,1.844,1.844,0,0,0,1.279.541,3.339,3.339,0,0,0,1.264-.272l.335.344L94.3,174l.072-.015v-1.372a.181.181,0,0,1,.117-.187h0a1.649,1.649,0,0,1,.227-.054C94.813,172.357,94.907,172.341,94.964,172.328Z"/><path class="c" d="M94.7,176.276a.342.342,0,0,0-.341-.342H35.47a.342.342,0,0,0,0,.684H94.356A.342.342,0,0,0,94.7,176.276Z"/><path class="c" d="M57.841,141.1a7.044,7.044,0,1,0,14.088,0v-8.921a7.051,7.051,0,0,0-6.687-7.041,4.1,4.1,0,0,1,.6-1.586,2.344,2.344,0,0,1,2.059-1.062h0a2.493,2.493,0,0,0,1.991-.821h0a3.574,3.574,0,0,0,.708-2.293,4.577,4.577,0,0,0-.042-.65l-.017-.111-.483.075-.112.017.018.112a4.21,4.21,0,0,1,.033.553,3.013,3.013,0,0,1-.561,1.906,1.923,1.923,0,0,1-1.536.612,2.906,2.906,0,0,0-2.54,1.322,4.919,4.919,0,0,0-.72,1.92,7.055,7.055,0,0,0-6.8,7.048Zm11.328-13.217a6.046,6.046,0,0,1,1.782,4.3v1.276H66.373v-3.193a1.483,1.483,0,0,0-1.187-1.449v-2.7A6.01,6.01,0,0,1,69.169,127.887Zm-4.452,1.507a.841.841,0,0,1,.334,0,.89.89,0,0,1,.72.872v3.539a.81.81,0,0,1-.014.126l.11.018-.11-.017a.918.918,0,0,1-.873.763.887.887,0,0,1-.874-.762.956.956,0,0,1-.013-.128v-3.538a.891.891,0,0,1,.72-.873Zm-5.9,2.789a6.075,6.075,0,0,1,5.767-6.064v2.7a1.523,1.523,0,0,0-1.187,1.446h0v3.192H58.818Zm0,1.878h4.614a1.474,1.474,0,0,0,2.5.8,1.466,1.466,0,0,0,.4-.8h4.613V141.1a6.067,6.067,0,1,1-12.134,0Z"/><path class="c" d="M32.977,157.755a15.255,15.255,0,0,0,.672-2.478,13.521,13.521,0,0,0,.23-2.422,8.448,8.448,0,0,0-.377-2.591,5.965,5.965,0,0,0-1.084-2.023,4.876,4.876,0,0,0-1.734-1.32,5.516,5.516,0,0,0-2.328-.472,6.2,6.2,0,0,0-1.816.258,6.559,6.559,0,0,0-1.578.718,6.982,6.982,0,0,0-1.34,1.093,9.512,9.512,0,0,0-1.1,1.386,10.933,10.933,0,0,0-.858,1.6,13.315,13.315,0,0,0-.616,1.723,13.139,13.139,0,0,0-.368,1.763,12.659,12.659,0,0,0-.121,1.723,9.971,9.971,0,0,0,.39,2.864,6.851,6.851,0,0,0,1.118,2.248,5.151,5.151,0,0,0,1.765,1.469,5.07,5.07,0,0,0,2.328.526,5.357,5.357,0,0,0,2.285-.49A6.937,6.937,0,0,0,30.359,162a9.4,9.4,0,0,0,1.517-1.933A13.376,13.376,0,0,0,32.977,157.755ZM31.585,153.8q-.074.7-.23,1.467t-.394,1.542a13.622,13.622,0,0,1-.559,1.507,9.677,9.677,0,0,1-.733,1.362,6.09,6.09,0,0,1-.911,1.109,3.972,3.972,0,0,1-1.1.745,3.089,3.089,0,0,1-1.292.272,3.138,3.138,0,0,1-1.5-.355,3.387,3.387,0,0,1-1.127-.977,4.551,4.551,0,0,1-.711-1.476,6.608,6.608,0,0,1-.247-1.844A8.986,8.986,0,0,1,23,155.237a11.97,11.97,0,0,1,.607-1.963,11.746,11.746,0,0,1,.936-1.835,8.727,8.727,0,0,1,1.2-1.533,5.757,5.757,0,0,1,1.4-1.051,3.293,3.293,0,0,1,1.543-.39,2.607,2.607,0,0,1,1.3.316,2.708,2.708,0,0,1,.928.863,3.99,3.99,0,0,1,.55,1.288,6.61,6.61,0,0,1,.182,1.582A12.449,12.449,0,0,1,31.585,153.8Z"/><path class="c" d="M36.391,156.64q.039-.361.083-.643t.082-.548q.039-.265.065-.487a3.172,3.172,0,0,0,.026-.352,1.412,1.412,0,0,0-.182-.765.708.708,0,0,0-.65-.287,1.007,1.007,0,0,0-.741.269,1.359,1.359,0,0,0-.369.669q-.121.513-.251,1.234t-.234,1.621q-.1.9-.173,1.651t-.069,1.326a5.65,5.65,0,0,0,.039.674,1.949,1.949,0,0,0,.156.582.988.988,0,0,0,.334.408.975.975,0,0,0,.572.152.958.958,0,0,0,.5-.13,1.131,1.131,0,0,0,.39-.487l2.272-4.52h.138q-.1.7-.173,1.3a9.848,9.848,0,0,0-.07,1.126,4.918,4.918,0,0,0,.325,2.021q.325.691.8.691a2.959,2.959,0,0,0,.911-.139,8.181,8.181,0,0,0,.841-.347q.277-.122,1.378-.713l.39-.211a3.472,3.472,0,0,0,.658,1,1.206,1.206,0,0,0,.868.406,2.972,2.972,0,0,0,.651-.078,6,6,0,0,0,.714-.211q.366-.133.727-.3c.2-.094.394-.19.584-.286a1.313,1.313,0,0,0,.217.4,1.267,1.267,0,0,0,.5.352,2,2,0,0,0,.759.126,3.414,3.414,0,0,0,1.062-.183,7.586,7.586,0,0,0,1.1-.456,8.337,8.337,0,0,0,.856-.506h0a1.949,1.949,0,0,0,.156.582.987.987,0,0,0,.334.408.976.976,0,0,0,.572.152.959.959,0,0,0,.5-.13,1.127,1.127,0,0,0,.39-.487l2.272-4.52h.139q-.1.7-.173,1.3a9.942,9.942,0,0,0-.069,1.126,4.911,4.911,0,0,0,.325,2.021q.325.691.8.691a2.955,2.955,0,0,0,.91-.139,8.139,8.139,0,0,0,.841-.347q.278-.122,1.379-.713l.287-.155c.053.081.1.168.157.244a2.946,2.946,0,0,0,1.012.81,3.154,3.154,0,0,0,1.417.3,4.418,4.418,0,0,0,1.028-.121,6.11,6.11,0,0,0,.98-.322,7.249,7.249,0,0,0,.9-.461q.429-.26.8-.529a11.555,11.555,0,0,0,1.621-1.441l-1.118-1.139a8.865,8.865,0,0,1-.824.684,9.551,9.551,0,0,1-1.031.667,7.253,7.253,0,0,1-1.123.51,3.292,3.292,0,0,1-1.1.2,1.338,1.338,0,0,1-.309-.034.867.867,0,0,1-.274-.119,1.159,1.159,0,0,1-.257-.238,2.739,2.739,0,0,1-.257-.383,6.037,6.037,0,0,0,1.4-.569,5.192,5.192,0,0,0,1.117-.833,4.732,4.732,0,0,0,.821-1.122,2.54,2.54,0,0,0,.352-1.181,2.223,2.223,0,0,0-.173-.894,1.986,1.986,0,0,0-.482-.681,2.2,2.2,0,0,0-.725-.439,2.547,2.547,0,0,0-.9-.157,2.7,2.7,0,0,0-1.082.211,3.162,3.162,0,0,0-.88.566,3.918,3.918,0,0,0-.686.824,5.489,5.489,0,0,0-.487.982q-.194.515-.375,1.18a4.453,4.453,0,0,0-.181,1.145,4.985,4.985,0,0,0,.065.783l-.1.064a4.35,4.35,0,0,1-.581.348,2.7,2.7,0,0,0-.4.287,1.122,1.122,0,0,1-.364.182.851.851,0,0,1-.295.078q-.286,0-.42-.347a2.489,2.489,0,0,1-.134-.887,6.97,6.97,0,0,1,.039-.7q.039-.382.1-.773t.134-.887q.074-.5.134-.808t.1-.539a2.172,2.172,0,0,0,.039-.321,1.734,1.734,0,0,0-.256-1.008.8.8,0,0,0-.689-.365,1.771,1.771,0,0,0-.789.174,1.57,1.57,0,0,0-.633.643c-.041.069-.1.177-.182.321s-.17.312-.269.5-.2.385-.317.591a5.245,5.245,0,0,0-.316.708,5.333,5.333,0,0,1-.26.613c-.075.143-.13.245-.165.309h-.173a2.035,2.035,0,0,1,.026-.239c.017-.119.039-.3.065-.539s.053-.455.082-.643.057-.371.083-.548.048-.339.065-.487a3.172,3.172,0,0,0,.026-.352,1.408,1.408,0,0,0-.182-.765.708.708,0,0,0-.65-.287,1.008,1.008,0,0,0-.741.269,1.359,1.359,0,0,0-.368.669q-.121.513-.251,1.234t-.234,1.621q-.1.9-.173,1.651c-.01.108-.015.2-.023.3-.168.144-.335.289-.509.426a6.155,6.155,0,0,1-.772.526,1.424,1.424,0,0,1-.694.218.343.343,0,0,1-.355-.23,1.808,1.808,0,0,1-.087-.621,3.622,3.622,0,0,1,.124-.888q.125-.489.207-.984a8.876,8.876,0,0,1,.305-1.2q.224-.7.337-1.149t.2-.8a2.376,2.376,0,0,0,.089-.54.5.5,0,0,0-.128-.361.67.67,0,0,0-.486-.135,2.3,2.3,0,0,0-.439.048,2.2,2.2,0,0,0-.468.15,1.593,1.593,0,0,0-.4.259.711.711,0,0,0-.238.4q-.078.313-.407,1.351-.355,1.274-.473,1.645-.071.187-.321,1.7v.006c-.077.053-.156.111-.232.161q-.24.158-.5.311t-.5.272a3.613,3.613,0,0,1-.462.189,1.277,1.277,0,0,1-.386.07c-.047,0-.1-.034-.148-.1a1.159,1.159,0,0,1-.148-.272,2.388,2.388,0,0,1-.117-.385,2.009,2.009,0,0,1-.048-.442v-.123c.017-.117.04-.237.07-.359s.058-.238.087-.346.059-.209.091-.3a1.91,1.91,0,0,1,.091-.228q.4-.789.874-1.615t.942-1.678q.468-.853.9-1.718t.762-1.726a12.7,12.7,0,0,0,.523-1.713,7.536,7.536,0,0,0,.194-1.674,3.505,3.505,0,0,0-.06-.65,1.764,1.764,0,0,0-.21-.571,1.137,1.137,0,0,0-.411-.406,1.29,1.29,0,0,0-.663-.153,2.1,2.1,0,0,0-1.086.317,4.326,4.326,0,0,0-1.025.871,8.748,8.748,0,0,0-.937,1.3,14.789,14.789,0,0,0-.827,1.606,15.846,15.846,0,0,0-.76,2.282l-.379,1.422s-.083.474-.25,1.424a13.9,13.9,0,0,0-.25,2.277,10.286,10.286,0,0,0,.169,1.9c0,.018.008.035.011.054L42,159.3a4.317,4.317,0,0,1-.581.348,2.71,2.71,0,0,0-.4.287,1.133,1.133,0,0,1-.364.182.854.854,0,0,1-.295.078.451.451,0,0,1-.421-.347,2.489,2.489,0,0,1-.134-.887,6.97,6.97,0,0,1,.039-.7q.039-.382.1-.773t.134-.887q.073-.5.134-.808t.1-.539a2.155,2.155,0,0,0,.039-.321,1.737,1.737,0,0,0-.255-1.008.8.8,0,0,0-.69-.365,1.769,1.769,0,0,0-.789.174,1.571,1.571,0,0,0-.633.643c-.04.069-.1.177-.182.321s-.171.312-.269.5-.2.385-.317.591a5.244,5.244,0,0,0-.317.708,5.426,5.426,0,0,1-.26.613c-.075.143-.13.245-.165.309H36.3a2.069,2.069,0,0,1,.026-.239C36.343,157.06,36.365,156.881,36.391,156.64Zm25.2.916a2.646,2.646,0,0,1,.161-.671q.143-.407.252-.684a1.825,1.825,0,0,1,.287-.493,1.334,1.334,0,0,1,1.084-.489.413.413,0,0,1,.353.246,1.242,1.242,0,0,1,.143.629,1.28,1.28,0,0,1-.3.688,3.288,3.288,0,0,1-.622.663,3.079,3.079,0,0,1-.687.4,1.763,1.763,0,0,1-.683.157C61.574,157.882,61.58,157.732,61.592,157.556ZM44.6,153.188l.233-1.178.382-1.27a13.364,13.364,0,0,1,.657-1.833,4.455,4.455,0,0,1,.55-.894.735.735,0,0,1,.514-.33c.043,0,.07.06.078.18s.013.264.013.434a8.752,8.752,0,0,1-.366,1.722q-.287.925-.678,1.854t-.831,1.806q-.44.877-.831,1.578A14.605,14.605,0,0,1,44.6,153.188Z"/><path class="c" d="M51.264,149.993a1.394,1.394,0,0,0-.468-.215,2.262,2.262,0,0,0-.572-.07,1.9,1.9,0,0,0-.811.153,1.562,1.562,0,0,0-.52.377,1.485,1.485,0,0,0-.368.935,1.309,1.309,0,0,0,.364.97,1.536,1.536,0,0,0,1.127.364,1.916,1.916,0,0,0,.759-.136,1.558,1.558,0,0,0,.524-.356,1.351,1.351,0,0,0,.3-.5,1.79,1.79,0,0,0,.1-.579,1.252,1.252,0,0,0-.117-.561A1.017,1.017,0,0,0,51.264,149.993Z"/><path class="c" d="M74.5,158.022q.038-.2.071-.361a1.583,1.583,0,0,0,.033-.313.576.576,0,0,0-.187-.474.711.711,0,0,0-.464-.152,1.4,1.4,0,0,0-.581.143,1.859,1.859,0,0,0-.577.426,2.367,2.367,0,0,0-.442.7,2.5,2.5,0,0,0-.178.978,3.593,3.593,0,0,0,.481,1.882,4.173,4.173,0,0,0,1.279,1.339,5.887,5.887,0,0,0,1.821.8,8.35,8.35,0,0,0,2.107.265,8.807,8.807,0,0,0,1.534-.135,8.185,8.185,0,0,0,1.457-.395,6.331,6.331,0,0,0,1.292-.66,4.876,4.876,0,0,0,1.036-.921,4.088,4.088,0,0,0,.69-1.178,3.987,3.987,0,0,0,.251-1.438A3.378,3.378,0,0,0,83.791,157a4.356,4.356,0,0,0-.884-1.2,7.029,7.029,0,0,0-1.249-.951q-.7-.422-1.431-.791t-1.431-.716a9.714,9.714,0,0,1-1.248-.734,3.8,3.8,0,0,1-.884-.838,1.679,1.679,0,0,1-.334-1.025,1.444,1.444,0,0,1,.187-.686,1.907,1.907,0,0,1,.572-.63,3.232,3.232,0,0,1,.962-.46,4.624,4.624,0,0,1,1.357-.178,6.906,6.906,0,0,1,1.3.113,3.548,3.548,0,0,1,1.013.338,1.893,1.893,0,0,1,.661.56,1.3,1.3,0,0,1,.239.776,1.927,1.927,0,0,1-.114.62,3.584,3.584,0,0,1-.35.716,3.4,3.4,0,0,0-.359.707,1.71,1.71,0,0,0-.1.534.588.588,0,0,0,.165.455.6.6,0,0,0,.425.152,1.512,1.512,0,0,0,.776-.265,2.661,2.661,0,0,0,.794-.813,4.535,4.535,0,0,0,.542-1.087,3.277,3.277,0,0,0,.169-1.017,2.9,2.9,0,0,0-.412-1.521,4.033,4.033,0,0,0-1.088-1.182,5.235,5.235,0,0,0-1.539-.765,5.9,5.9,0,0,0-1.765-.269,7.929,7.929,0,0,0-2.476.348,5.639,5.639,0,0,0-1.762.91,3.759,3.759,0,0,0-1.056,1.271,3.228,3.228,0,0,0-.35,1.441,2.875,2.875,0,0,0,.333,1.395,4.164,4.164,0,0,0,.882,1.107,7.7,7.7,0,0,0,1.249.908q.7.412,1.429.786t1.431.738a9.047,9.047,0,0,1,1.253.777,3.885,3.885,0,0,1,.884.9,1.907,1.907,0,0,1,.334,1.1,1.974,1.974,0,0,1-.373,1.186,3.2,3.2,0,0,1-.971.873,4.866,4.866,0,0,1-1.353.538,6.392,6.392,0,0,1-1.508.182,5.423,5.423,0,0,1-1.237-.139,3.437,3.437,0,0,1-1.055-.426,2.27,2.27,0,0,1-.735-.73,1.942,1.942,0,0,1-.277-1.051,3.666,3.666,0,0,1,.033-.513Q74.464,158.218,74.5,158.022Z"/><path class="c" d="M89.379,153.883q.4-.821.781-1.695t.68-1.725a15.212,15.212,0,0,0,.481-1.642,6.439,6.439,0,0,0,.182-1.44,4.147,4.147,0,0,0-.069-.791,1.573,1.573,0,0,0-.247-.607,1.175,1.175,0,0,0-.477-.394,1.818,1.818,0,0,0-.767-.14,2.643,2.643,0,0,0-1.6.505,4.551,4.551,0,0,0-1.211,1.362,9.334,9.334,0,0,0-.877,1.985,14.785,14.785,0,0,0-.542,2.375l-.366,2.508q-.184,1.26-.253,2.436t-.082,2.143q-.013.966-.013,1.563,0,.343.026.67a2.414,2.414,0,0,0,.113.584.984.984,0,0,0,.251.412.63.63,0,0,0,.451.155.64.64,0,0,0,.355-.09.9.9,0,0,0,.256-.265,2.86,2.86,0,0,0,.239-.463q.121-.288.312-.675a14.827,14.827,0,0,1,.854-1.518q.472-.735.914-1.324t.794-.976a3.272,3.272,0,0,1,.5-.481l.182.026a1.209,1.209,0,0,0-.117.194q-.09.167-.212.43t-.262.6q-.14.334-.253.685t-.19.7a2.922,2.922,0,0,0-.077.628,3.385,3.385,0,0,0,.115.845,3,3,0,0,0,.346.824,2.011,2.011,0,0,0,.59.621,1.472,1.472,0,0,0,.847.244,2.392,2.392,0,0,0,.654-.1,5.342,5.342,0,0,0,.685-.249,6.865,6.865,0,0,0,.681-.347q.338-.2.628-.388c.145-.1.277-.186.4-.274.028.048.048.1.077.148a2.783,2.783,0,0,0,.889.874,2.433,2.433,0,0,0,1.3.334,2.713,2.713,0,0,0,1-.183,3.322,3.322,0,0,0,.863-.5,3.719,3.719,0,0,0,.7-.739,4.925,4.925,0,0,0,.52-.912,5.338,5.338,0,0,0,.325-1.008,4.88,4.88,0,0,0,.113-1.034,5.819,5.819,0,0,0-.126-1.265,4.673,4.673,0,0,0-.377-1.065l.069-.1q.312.209.746.517a7.12,7.12,0,0,1,.88.752c.28.278.545.531.8.763-.071.338-.136.679-.187,1.027q-.1.69-.2,1.346-.755,1.2-1.344,2.324-.252.484-.49,1t-.429,1.013a8.127,8.127,0,0,0-.3.95,3.407,3.407,0,0,0-.113.814,8.044,8.044,0,0,0,.082,1.177,3.477,3.477,0,0,0,.277.971,1.706,1.706,0,0,0,.525.661,1.343,1.343,0,0,0,.823.245,1.882,1.882,0,0,0,1.224-.5A4.355,4.355,0,0,0,102.778,167a9.241,9.241,0,0,0,.728-2.212,14.052,14.052,0,0,0,.272-2.885v-.157q.717.113,1.136.192t.644.127l.315.065a.758.758,0,0,0,.151.019,3.57,3.57,0,0,0,1.019-.153,5.044,5.044,0,0,0,1.847-1,4.668,4.668,0,0,0,.672-.7l-.1-1.927a6.89,6.89,0,0,1-.854.82,5.53,5.53,0,0,1-1.058.669,6.176,6.176,0,0,1-1.3.454,6.989,6.989,0,0,1-1.591.168l-.052-.177a6.614,6.614,0,0,0,1.346-.762,5.879,5.879,0,0,0,.978-.913,4.078,4.078,0,0,0,.671-1.153,3.535,3.535,0,0,0,.173-1.237,3.479,3.479,0,0,0-.2-1.256,2.231,2.231,0,0,0-.546-.836,2.08,2.08,0,0,0-.805-.468,3.271,3.271,0,0,0-.987-.144,2.607,2.607,0,0,0-2.129.958,4.968,4.968,0,0,0-.694,1.169c-.087.194-.157.383-.226.57-.157-.194-.32-.391-.488-.593a5.742,5.742,0,0,0-1.171-1.082,5.851,5.851,0,0,0-1.348-.687,4.566,4.566,0,0,0-1.543-.256,4.133,4.133,0,0,0-1.734.352,3.8,3.8,0,0,0-1.3.965,4.307,4.307,0,0,0-.819,1.443,6.082,6.082,0,0,0-.286,1.977,5.9,5.9,0,0,0,.05.749l-.023.023q-.2.194-.425.373a4.242,4.242,0,0,1-.46.32,2.87,2.87,0,0,1-.468.228,1.266,1.266,0,0,1-.442.088q-.165,0-.269-.212a1.3,1.3,0,0,1-.1-.567,4.733,4.733,0,0,1,.16-1.24,6.363,6.363,0,0,1,.62-1.408,6.8,6.8,0,0,0,.624-1.387,4.222,4.222,0,0,0,.164-1.174,1.312,1.312,0,0,0-.078-.492.806.806,0,0,0-.2-.3.65.65,0,0,0-.247-.146.808.808,0,0,0-.234-.04,1.617,1.617,0,0,0-.889.317,9.365,9.365,0,0,0-1.214,1.041,14.543,14.543,0,0,0-1.184,1.276q-.442.554-.8,1.036l-.173-.123q.295-.553.68-1.282T89.379,153.883Zm12.3,8.5-.023.54q-.014.324-.041.791-.019.267-.023.605t-.02.691q-.015.354-.041.691a4.183,4.183,0,0,1-.087.606,1.491,1.491,0,0,1-.156.428.279.279,0,0,1-.243.16.364.364,0,0,1-.277-.121.987.987,0,0,1-.182-.276,1.414,1.414,0,0,1-.1-.311,1.321,1.321,0,0,1-.03-.225,2.263,2.263,0,0,1,.048-.369q.047-.256.13-.607t.195-.759q.113-.408.251-.816t.295-.785a5.716,5.716,0,0,1,.321-.664C101.692,162.078,101.686,162.218,101.68,162.38Zm1.912-3.75a5.546,5.546,0,0,1,.193-1.094q.16-.594.277-1a2.926,2.926,0,0,1,.3-.7,1.536,1.536,0,0,1,.42-.467.952.952,0,0,1,.564-.172.611.611,0,0,1,.445.156.853.853,0,0,1,.225.374,1.383,1.383,0,0,1,.052.467,2.508,2.508,0,0,1-.057.433,5.97,5.97,0,0,1-.364.993q-.425.758-.538.774a4.677,4.677,0,0,1-.642.665,4.589,4.589,0,0,1-.9.564Q103.561,159.131,103.592,158.631Zm-8.016-1.222a4.738,4.738,0,0,1,.381-1.047,2.851,2.851,0,0,1,.564-.778.974.974,0,0,1,.676-.3.731.731,0,0,1,.46.148,1.1,1.1,0,0,1,.312.4,2.285,2.285,0,0,1,.182.6,4.282,4.282,0,0,1,.061.743,6.146,6.146,0,0,1-.126,1.152,4.95,4.95,0,0,1-.334,1.1,2.832,2.832,0,0,1-.486.756.79.79,0,0,1-.572.3,1.085,1.085,0,0,1-.971-.526,1.761,1.761,0,0,1-.217-.561,3.232,3.232,0,0,1-.07-.687A5.521,5.521,0,0,1,95.576,157.409Zm-7.623-3.9q-.269.63-.547,1.273t-.513,1.191q.1-.989.291-2.02.063-.438.135-.932l.145-1.005q.074-.511.2-1.024t.273-.99a18.381,18.381,0,0,1,1.041-2.146q.442-.739.668-.739.185,0,.185.661a6.175,6.175,0,0,1-.23,1.347,20.256,20.256,0,0,1-.742,2.242q-.157.391-.4.952T87.954,153.51Z"/><path class="c" d="M42.974,142.118a.341.341,0,0,0,.341.342H52.44a.342.342,0,0,0,0-.684H43.315A.341.341,0,0,0,42.974,142.118Z"/><path class="c" d="M76.372,142.118a.342.342,0,0,0,.341.342h9.125a.342.342,0,0,0,0-.684H76.713A.341.341,0,0,0,76.372,142.118Z"/><path class="c" d="M46.242,135.877l.016-.1H46l-.021.015a1.2,1.2,0,0,1-.7.233,1.446,1.446,0,0,1-.585-.129l-.071-.031-.146.271.053.044a.958.958,0,0,0,.894.385v2.413a.2.2,0,0,1-.127.2,2.541,2.541,0,0,1-.441.048l-.08,0v.36h2v-.36l-.08,0a1.744,1.744,0,0,1-.412-.069.221.221,0,0,1-.12-.206v-2.2A6.157,6.157,0,0,1,46.242,135.877Z"/><path class="c" d="M49.339,139.781c-.224,0-.279-.062-.3-.109a.957.957,0,0,1-.047-.16c-.042-.177-.1-.421-.372-.421s-.4.15-.4.445a.8.8,0,0,0,.879.669,2.371,2.371,0,0,0,2.139-2.605c0-1.695-1.083-1.826-1.415-1.826a1.4,1.4,0,0,0-1.409,1.448,1.192,1.192,0,0,0,1.15,1.307,1.238,1.238,0,0,0,.893-.356C50.337,139,49.961,139.781,49.339,139.781Zm.482-1.741c-.3,0-.616-.111-.616-.931,0-.637.207-.96.616-.96.331,0,.687.317.687,1.013S50.077,138.039,49.821,138.039Z"/><path class="c" d="M78.93,139.781c-.224,0-.279-.062-.3-.109a.917.917,0,0,1-.047-.16c-.042-.177-.1-.421-.372-.421s-.4.15-.4.445a.8.8,0,0,0,.879.669,2.371,2.371,0,0,0,2.139-2.605c0-1.695-1.084-1.826-1.415-1.826A1.4,1.4,0,0,0,78,137.221a1.191,1.191,0,0,0,1.15,1.307,1.238,1.238,0,0,0,.893-.356C79.928,139,79.553,139.781,78.93,139.781Zm.483-1.741c-.3,0-.616-.111-.616-.931,0-.637.207-.96.616-.96.331,0,.687.317.687,1.013S79.668,138.039,79.413,138.039Z"/><path class="c" d="M83.269,138.767a.32.32,0,0,0-.337-.344.439.439,0,0,0-.455.463c0,.456.5.787,1.179.787a1.427,1.427,0,0,0,1.521-1.283,1.211,1.211,0,0,0-1.274-1.224,1.578,1.578,0,0,0-.629.136l.151-.6c.073,0,.178.007.265.007a1.85,1.85,0,0,0,1.635-.778l.03-.06-.221-.188-.054.042a1.168,1.168,0,0,1-.831.3.968.968,0,0,1-.7-.2l-.025-.029h-.3l-.482,2.134.393.078.024-.07a.66.66,0,0,1,.638-.373c.223,0,.6.069.6.529,0,.124-.02,1.208-.745,1.208a.584.584,0,0,1-.464-.151.355.355,0,0,1,.036-.168A.46.46,0,0,0,83.269,138.767Z"/></g></g></svg>