<svg xmlns="http://www.w3.org/2000/svg" width="61" height="69" viewBox="0 0 61 69"><defs><style>.a{fill:#877d5c;}.b{fill:#d6d5d6;}.c{fill:#999591;}</style></defs><g transform="translate(-1722 -2771)"><path class="a" d="M146.939,221.374a2.53,2.53,0,0,1-.361.047l-.076.005v.337h2.759l.088-1.053h-.317l-.019.054a2.044,2.044,0,0,1-.328.568,1.207,1.207,0,0,1-.58.072c-.373,0-.385-.027-.385-.269v-.7h.2c.209,0,.269.066.3.1a.848.848,0,0,1,.1.328l0,.077h.336V219.6h-.332l-.007.073a.714.714,0,0,1-.1.312c-.031.031-.09.089-.3.089h-.2V219.2h.357a3.308,3.308,0,0,1,.366.022c.093.011.3.267.353.428l.017.058h.307v-.856H146.5v.337l.076,0a1.677,1.677,0,0,1,.354.067c.072.031.082.072.082.107v1.9A.09.09,0,0,1,146.939,221.374Z" transform="translate(1576.679 2563.375)"/><path class="a" d="M152.072,221.471c-.494,0-.7-.314-.862-.785l-.019-.055h-.314l.04,1.171h.277l.127-.155a1.433,1.433,0,0,0,.728.189,1,1,0,0,0,1.084-.944.833.833,0,0,0-.637-.836,2.967,2.967,0,0,0-.282-.092c-.108-.032-.218-.064-.332-.11-.272-.113-.32-.215-.32-.388a.328.328,0,0,1,.311-.32c.506,0,.691.282.827.738l.017.058h.323l-.046-1.126h-.276l-.125.148a1.229,1.229,0,0,0-.611-.176.931.931,0,0,0-1.009.854.818.818,0,0,0,.544.836,3.048,3.048,0,0,0,.38.13c.079.023.161.047.257.081.31.108.372.224.372.375C152.526,221.337,152.377,221.471,152.072,221.471Z" transform="translate(1576.679 2563.375)"/><path class="a" d="M156.41,219.2a2.267,2.267,0,0,1,.28.016c.113.015.338.363.421.653l.017.059h.3v-1.076H154.6v1.076h.295l.018-.056c.1-.3.32-.642.427-.655a2.432,2.432,0,0,1,.287-.017h.032v2.063a.1.1,0,0,1-.075.11c-.039.012-.3.04-.418.047l-.077,0v.337h1.848v-.337l-.076-.005a3.967,3.967,0,0,1-.416-.069.1.1,0,0,1-.078-.1V219.2Z" transform="translate(1576.679 2563.375)"/><path class="a" d="M159.274,221.379a3.087,3.087,0,0,1-.357.042l-.077,0v.337h1.453a1.547,1.547,0,0,0,1.727-1.44,1.52,1.52,0,0,0-1.642-1.469h-1.522v.337l.076.005a1.8,1.8,0,0,1,.337.063.1.1,0,0,1,.077.11v1.907A.093.093,0,0,1,159.274,221.379Zm.777-2.162.068,0,.136,0a.985.985,0,0,1,.983,1.11c0,.714-.3,1.076-.88,1.076-.282,0-.306-.1-.306-.207Z" transform="translate(1576.679 2563.375)"/><path class="a" d="M191.359,221.369a2.459,2.459,0,0,1-.427.046l-.077,0v.344h1.934v-.344l-.077,0a1.67,1.67,0,0,1-.4-.066.211.211,0,0,1-.117-.2v-2.1a5.853,5.853,0,0,1,.078-.833l.016-.094h-.252l-.021.015a1.171,1.171,0,0,1-.677.223,1.41,1.41,0,0,1-.565-.123l-.068-.029-.142.259.052.043a1.416,1.416,0,0,0,.712.374,1.4,1.4,0,0,0,.152-.006v2.306A.194.194,0,0,1,191.359,221.369Z" transform="translate(1576.679 2563.375)"/><path class="a" d="M195.27,221.945c-.217,0-.27-.06-.29-.1a.93.93,0,0,1-.045-.153c-.04-.17-.1-.4-.359-.4s-.389.143-.389.425a.771.771,0,0,0,.85.639,2.273,2.273,0,0,0,2.069-2.49c0-1.619-1.047-1.745-1.368-1.745a1.346,1.346,0,0,0-1.362,1.384,1.144,1.144,0,0,0,1.112,1.249,1.2,1.2,0,0,0,.863-.341C196.234,221.2,195.871,221.945,195.27,221.945Zm.466-1.665c-.295,0-.6-.105-.6-.889,0-.609.2-.918.6-.918.32,0,.664.3.664.968S195.983,220.281,195.736,220.281Z" transform="translate(1576.679 2563.375)"/><path class="a" d="M199.668,221.945c-.217,0-.269-.06-.29-.1a.889.889,0,0,1-.046-.153c-.04-.17-.1-.4-.359-.4s-.389.143-.389.425a.771.771,0,0,0,.85.639,2.273,2.273,0,0,0,2.069-2.49c0-1.619-1.047-1.745-1.368-1.745a1.345,1.345,0,0,0-1.362,1.384,1.144,1.144,0,0,0,1.112,1.249,1.2,1.2,0,0,0,.863-.341C200.633,221.2,200.269,221.945,199.668,221.945Zm.466-1.665c-.294,0-.6-.105-.6-.889,0-.609.2-.918.6-.918.32,0,.665.3.665.968S200.381,220.281,200.134,220.281Z" transform="translate(1576.679 2563.375)"/><path class="a" d="M204.271,219.01a1.8,1.8,0,0,0,1.581-.743l.03-.057-.214-.18-.052.04a1.138,1.138,0,0,1-.8.282.942.942,0,0,1-.679-.192l-.024-.027h-.29l-.465,2.039.38.075.023-.067a.639.639,0,0,1,.617-.357c.216,0,.579.066.579.506,0,.118-.02,1.155-.721,1.155a.565.565,0,0,1-.448-.145.335.335,0,0,1,.035-.161.434.434,0,0,0,.045-.2.307.307,0,0,0-.326-.329.423.423,0,0,0-.44.442c0,.436.48.752,1.14.752a1.375,1.375,0,0,0,1.471-1.226,1.166,1.166,0,0,0-1.232-1.17,1.539,1.539,0,0,0-.608.131l.147-.573C204.086,219.008,204.187,219.01,204.271,219.01Z" transform="translate(1576.679 2563.375)"/><path class="a" d="M162.421,216.245a.406.406,0,0,0-.408-.4H146.2a.4.4,0,1,0,0,.808h15.812A.406.406,0,0,0,162.421,216.245Z" transform="translate(1576.679 2563.375)"/><path class="a" d="M146.2,224.866h15.812a.4.4,0,1,0,0-.808H146.2a.4.4,0,1,0,0,.808Z" transform="translate(1576.679 2563.375)"/><path class="a" d="M205.619,267.279H146.138a.342.342,0,1,0,0,.683h59.482a.342.342,0,1,0,0-.683Z" transform="translate(1576.679 2563.375)"/><path class="a" d="M205.964,276.284a.343.343,0,0,0-.345-.341H146.138a.342.342,0,1,0,0,.683h59.482A.343.343,0,0,0,205.964,276.284Z" transform="translate(1576.679 2563.375)"/><path class="a" d="M206.321,216.245a.406.406,0,0,0-.408-.4H190.1a.4.4,0,1,0,0,.808h15.813A.406.406,0,0,0,206.321,216.245Z" transform="translate(1576.679 2563.375)"/><path class="a" d="M190.1,224.866h15.813a.4.4,0,1,0,0-.808H190.1a.4.4,0,1,0,0,.808Z" transform="translate(1576.679 2563.375)"/><path class="b" d="M147.9,270.635l.1,0v-.439h-2.189v.436l.1.006a1.359,1.359,0,0,1,.381.081.758.758,0,0,1,.26.275c.222.356.459.746.695,1.178h0a.8.8,0,0,1,.137.311v.763l-.019.083a.121.121,0,0,1-.072.05c-.006,0-.041.009-.084.014-.136.018-.369.04-.451.045l-.1.006v.436h2.354v-.437l-.1-.006c-.051,0-.178-.02-.293-.04-.058-.01-.114-.02-.158-.029l-.055-.012-.021-.006a.168.168,0,0,1-.079-.055l-.018-.073v-.5a1.1,1.1,0,0,1,.1-.49,7.987,7.987,0,0,1,.864-1.3,1.607,1.607,0,0,1,.125-.132.509.509,0,0,1,.122-.078h0a1.119,1.119,0,0,1,.165-.05,1.765,1.765,0,0,1,.182-.036l.1-.009v-.433h-1.793v.434l.1.008a2.212,2.212,0,0,1,.373.06.463.463,0,0,1,.116.046h0a.99.99,0,0,1-.059.113c-.108.188-.331.529-.613.955-.191-.313-.354-.58-.471-.78-.068-.115-.121-.209-.157-.276l-.025-.051a1.263,1.263,0,0,1,.2-.042C147.723,270.646,147.834,270.637,147.9,270.635Z" transform="translate(1576.679 2563.375)"/><path class="b" d="M153.312,270.656h0a2.025,2.025,0,0,0-2.789,0h0a1.863,1.863,0,0,0-.565,1.418,1.792,1.792,0,0,0,.619,1.385h0a1.9,1.9,0,0,0,1.309.511,1.973,1.973,0,0,0,1.375-.519h0a1.981,1.981,0,0,0,.052-2.8h0Zm-.69,2.439a.832.832,0,0,1-1.427-.008,2.035,2.035,0,0,1-.238-1.04,1.986,1.986,0,0,1,.263-1.1.787.787,0,0,1,.687-.368.8.8,0,0,1,.738.434,2.11,2.11,0,0,1,.219,1.013A2.063,2.063,0,0,1,152.623,273.094Z" transform="translate(1576.679 2563.375)"/><path class="b" d="M155.8,270.747a.113.113,0,0,1,.068-.045h0a2.478,2.478,0,0,1,.411-.073l.1-.006v-.429h-2.117v.436l.1.007a1.737,1.737,0,0,1,.394.083c.082.042.1.075.1.131v2.011a.988.988,0,0,0,.414.787,1.894,1.894,0,0,0,1.162.333,1.731,1.731,0,0,0,1.013-.3,1.169,1.169,0,0,0,.485-.982v-1.384a2.261,2.261,0,0,1,.023-.391c.018-.107.055-.161.078-.171h0a1.021,1.021,0,0,1,.244-.073,2.255,2.255,0,0,1,.268-.041l.1-.006v-.436H156.62v.426l.1.009a2.415,2.415,0,0,1,.3.055,1.152,1.152,0,0,1,.27.094h0a.259.259,0,0,1,.078.154,1.721,1.721,0,0,1,.04.409v1.319a.793.793,0,0,1-.153.483.819.819,0,0,1-.7.272.729.729,0,0,1-.656-.254.874.874,0,0,1-.121-.5v-1.833Z" transform="translate(1576.679 2563.375)"/><path class="b" d="M159.494,273.33a.131.131,0,0,1-.073.048c-.023.007-.105.022-.189.033s-.179.023-.231.026l-.1.006v.436h2.117v-.436l-.1-.006c-.052,0-.145-.014-.23-.026a1.643,1.643,0,0,1-.182-.033H160.5a.1.1,0,0,1-.068-.043l-.018-.082v-.97h.137a.777.777,0,0,1,.692.548h0a4.906,4.906,0,0,1,.3.965l.019.085h1.477v-.443h-.108a1.723,1.723,0,0,1-.318-.032h0a.316.316,0,0,1-.138-.058.388.388,0,0,1-.1-.179h0c-.032-.1-.125-.314-.212-.515h0a1.179,1.179,0,0,0-.679-.622,1.772,1.772,0,0,0,.413-.217.869.869,0,0,0,.4-.7.813.813,0,0,0-.429-.7,1.659,1.659,0,0,0-.838-.216H158.9v.436l.1.006a2.874,2.874,0,0,1,.423.074h0a.1.1,0,0,1,.068.043.166.166,0,0,1,.018.088v2.41Zm.917-2.681h.295a.662.662,0,0,1,.41.1.513.513,0,0,1,.165.444.563.563,0,0,1-.2.482.812.812,0,0,1-.493.138h-.173Z" transform="translate(1576.679 2563.375)"/><path class="b" d="M165.511,273.46h0a1.9,1.9,0,0,0,1.309.511,1.973,1.973,0,0,0,1.375-.519h0a1.98,1.98,0,0,0,.052-2.8h0a2.025,2.025,0,0,0-2.789,0h0a1.865,1.865,0,0,0-.565,1.418A1.792,1.792,0,0,0,165.511,273.46Zm.645-2.514a.786.786,0,0,1,.687-.368.8.8,0,0,1,.738.434,2.105,2.105,0,0,1,.219,1.013,2.067,2.067,0,0,1-.241,1.069.832.832,0,0,1-1.427-.008,2.031,2.031,0,0,1-.238-1.04A1.983,1.983,0,0,1,166.156,270.946Z" transform="translate(1576.679 2563.375)"/><path class="b" d="M170.616,270.192H169v.436l.1.007a1.843,1.843,0,0,1,.358.076,1.278,1.278,0,0,1,.291.118.408.408,0,0,1,.12.3v1.6a1.883,1.883,0,0,1-.035.418.27.27,0,0,1-.09.17h0a.538.538,0,0,1-.079.029,2.725,2.725,0,0,1-.427.095l-.1.006v.436h2.1v-.436l-.1-.006a2.759,2.759,0,0,1-.326-.061c-.069-.016-.137-.034-.19-.05l-.066-.023-.019-.009,0,0a.312.312,0,0,1-.089-.175,1.8,1.8,0,0,1-.04-.423v-1.381l2.026,2.615h.529v-2.6a2.111,2.111,0,0,1,.026-.4c.021-.1.055-.155.086-.172a.531.531,0,0,1,.083-.031,2.566,2.566,0,0,1,.422-.089l.1-.006v-.436h-2.081v.432l.1.01a3.158,3.158,0,0,1,.312.056,1.422,1.422,0,0,1,.3.1h0c.034.016.067.06.088.163a2.156,2.156,0,0,1,.025.4v1.186Z" transform="translate(1576.679 2563.375)"/><path class="b" d="M174.457,273.328a.138.138,0,0,1-.073.05,3.092,3.092,0,0,1-.44.059l-.1.006v.436h3.381l.009-.1.119-1.322h-.424l-.023.077a2.4,2.4,0,0,1-.433.76.908.908,0,0,1-.606.132.809.809,0,0,1-.421-.061.134.134,0,0,1-.049-.078.74.74,0,0,1-.019-.2v-2.261a.127.127,0,0,1,.092-.126,2.112,2.112,0,0,1,.462-.073l.1-.006v-.436h-2.167v.436l.1.006a1.966,1.966,0,0,1,.411.092h.006a.136.136,0,0,1,.074.051.15.15,0,0,1,.02.084v2.389Z" transform="translate(1576.679 2563.375)"/><path class="b" d="M178.063,273.385a1.9,1.9,0,0,1-.2.03c-.093.011-.191.019-.242.023l-.1.007v.436h2.167v-.436l-.1-.006c-.047,0-.152-.018-.245-.036l-.127-.026-.044-.011-.013,0h-.005a.173.173,0,0,1-.077-.052l-.02-.07V270.82l.019-.078.063-.038h.007a3.084,3.084,0,0,1,.443-.067l.1-.006v-.436h-2.167v.436l.1.007a3.173,3.173,0,0,1,.44.087.14.14,0,0,1,.074.049l.018.071v2.424A.11.11,0,0,1,178.063,273.385Z" transform="translate(1576.679 2563.375)"/><path class="b" d="M181.452,270.192h-1.616v.436l.1.007a1.83,1.83,0,0,1,.358.076,1.26,1.26,0,0,1,.291.118.408.408,0,0,1,.121.3v1.6a1.905,1.905,0,0,1-.035.418.27.27,0,0,1-.089.17h0a.54.54,0,0,1-.079.029,2.725,2.725,0,0,1-.427.095l-.1.006v.436h2.1v-.436l-.1-.006a2.761,2.761,0,0,1-.326-.061c-.069-.016-.137-.034-.189-.05l-.066-.023-.02-.009,0,0a.312.312,0,0,1-.089-.175,1.779,1.779,0,0,1-.04-.423v-1.381l2.026,2.615h.529v-2.6a2.143,2.143,0,0,1,.027-.4c.02-.1.055-.155.086-.172a.524.524,0,0,1,.084-.031,2.561,2.561,0,0,1,.422-.089l.1-.006v-.436h-2.08v.432l.1.01a3.14,3.14,0,0,1,.312.056,1.422,1.422,0,0,1,.3.1h0c.034.016.066.06.088.163a2.187,2.187,0,0,1,.025.4v1.186Z" transform="translate(1576.679 2563.375)"/><path class="b" d="M185.292,273.333a.111.111,0,0,1-.068.043h0a1.5,1.5,0,0,1-.212.035c-.094.012-.192.021-.243.024l-.1.007v.436h3.5l.008-.1.1-1.243h-.411l-.025.072a3.185,3.185,0,0,1-.169.36,1.547,1.547,0,0,1-.241.352l0,0,0,0a.456.456,0,0,1-.249.075c-.132.014-.3.015-.481.015a.842.842,0,0,1-.417-.054.122.122,0,0,1-.046-.075.816.816,0,0,1-.019-.206V272.2h.244c.261,0,.319.067.372.121a.672.672,0,0,1,.072.165,1.047,1.047,0,0,1,.052.246l0,.1h.435v-1.691h-.43l-.01.1a1.313,1.313,0,0,1-.047.232.463.463,0,0,1-.072.159.289.289,0,0,1-.1.069.716.716,0,0,1-.274.042h-.244v-1.1h.446a4.3,4.3,0,0,1,.462.028.232.232,0,0,1,.1.052,1.24,1.24,0,0,1,.346.485l.023.076h.4v-1.092h-3.318v.436l.1.007c.047,0,.141.015.232.031a1.251,1.251,0,0,1,.215.053.184.184,0,0,1,.08.058l.02.071v2.4A.145.145,0,0,1,185.292,273.333Z" transform="translate(1576.679 2563.375)"/><path class="b" d="M192.211,270.578a.879.879,0,0,1,.678.308,1.727,1.727,0,0,1,.362.737l.02.082h.412l-.033-1.563h-.408l-.124.182a1.551,1.551,0,0,0-.761-.218,1.932,1.932,0,0,0-1.979,1.969,1.914,1.914,0,0,0,.515,1.371,1.845,1.845,0,0,0,1.349.527,1.679,1.679,0,0,0,1.612-1.107l.039-.094-.329-.159-.1-.047-.046.1a1.426,1.426,0,0,1-.384.538.956.956,0,0,1-.618.185.938.938,0,0,1-.743-.359,1.549,1.549,0,0,1-.307-.989,2.018,2.018,0,0,1,.265-1.139A.683.683,0,0,1,192.211,270.578Z" transform="translate(1576.679 2563.375)"/><path class="b" d="M196.27,273.4c-.1.017-.2.027-.275.032l-.1.007v.436h2.145v-.429l-.093-.013c-.049-.007-.128-.019-.205-.035a.926.926,0,0,1-.186-.054h0a.279.279,0,0,1-.147-.158c-.189-.467-.713-1.712-1.245-2.981l-.028-.066h-.469l-.028.066c-.4.942-.828,1.982-1.208,2.829h0a.664.664,0,0,1-.241.313.943.943,0,0,1-.18.052,1.647,1.647,0,0,1-.22.034l-.1.006v.436H195.6v-.431l-.1-.011a2.809,2.809,0,0,1-.385-.067.667.667,0,0,1-.156-.059l-.023-.018a.824.824,0,0,1,.051-.228c.043-.128.072-.2.137-.362h1.106l.251.6a.384.384,0,0,1,.013.039h0A.844.844,0,0,1,196.27,273.4Zm-.948-1.173.351-.857.355.857Z" transform="translate(1576.679 2563.375)"/><path class="b" d="M198.675,273.33a.13.13,0,0,1-.073.048c-.023.007-.105.022-.189.033s-.179.023-.231.026l-.1.006v.436H200.2v-.436l-.1-.006c-.052,0-.145-.014-.23-.026a1.608,1.608,0,0,1-.182-.033h-.005a.106.106,0,0,1-.069-.043l-.018-.082v-.97h.137a.777.777,0,0,1,.691.548h0a4.965,4.965,0,0,1,.3.965l.018.085h1.477v-.443H202.1a1.719,1.719,0,0,1-.317-.032h0a.313.313,0,0,1-.138-.058.392.392,0,0,1-.1-.179h0c-.032-.1-.125-.314-.212-.515h0a1.179,1.179,0,0,0-.679-.622,1.781,1.781,0,0,0,.413-.217.869.869,0,0,0,.4-.7.814.814,0,0,0-.429-.7,1.656,1.656,0,0,0-.838-.216h-2.116v.436l.1.006a2.87,2.87,0,0,1,.424.074h0a.1.1,0,0,1,.068.043.175.175,0,0,1,.018.088v2.41Zm.918-2.681h.295a.662.662,0,0,1,.41.1.515.515,0,0,1,.165.444.563.563,0,0,1-.2.482.812.812,0,0,1-.493.138h-.173Z" transform="translate(1576.679 2563.375)"/><path class="b" d="M204.456,270.642a2.87,2.87,0,0,1,.353.021.248.248,0,0,1,.115.073,1.973,1.973,0,0,1,.414.748l.023.078h.391v-1.37h-3.584v1.37h.382l.024-.075a2.505,2.505,0,0,1,.258-.54,1.251,1.251,0,0,1,.164-.21.244.244,0,0,1,.114-.075,3.157,3.157,0,0,1,.361-.021h.035v2.6l-.02.082a.133.133,0,0,1-.072.052s-.036.008-.078.013c-.133.018-.366.04-.448.045l-.1.006v.436h2.347v-.436l-.1-.007c-.044,0-.17-.02-.285-.04l-.159-.029-.056-.012-.017,0h-.005c-.078-.034-.091-.064-.1-.128v-2.581Z" transform="translate(1576.679 2563.375)"/><path class="b" d="M145.392,257.933c.384,4.432,2.31,7.6,5.756,6.215,4.538-1.824,7.039-8.863,7.32-15.027a.335.335,0,0,0,.117.062c.208-.317.351-.491.477-.542.228-.092.377.111.315.6l-1.14,11.674a1.869,1.869,0,0,0,1.223-.112,3.135,3.135,0,0,0,1.974-2.634l.85-8.666a5.552,5.552,0,0,1,2.128-2.374c.557-.224.953.113.828,1.39l-.578,6.045c-.348,3.557,1.056,3.723,2.323,3.213a9.622,9.622,0,0,0,4.041-4.1c.437,1.556,1.6,1.832,2.965,1.284a11.552,11.552,0,0,0,5.118-5.15c-.08,2.383,1.365,2.544,2.568,2.06a8.976,8.976,0,0,0,3.7-3.539l-.17,1.741a1.869,1.869,0,0,0,1.223-.112,3.135,3.135,0,0,0,1.974-2.634l.849-8.667a5.549,5.549,0,0,1,2.128-2.374c.557-.224.954.113.828,1.39l-.578,6.045c-.348,3.557,1.056,3.723,2.323,3.213a9.576,9.576,0,0,0,4.02-4.065c.773,1.437,2.131,1.592,3.773.932,2.23-.9,4.41-3.584,4.275-5.136-.041-.48-.345-.65-.826-.456a3.772,3.772,0,0,1-2.217,2.556,1.6,1.6,0,0,1-2.385-1.2c4.629-4.986,5.6-7.364,5.4-9.763-.11-1.27-.818-2.476-3.123-1.549-4.181,1.681-5.852,8.428-5.534,12.1a9.049,9.049,0,0,0,.218,1.371,5.682,5.682,0,0,1-2.1,1.841c-.507.2-.866,0-.785-.882l.68-6.991c.326-3.2-.74-4-2.082-3.457a8.514,8.514,0,0,0-3.911,4.494l.144-1.372c.135-1.165-.439-1.43-1.351-1.064a6.761,6.761,0,0,0-2.721,2.5c-.468.656-.215,1.459.134,1.552.209-.317.351-.491.477-.543.228-.091.377.112.315.6l-.763,7.813a6.183,6.183,0,0,1-2.413,2.285c-.659.265-1.108-.081-.941-1.784l.84-8.778c.11-1.154-.439-1.43-1.35-1.064a6.76,6.76,0,0,0-2.721,2.5c-.468.656-.215,1.459.134,1.552.209-.317.351-.491.478-.542.228-.092.351.122.314.6l-.559,5.965a.524.524,0,0,0-.213.07,7.464,7.464,0,0,1-3.648,4.5c-.887.357-1.595.056-1.544-1.483,0-.348.015-.736.036-1.095,2.788-6.875,4.044-12.053,3.853-14.254-.127-1.468-1.034-1.95-2.225-1.471-3.319,1.335-4.5,8-4.78,18.687,0,.1,0,.189,0,.283a6.108,6.108,0,0,1-2.369,2.217c-.507.2-.865,0-.784-.882l.68-6.991c.326-3.2-.74-4-2.082-3.457a8.511,8.511,0,0,0-3.911,4.493l.143-1.372c.135-1.164-.439-1.43-1.351-1.063a6.673,6.673,0,0,0-2.679,2.439c-.009-.524-.032-1.038-.075-1.537-.339-3.924-2.125-6.681-5.622-5.275C147.346,242.952,144.856,251.752,145.392,257.933Zm57.84-27.546c.431-.173.774.156.83.805.159,1.834-1.342,4.483-3.651,7.193C200.316,236.378,200.724,231.395,203.232,230.387Zm-27.271,4.626c.278-.112.443-.033.484.447.083.96-.507,5.345-2.339,10.842C174.453,240,175.125,235.348,175.962,235.012Zm-22.825,7.89c1.419-.57,2.711.721,3,4.08.645,7.452-1.931,12.225-4.135,13.112-1.85.743-2.841-1.312-3.092-4.22C148.505,251.19,150.071,244.135,153.136,242.9Z" transform="translate(1576.679 2563.375)"/><path class="b" d="M181.9,235.077a3.265,3.265,0,0,0,1.805-2.77c.006-1.141-.8-1.721-1.793-1.324a3.117,3.117,0,0,0-1.755,2.75C180.1,234.895,180.914,235.474,181.9,235.077Z" transform="translate(1576.679 2563.375)"/><path class="b" d="M165.9,216.152a2.013,2.013,0,0,0-.369,1.754l1.984,7.723a2.053,2.053,0,0,0,1.994,1.536h13.3a2.053,2.053,0,0,0,1.994-1.536l1.984-7.723a2.013,2.013,0,0,0-.369-1.754h0a2.054,2.054,0,0,0-1.625-.788H167.527A2.054,2.054,0,0,0,165.9,216.152Zm.869.67a.952.952,0,0,1,.756-.366h1.453l.479,2.525h-2.515l-.345-1.343a.932.932,0,0,1,.172-.815Zm6.741-.366.147,2.525h-3.419l-.479-2.525Zm.768,0h3.686l-.147,2.525h-3.392Zm4.307,2.525.147-2.525h3.547l-.368,2.525Zm-.262,4.509h2.929l-.378,2.585h-2.7Zm-6.738,2.585-.491-2.585h2.825l.15,2.585ZM169.6,219.74l.567,2.988h-2.264l-.768-2.988Zm4.1,0,.174,2.988h-2.926l-.567-2.988Zm3.9,2.988h-2.955l-.174-2.988h3.3Zm4.2-2.988-.436,2.988h-3l.174-2.988Zm.339,2.988.436-2.988h2.607l-.767,2.988Zm-11.825.76.491,2.585h-1.3a.954.954,0,0,1-.927-.714l-.481-1.871Zm4.524,2.585-.15-2.585h2.867l-.15,2.585Zm7.973,0h-1.16l.377-2.585h2.191l-.48,1.871A.955.955,0,0,1,182.813,226.074Zm2.739-9.252a.936.936,0,0,1,.172.815h0l-.345,1.343h-2.691l.368-2.525h1.74a.951.951,0,0,1,.756.366Z" transform="translate(1576.679 2563.375)"/><path class="b" d="M166.977,214.547a.548.548,0,0,0,.55.546H184.8a.546.546,0,1,0,0-1.091h-3.809l-2.643-6.047h0a.552.552,0,0,0-.505-.328.559.559,0,0,0-.218.045h0a.543.543,0,0,0-.287.717h0L179.788,214h-7.253l2.454-5.613h0a.537.537,0,0,0,.046-.216.546.546,0,0,0-.332-.5h0a.559.559,0,0,0-.218-.045.551.551,0,0,0-.5.329l0,.008L171.336,214h-3.809A.548.548,0,0,0,166.977,214.547Z" transform="translate(1576.679 2563.375)"/><g transform="translate(1576.679 2563.375)"><path class="c" d="M146.939,221.374a2.53,2.53,0,0,1-.361.047l-.076.005v.337h2.759l.088-1.053h-.317l-.019.054a2.044,2.044,0,0,1-.328.568,1.207,1.207,0,0,1-.58.072c-.373,0-.385-.027-.385-.269v-.7h.2c.209,0,.269.066.3.1a.848.848,0,0,1,.1.328l0,.077h.336V219.6h-.332l-.007.073a.714.714,0,0,1-.1.312c-.031.031-.09.089-.3.089h-.2V219.2h.357a3.308,3.308,0,0,1,.366.022c.093.011.3.267.353.428l.017.058h.307v-.856H146.5v.337l.076,0a1.677,1.677,0,0,1,.354.067c.072.031.082.072.082.107v1.9A.09.09,0,0,1,146.939,221.374Z"/><path class="c" d="M152.072,221.471c-.494,0-.7-.314-.862-.785l-.019-.055h-.314l.04,1.171h.277l.127-.155a1.433,1.433,0,0,0,.728.189,1,1,0,0,0,1.084-.944.833.833,0,0,0-.637-.836,2.967,2.967,0,0,0-.282-.092c-.108-.032-.218-.064-.332-.11-.272-.113-.32-.215-.32-.388a.328.328,0,0,1,.311-.32c.506,0,.691.282.827.738l.017.058h.323l-.046-1.126h-.276l-.125.148a1.229,1.229,0,0,0-.611-.176.931.931,0,0,0-1.009.854.818.818,0,0,0,.544.836,3.048,3.048,0,0,0,.38.13c.079.023.161.047.257.081.31.108.372.224.372.375C152.526,221.337,152.377,221.471,152.072,221.471Z"/><path class="c" d="M156.41,219.2a2.267,2.267,0,0,1,.28.016c.113.015.338.363.421.653l.017.059h.3v-1.076H154.6v1.076h.295l.018-.056c.1-.3.32-.642.427-.655a2.432,2.432,0,0,1,.287-.017h.032v2.063a.1.1,0,0,1-.075.11c-.039.012-.3.04-.418.047l-.077,0v.337h1.848v-.337l-.076-.005a3.967,3.967,0,0,1-.416-.069.1.1,0,0,1-.078-.1V219.2Z"/><path class="c" d="M159.274,221.379a3.087,3.087,0,0,1-.357.042l-.077,0v.337h1.453a1.547,1.547,0,0,0,1.727-1.44,1.52,1.52,0,0,0-1.642-1.469h-1.522v.337l.076.005a1.8,1.8,0,0,1,.337.063.1.1,0,0,1,.077.11v1.907A.093.093,0,0,1,159.274,221.379Zm.777-2.162.068,0,.136,0a.985.985,0,0,1,.983,1.11c0,.714-.3,1.076-.88,1.076-.282,0-.306-.1-.306-.207Z"/><path class="c" d="M191.359,221.369a2.459,2.459,0,0,1-.427.046l-.077,0v.344h1.934v-.344l-.077,0a1.67,1.67,0,0,1-.4-.066.211.211,0,0,1-.117-.2v-2.1a5.853,5.853,0,0,1,.078-.833l.016-.094h-.252l-.021.015a1.171,1.171,0,0,1-.677.223,1.41,1.41,0,0,1-.565-.123l-.068-.029-.142.259.052.043a1.416,1.416,0,0,0,.712.374,1.4,1.4,0,0,0,.152-.006v2.306A.194.194,0,0,1,191.359,221.369Z"/><path class="c" d="M195.27,221.945c-.217,0-.27-.06-.29-.1a.93.93,0,0,1-.045-.153c-.04-.17-.1-.4-.359-.4s-.389.143-.389.425a.771.771,0,0,0,.85.639,2.273,2.273,0,0,0,2.069-2.49c0-1.619-1.047-1.745-1.368-1.745a1.346,1.346,0,0,0-1.362,1.384,1.144,1.144,0,0,0,1.112,1.249,1.2,1.2,0,0,0,.863-.341C196.234,221.2,195.871,221.945,195.27,221.945Zm.466-1.665c-.295,0-.6-.105-.6-.889,0-.609.2-.918.6-.918.32,0,.664.3.664.968S195.983,220.281,195.736,220.281Z"/><path class="c" d="M199.668,221.945c-.217,0-.269-.06-.29-.1a.889.889,0,0,1-.046-.153c-.04-.17-.1-.4-.359-.4s-.389.143-.389.425a.771.771,0,0,0,.85.639,2.273,2.273,0,0,0,2.069-2.49c0-1.619-1.047-1.745-1.368-1.745a1.345,1.345,0,0,0-1.362,1.384,1.144,1.144,0,0,0,1.112,1.249,1.2,1.2,0,0,0,.863-.341C200.633,221.2,200.269,221.945,199.668,221.945Zm.466-1.665c-.294,0-.6-.105-.6-.889,0-.609.2-.918.6-.918.32,0,.665.3.665.968S200.381,220.281,200.134,220.281Z"/><path class="c" d="M204.271,219.01a1.8,1.8,0,0,0,1.581-.743l.03-.057-.214-.18-.052.04a1.138,1.138,0,0,1-.8.282.942.942,0,0,1-.679-.192l-.024-.027h-.29l-.465,2.039.38.075.023-.067a.639.639,0,0,1,.617-.357c.216,0,.579.066.579.506,0,.118-.02,1.155-.721,1.155a.565.565,0,0,1-.448-.145.335.335,0,0,1,.035-.161.434.434,0,0,0,.045-.2.307.307,0,0,0-.326-.329.423.423,0,0,0-.44.442c0,.436.48.752,1.14.752a1.375,1.375,0,0,0,1.471-1.226,1.166,1.166,0,0,0-1.232-1.17,1.539,1.539,0,0,0-.608.131l.147-.573C204.086,219.008,204.187,219.01,204.271,219.01Z"/><path class="c" d="M162.421,216.245a.406.406,0,0,0-.408-.4H146.2a.4.4,0,1,0,0,.808h15.812A.406.406,0,0,0,162.421,216.245Z"/><path class="c" d="M146.2,224.866h15.812a.4.4,0,1,0,0-.808H146.2a.4.4,0,1,0,0,.808Z"/><path class="c" d="M205.619,267.279H146.138a.342.342,0,1,0,0,.683h59.482a.342.342,0,1,0,0-.683Z"/><path class="c" d="M205.964,276.284a.343.343,0,0,0-.345-.341H146.138a.342.342,0,1,0,0,.683h59.482A.343.343,0,0,0,205.964,276.284Z"/><path class="c" d="M206.321,216.245a.406.406,0,0,0-.408-.4H190.1a.4.4,0,1,0,0,.808h15.813A.406.406,0,0,0,206.321,216.245Z"/><path class="c" d="M190.1,224.866h15.813a.4.4,0,1,0,0-.808H190.1a.4.4,0,1,0,0,.808Z"/><path class="c" d="M147.9,270.635l.1,0v-.439h-2.189v.436l.1.006a1.359,1.359,0,0,1,.381.081.758.758,0,0,1,.26.275c.222.356.459.746.695,1.178h0a.8.8,0,0,1,.137.311v.763l-.019.083a.121.121,0,0,1-.072.05c-.006,0-.041.009-.084.014-.136.018-.369.04-.451.045l-.1.006v.436h2.354v-.437l-.1-.006c-.051,0-.178-.02-.293-.04-.058-.01-.114-.02-.158-.029l-.055-.012-.021-.006a.168.168,0,0,1-.079-.055l-.018-.073v-.5a1.1,1.1,0,0,1,.1-.49,7.987,7.987,0,0,1,.864-1.3,1.607,1.607,0,0,1,.125-.132.509.509,0,0,1,.122-.078h0a1.119,1.119,0,0,1,.165-.05,1.765,1.765,0,0,1,.182-.036l.1-.009v-.433h-1.793v.434l.1.008a2.212,2.212,0,0,1,.373.06.463.463,0,0,1,.116.046h0a.99.99,0,0,1-.059.113c-.108.188-.331.529-.613.955-.191-.313-.354-.58-.471-.78-.068-.115-.121-.209-.157-.276l-.025-.051a1.263,1.263,0,0,1,.2-.042C147.723,270.646,147.834,270.637,147.9,270.635Z"/><path class="c" d="M153.312,270.656h0a2.025,2.025,0,0,0-2.789,0h0a1.863,1.863,0,0,0-.565,1.418,1.792,1.792,0,0,0,.619,1.385h0a1.9,1.9,0,0,0,1.309.511,1.973,1.973,0,0,0,1.375-.519h0a1.981,1.981,0,0,0,.052-2.8h0Zm-.69,2.439a.832.832,0,0,1-1.427-.008,2.035,2.035,0,0,1-.238-1.04,1.986,1.986,0,0,1,.263-1.1.787.787,0,0,1,.687-.368.8.8,0,0,1,.738.434,2.11,2.11,0,0,1,.219,1.013A2.063,2.063,0,0,1,152.623,273.094Z"/><path class="c" d="M155.8,270.747a.113.113,0,0,1,.068-.045h0a2.478,2.478,0,0,1,.411-.073l.1-.006v-.429h-2.117v.436l.1.007a1.737,1.737,0,0,1,.394.083c.082.042.1.075.1.131v2.011a.988.988,0,0,0,.414.787,1.894,1.894,0,0,0,1.162.333,1.731,1.731,0,0,0,1.013-.3,1.169,1.169,0,0,0,.485-.982v-1.384a2.261,2.261,0,0,1,.023-.391c.018-.107.055-.161.078-.171h0a1.021,1.021,0,0,1,.244-.073,2.255,2.255,0,0,1,.268-.041l.1-.006v-.436H156.62v.426l.1.009a2.415,2.415,0,0,1,.3.055,1.152,1.152,0,0,1,.27.094h0a.259.259,0,0,1,.078.154,1.721,1.721,0,0,1,.04.409v1.319a.793.793,0,0,1-.153.483.819.819,0,0,1-.7.272.729.729,0,0,1-.656-.254.874.874,0,0,1-.121-.5v-1.833Z"/><path class="c" d="M159.494,273.33a.131.131,0,0,1-.073.048c-.023.007-.105.022-.189.033s-.179.023-.231.026l-.1.006v.436h2.117v-.436l-.1-.006c-.052,0-.145-.014-.23-.026a1.643,1.643,0,0,1-.182-.033H160.5a.1.1,0,0,1-.068-.043l-.018-.082v-.97h.137a.777.777,0,0,1,.692.548h0a4.906,4.906,0,0,1,.3.965l.019.085h1.477v-.443h-.108a1.723,1.723,0,0,1-.318-.032h0a.316.316,0,0,1-.138-.058.388.388,0,0,1-.1-.179h0c-.032-.1-.125-.314-.212-.515h0a1.179,1.179,0,0,0-.679-.622,1.772,1.772,0,0,0,.413-.217.869.869,0,0,0,.4-.7.813.813,0,0,0-.429-.7,1.659,1.659,0,0,0-.838-.216H158.9v.436l.1.006a2.874,2.874,0,0,1,.423.074h0a.1.1,0,0,1,.068.043.166.166,0,0,1,.018.088v2.41Zm.917-2.681h.295a.662.662,0,0,1,.41.1.513.513,0,0,1,.165.444.563.563,0,0,1-.2.482.812.812,0,0,1-.493.138h-.173Z"/><path class="c" d="M165.511,273.46h0a1.9,1.9,0,0,0,1.309.511,1.973,1.973,0,0,0,1.375-.519h0a1.98,1.98,0,0,0,.052-2.8h0a2.025,2.025,0,0,0-2.789,0h0a1.865,1.865,0,0,0-.565,1.418A1.792,1.792,0,0,0,165.511,273.46Zm.645-2.514a.786.786,0,0,1,.687-.368.8.8,0,0,1,.738.434,2.105,2.105,0,0,1,.219,1.013,2.067,2.067,0,0,1-.241,1.069.832.832,0,0,1-1.427-.008,2.031,2.031,0,0,1-.238-1.04A1.983,1.983,0,0,1,166.156,270.946Z"/><path class="c" d="M170.616,270.192H169v.436l.1.007a1.843,1.843,0,0,1,.358.076,1.278,1.278,0,0,1,.291.118.408.408,0,0,1,.12.3v1.6a1.883,1.883,0,0,1-.035.418.27.27,0,0,1-.09.17h0a.538.538,0,0,1-.079.029,2.725,2.725,0,0,1-.427.095l-.1.006v.436h2.1v-.436l-.1-.006a2.759,2.759,0,0,1-.326-.061c-.069-.016-.137-.034-.19-.05l-.066-.023-.019-.009,0,0a.312.312,0,0,1-.089-.175,1.8,1.8,0,0,1-.04-.423v-1.381l2.026,2.615h.529v-2.6a2.111,2.111,0,0,1,.026-.4c.021-.1.055-.155.086-.172a.531.531,0,0,1,.083-.031,2.566,2.566,0,0,1,.422-.089l.1-.006v-.436h-2.081v.432l.1.01a3.158,3.158,0,0,1,.312.056,1.422,1.422,0,0,1,.3.1h0c.034.016.067.06.088.163a2.156,2.156,0,0,1,.025.4v1.186Z"/><path class="c" d="M174.457,273.328a.138.138,0,0,1-.073.05,3.092,3.092,0,0,1-.44.059l-.1.006v.436h3.381l.009-.1.119-1.322h-.424l-.023.077a2.4,2.4,0,0,1-.433.76.908.908,0,0,1-.606.132.809.809,0,0,1-.421-.061.134.134,0,0,1-.049-.078.74.74,0,0,1-.019-.2v-2.261a.127.127,0,0,1,.092-.126,2.112,2.112,0,0,1,.462-.073l.1-.006v-.436h-2.167v.436l.1.006a1.966,1.966,0,0,1,.411.092h.006a.136.136,0,0,1,.074.051.15.15,0,0,1,.02.084v2.389Z"/><path class="c" d="M178.063,273.385a1.9,1.9,0,0,1-.2.03c-.093.011-.191.019-.242.023l-.1.007v.436h2.167v-.436l-.1-.006c-.047,0-.152-.018-.245-.036l-.127-.026-.044-.011-.013,0h-.005a.173.173,0,0,1-.077-.052l-.02-.07V270.82l.019-.078.063-.038h.007a3.084,3.084,0,0,1,.443-.067l.1-.006v-.436h-2.167v.436l.1.007a3.173,3.173,0,0,1,.44.087.14.14,0,0,1,.074.049l.018.071v2.424A.11.11,0,0,1,178.063,273.385Z"/><path class="c" d="M181.452,270.192h-1.616v.436l.1.007a1.83,1.83,0,0,1,.358.076,1.26,1.26,0,0,1,.291.118.408.408,0,0,1,.121.3v1.6a1.905,1.905,0,0,1-.035.418.27.27,0,0,1-.089.17h0a.54.54,0,0,1-.079.029,2.725,2.725,0,0,1-.427.095l-.1.006v.436h2.1v-.436l-.1-.006a2.761,2.761,0,0,1-.326-.061c-.069-.016-.137-.034-.189-.05l-.066-.023-.02-.009,0,0a.312.312,0,0,1-.089-.175,1.779,1.779,0,0,1-.04-.423v-1.381l2.026,2.615h.529v-2.6a2.143,2.143,0,0,1,.027-.4c.02-.1.055-.155.086-.172a.524.524,0,0,1,.084-.031,2.561,2.561,0,0,1,.422-.089l.1-.006v-.436h-2.08v.432l.1.01a3.14,3.14,0,0,1,.312.056,1.422,1.422,0,0,1,.3.1h0c.034.016.066.06.088.163a2.187,2.187,0,0,1,.025.4v1.186Z"/><path class="c" d="M185.292,273.333a.111.111,0,0,1-.068.043h0a1.5,1.5,0,0,1-.212.035c-.094.012-.192.021-.243.024l-.1.007v.436h3.5l.008-.1.1-1.243h-.411l-.025.072a3.185,3.185,0,0,1-.169.36,1.547,1.547,0,0,1-.241.352l0,0,0,0a.456.456,0,0,1-.249.075c-.132.014-.3.015-.481.015a.842.842,0,0,1-.417-.054.122.122,0,0,1-.046-.075.816.816,0,0,1-.019-.206V272.2h.244c.261,0,.319.067.372.121a.672.672,0,0,1,.072.165,1.047,1.047,0,0,1,.052.246l0,.1h.435v-1.691h-.43l-.01.1a1.313,1.313,0,0,1-.047.232.463.463,0,0,1-.072.159.289.289,0,0,1-.1.069.716.716,0,0,1-.274.042h-.244v-1.1h.446a4.3,4.3,0,0,1,.462.028.232.232,0,0,1,.1.052,1.24,1.24,0,0,1,.346.485l.023.076h.4v-1.092h-3.318v.436l.1.007c.047,0,.141.015.232.031a1.251,1.251,0,0,1,.215.053.184.184,0,0,1,.08.058l.02.071v2.4A.145.145,0,0,1,185.292,273.333Z"/><path class="c" d="M192.211,270.578a.879.879,0,0,1,.678.308,1.727,1.727,0,0,1,.362.737l.02.082h.412l-.033-1.563h-.408l-.124.182a1.551,1.551,0,0,0-.761-.218,1.932,1.932,0,0,0-1.979,1.969,1.914,1.914,0,0,0,.515,1.371,1.845,1.845,0,0,0,1.349.527,1.679,1.679,0,0,0,1.612-1.107l.039-.094-.329-.159-.1-.047-.046.1a1.426,1.426,0,0,1-.384.538.956.956,0,0,1-.618.185.938.938,0,0,1-.743-.359,1.549,1.549,0,0,1-.307-.989,2.018,2.018,0,0,1,.265-1.139A.683.683,0,0,1,192.211,270.578Z"/><path class="c" d="M196.27,273.4c-.1.017-.2.027-.275.032l-.1.007v.436h2.145v-.429l-.093-.013c-.049-.007-.128-.019-.205-.035a.926.926,0,0,1-.186-.054h0a.279.279,0,0,1-.147-.158c-.189-.467-.713-1.712-1.245-2.981l-.028-.066h-.469l-.028.066c-.4.942-.828,1.982-1.208,2.829h0a.664.664,0,0,1-.241.313.943.943,0,0,1-.18.052,1.647,1.647,0,0,1-.22.034l-.1.006v.436H195.6v-.431l-.1-.011a2.809,2.809,0,0,1-.385-.067.667.667,0,0,1-.156-.059l-.023-.018a.824.824,0,0,1,.051-.228c.043-.128.072-.2.137-.362h1.106l.251.6a.384.384,0,0,1,.013.039h0A.844.844,0,0,1,196.27,273.4Zm-.948-1.173.351-.857.355.857Z"/><path class="c" d="M198.675,273.33a.13.13,0,0,1-.073.048c-.023.007-.105.022-.189.033s-.179.023-.231.026l-.1.006v.436H200.2v-.436l-.1-.006c-.052,0-.145-.014-.23-.026a1.608,1.608,0,0,1-.182-.033h-.005a.106.106,0,0,1-.069-.043l-.018-.082v-.97h.137a.777.777,0,0,1,.691.548h0a4.965,4.965,0,0,1,.3.965l.018.085h1.477v-.443H202.1a1.719,1.719,0,0,1-.317-.032h0a.313.313,0,0,1-.138-.058.392.392,0,0,1-.1-.179h0c-.032-.1-.125-.314-.212-.515h0a1.179,1.179,0,0,0-.679-.622,1.781,1.781,0,0,0,.413-.217.869.869,0,0,0,.4-.7.814.814,0,0,0-.429-.7,1.656,1.656,0,0,0-.838-.216h-2.116v.436l.1.006a2.87,2.87,0,0,1,.424.074h0a.1.1,0,0,1,.068.043.175.175,0,0,1,.018.088v2.41Zm.918-2.681h.295a.662.662,0,0,1,.41.1.515.515,0,0,1,.165.444.563.563,0,0,1-.2.482.812.812,0,0,1-.493.138h-.173Z"/><path class="c" d="M204.456,270.642a2.87,2.87,0,0,1,.353.021.248.248,0,0,1,.115.073,1.973,1.973,0,0,1,.414.748l.023.078h.391v-1.37h-3.584v1.37h.382l.024-.075a2.505,2.505,0,0,1,.258-.54,1.251,1.251,0,0,1,.164-.21.244.244,0,0,1,.114-.075,3.157,3.157,0,0,1,.361-.021h.035v2.6l-.02.082a.133.133,0,0,1-.072.052s-.036.008-.078.013c-.133.018-.366.04-.448.045l-.1.006v.436h2.347v-.436l-.1-.007c-.044,0-.17-.02-.285-.04l-.159-.029-.056-.012-.017,0h-.005c-.078-.034-.091-.064-.1-.128v-2.581Z"/><path class="c" d="M145.392,257.933c.384,4.432,2.31,7.6,5.756,6.215,4.538-1.824,7.039-8.863,7.32-15.027a.335.335,0,0,0,.117.062c.208-.317.351-.491.477-.542.228-.092.377.111.315.6l-1.14,11.674a1.869,1.869,0,0,0,1.223-.112,3.135,3.135,0,0,0,1.974-2.634l.85-8.666a5.552,5.552,0,0,1,2.128-2.374c.557-.224.953.113.828,1.39l-.578,6.045c-.348,3.557,1.056,3.723,2.323,3.213a9.622,9.622,0,0,0,4.041-4.1c.437,1.556,1.6,1.832,2.965,1.284a11.552,11.552,0,0,0,5.118-5.15c-.08,2.383,1.365,2.544,2.568,2.06a8.976,8.976,0,0,0,3.7-3.539l-.17,1.741a1.869,1.869,0,0,0,1.223-.112,3.135,3.135,0,0,0,1.974-2.634l.849-8.667a5.549,5.549,0,0,1,2.128-2.374c.557-.224.954.113.828,1.39l-.578,6.045c-.348,3.557,1.056,3.723,2.323,3.213a9.576,9.576,0,0,0,4.02-4.065c.773,1.437,2.131,1.592,3.773.932,2.23-.9,4.41-3.584,4.275-5.136-.041-.48-.345-.65-.826-.456a3.772,3.772,0,0,1-2.217,2.556,1.6,1.6,0,0,1-2.385-1.2c4.629-4.986,5.6-7.364,5.4-9.763-.11-1.27-.818-2.476-3.123-1.549-4.181,1.681-5.852,8.428-5.534,12.1a9.049,9.049,0,0,0,.218,1.371,5.682,5.682,0,0,1-2.1,1.841c-.507.2-.866,0-.785-.882l.68-6.991c.326-3.2-.74-4-2.082-3.457a8.514,8.514,0,0,0-3.911,4.494l.144-1.372c.135-1.165-.439-1.43-1.351-1.064a6.761,6.761,0,0,0-2.721,2.5c-.468.656-.215,1.459.134,1.552.209-.317.351-.491.477-.543.228-.091.377.112.315.6l-.763,7.813a6.183,6.183,0,0,1-2.413,2.285c-.659.265-1.108-.081-.941-1.784l.84-8.778c.11-1.154-.439-1.43-1.35-1.064a6.76,6.76,0,0,0-2.721,2.5c-.468.656-.215,1.459.134,1.552.209-.317.351-.491.478-.542.228-.092.351.122.314.6l-.559,5.965a.524.524,0,0,0-.213.07,7.464,7.464,0,0,1-3.648,4.5c-.887.357-1.595.056-1.544-1.483,0-.348.015-.736.036-1.095,2.788-6.875,4.044-12.053,3.853-14.254-.127-1.468-1.034-1.95-2.225-1.471-3.319,1.335-4.5,8-4.78,18.687,0,.1,0,.189,0,.283a6.108,6.108,0,0,1-2.369,2.217c-.507.2-.865,0-.784-.882l.68-6.991c.326-3.2-.74-4-2.082-3.457a8.511,8.511,0,0,0-3.911,4.493l.143-1.372c.135-1.164-.439-1.43-1.351-1.063a6.673,6.673,0,0,0-2.679,2.439c-.009-.524-.032-1.038-.075-1.537-.339-3.924-2.125-6.681-5.622-5.275C147.346,242.952,144.856,251.752,145.392,257.933Zm57.84-27.546c.431-.173.774.156.83.805.159,1.834-1.342,4.483-3.651,7.193C200.316,236.378,200.724,231.395,203.232,230.387Zm-27.271,4.626c.278-.112.443-.033.484.447.083.96-.507,5.345-2.339,10.842C174.453,240,175.125,235.348,175.962,235.012Zm-22.825,7.89c1.419-.57,2.711.721,3,4.08.645,7.452-1.931,12.225-4.135,13.112-1.85.743-2.841-1.312-3.092-4.22C148.505,251.19,150.071,244.135,153.136,242.9Z"/><path class="c" d="M181.9,235.077a3.265,3.265,0,0,0,1.805-2.77c.006-1.141-.8-1.721-1.793-1.324a3.117,3.117,0,0,0-1.755,2.75C180.1,234.895,180.914,235.474,181.9,235.077Z"/><path class="c" d="M165.9,216.152a2.013,2.013,0,0,0-.369,1.754l1.984,7.723a2.053,2.053,0,0,0,1.994,1.536h13.3a2.053,2.053,0,0,0,1.994-1.536l1.984-7.723a2.013,2.013,0,0,0-.369-1.754h0a2.054,2.054,0,0,0-1.625-.788H167.527A2.054,2.054,0,0,0,165.9,216.152Zm.869.67a.952.952,0,0,1,.756-.366h1.453l.479,2.525h-2.515l-.345-1.343a.932.932,0,0,1,.172-.815Zm6.741-.366.147,2.525h-3.419l-.479-2.525Zm.768,0h3.686l-.147,2.525h-3.392Zm4.307,2.525.147-2.525h3.547l-.368,2.525Zm-.262,4.509h2.929l-.378,2.585h-2.7Zm-6.738,2.585-.491-2.585h2.825l.15,2.585ZM169.6,219.74l.567,2.988h-2.264l-.768-2.988Zm4.1,0,.174,2.988h-2.926l-.567-2.988Zm3.9,2.988h-2.955l-.174-2.988h3.3Zm4.2-2.988-.436,2.988h-3l.174-2.988Zm.339,2.988.436-2.988h2.607l-.767,2.988Zm-11.825.76.491,2.585h-1.3a.954.954,0,0,1-.927-.714l-.481-1.871Zm4.524,2.585-.15-2.585h2.867l-.15,2.585Zm7.973,0h-1.16l.377-2.585h2.191l-.48,1.871A.955.955,0,0,1,182.813,226.074Zm2.739-9.252a.936.936,0,0,1,.172.815h0l-.345,1.343h-2.691l.368-2.525h1.74a.951.951,0,0,1,.756.366Z"/><path class="c" d="M166.977,214.547a.548.548,0,0,0,.55.546H184.8a.546.546,0,1,0,0-1.091h-3.809l-2.643-6.047h0a.552.552,0,0,0-.505-.328.559.559,0,0,0-.218.045h0a.543.543,0,0,0-.287.717h0L179.788,214h-7.253l2.454-5.613h0a.537.537,0,0,0,.046-.216.546.546,0,0,0-.332-.5h0a.559.559,0,0,0-.218-.045.551.551,0,0,0-.5.329l0,.008L171.336,214h-3.809A.548.548,0,0,0,166.977,214.547Z"/></g></g></svg>