<svg xmlns="http://www.w3.org/2000/svg" width="69" height="62" viewBox="0 0 69 62"><defs><style>.a{fill:#877d5c;}.b{fill:#d6d5d6;}.c{fill:#999591;}</style></defs><g transform="translate(-594 -2774)"><path class="a" d="M139.923,73.406a.4.4,0,0,0,.393.4h67.906a.4.4,0,0,0,0-.792H140.316A.4.4,0,0,0,139.923,73.406Z" transform="translate(454.125 2755.647)"/><path class="a" d="M142.316,77.235a2.512,2.512,0,0,1,.316.019l.089.061a1.8,1.8,0,0,1,.367.674l.025.09h.4V76.77h-3.29v1.309h.39l.027-.086a2.284,2.284,0,0,1,.23-.489,1.135,1.135,0,0,1,.145-.188.21.21,0,0,1,.088-.061,2.771,2.771,0,0,1,.323-.019h.006V79.6l-.014.061-.052.037c-.019.006-.12.02-.216.029s-.205.02-.252.023l-.116.007V80.2h2.172v-.45l-.116-.008c-.037,0-.152-.019-.255-.036l-.143-.026-.05-.011-.015,0h0c-.061-.028-.064-.043-.069-.092V77.235Z" transform="translate(454.125 2755.647)"/><path class="a" d="M145.235,78.739a.677.677,0,0,1,.6.486,4.548,4.548,0,0,1,.266.881l.021.1h2.765V79.76l-.11-.013a2.519,2.519,0,0,1-.344-.061.547.547,0,0,1-.134-.052l-.008-.006a.823.823,0,0,1,.043-.19c.037-.112.063-.175.117-.314h.964l.217.528,0,.019a.791.791,0,0,1-.156.042,2.611,2.611,0,0,1-.265.033l-.115.008v.45h3.641a2.316,2.316,0,0,0,1.361-.413,1.547,1.547,0,0,0,.642-1.289,1.581,1.581,0,0,0-.7-1.376,2.229,2.229,0,0,0-1.2-.357h-1.769v.45l.115.008a2.017,2.017,0,0,1,.378.072c.059.026.061.04.067.1v2.212l-.013.059-.047.031a1.728,1.728,0,0,1-.179.027c-.084.01-.174.018-.223.021l-.116.007v0l-.067-.009c-.044-.006-.115-.017-.184-.032a.837.837,0,0,1-.162-.048h0a.227.227,0,0,1-.12-.131c-.171-.428-.644-1.571-1.125-2.735l-.032-.076H148.9l-.032.076c-.358.864-.748,1.818-1.091,2.595h0a.585.585,0,0,1-.207.274.816.816,0,0,1-.155.045c-.054.012-.106.02-.149.025a1.021,1.021,0,0,1-.169-.023h0a.268.268,0,0,1-.114-.048.341.341,0,0,1-.085-.153h0c-.031-.09-.113-.289-.192-.473h0a1.062,1.062,0,0,0-.572-.555,1.626,1.626,0,0,0,.323-.183.826.826,0,0,0,.37-.665.775.775,0,0,0-.4-.668,1.5,1.5,0,0,0-.77-.2h-1.938v.451l.116.007a2.5,2.5,0,0,1,.377.067h0l.046.028.013.068V79.6l-.012.057-.053.033a1.67,1.67,0,0,1-.166.03c-.077.011-.161.021-.206.024l-.116.007V80.2h1.963v-.451l-.116-.007c-.046,0-.13-.013-.206-.024a1.431,1.431,0,0,1-.159-.029H145.2l-.047-.028-.012-.061v-.863Zm7.262-1.488c.072,0,.143,0,.2,0a1.012,1.012,0,0,1,.8.343,1.377,1.377,0,0,1,.3.913,1.483,1.483,0,0,1-.232.895.862.862,0,0,1-.743.322.428.428,0,0,1-.265-.058c-.034-.028-.051-.063-.053-.151Zm-3.568.7.282.691h-.561Zm-3.791.312v-1.02h.24a.574.574,0,0,1,.355.091.451.451,0,0,1,.139.387.5.5,0,0,1-.174.422.7.7,0,0,1-.43.121Z" transform="translate(454.125 2755.647)"/><path class="a" d="M155.606,79.7c-.013,0-.1.017-.176.026s-.172.018-.218.021l-.116.008v.45h2.009v-.451l-.116-.007c-.04,0-.135-.017-.218-.032l-.114-.024-.039-.01-.01,0h0l-.058-.039-.013-.048V77.372l.013-.057.041-.024h.008a2.684,2.684,0,0,1,.394-.06l.116-.007V76.77H155.1v.45l.116.008a2.825,2.825,0,0,1,.39.079l.055.035.012.051v2.224C155.663,79.666,155.66,79.677,155.606,79.7Z" transform="translate(454.125 2755.647)"/><path class="a" d="M161.461,77.22V76.77h-1.932v.446l.111.012a2.706,2.706,0,0,1,.279.051,1.265,1.265,0,0,1,.267.085h0c.021.009.047.04.066.132a2.035,2.035,0,0,1,.022.366v1.011l-1.59-2.1h-1.5v.45l.115.008a1.614,1.614,0,0,1,.318.068,1.15,1.15,0,0,1,.255.1.355.355,0,0,1,.1.252v1.465a1.711,1.711,0,0,1-.031.378.226.226,0,0,1-.07.14h0a1.472,1.472,0,0,1-.214.065,1.867,1.867,0,0,1-.231.045l-.116.007V80.2h1.944v-.451l-.116-.007a2.616,2.616,0,0,1-.291-.055c-.061-.015-.122-.031-.169-.045l-.058-.02-.015-.006a.27.27,0,0,1-.07-.146,1.629,1.629,0,0,1-.036-.382V77.9l1.792,2.349h.516V77.836a2,2,0,0,1,.024-.361c.018-.091.048-.131.066-.14l.07-.026a2.322,2.322,0,0,1,.375-.081Z" transform="translate(454.125 2755.647)"/><path class="a" d="M163.352,77.175a.885.885,0,0,1,.631.239,1.6,1.6,0,0,1,.39.659l.029.083h.41l-.039-1.433h-.4l-.109.166a1.611,1.611,0,0,0-.728-.2,1.961,1.961,0,0,0-1.39.534,1.828,1.828,0,0,0-.542,1.324,1.768,1.768,0,0,0,.505,1.282,1.555,1.555,0,0,0,1.082.459,2.728,2.728,0,0,0,1.021-.215l.223.23.047.048.228-.046.1-.02V79.118c0-.06.015-.086.063-.106h0a1.294,1.294,0,0,1,.176-.041c.077-.015.153-.027.2-.039l.1-.022v-.42h-2.062v.451l.116.007a2.941,2.941,0,0,1,.525.08l.043.029a.261.261,0,0,1,.012.1v.218a.423.423,0,0,1-.145.29.726.726,0,0,1-1.026-.213,1.657,1.657,0,0,1-.253-.936,1.819,1.819,0,0,1,.251-1.025A.649.649,0,0,1,163.352,77.175Z" transform="translate(454.125 2755.647)"/><path class="a" d="M171.038,79.7c-.012,0-.1.017-.177.026s-.172.018-.218.021l-.115.008v.45h3.712V79.76l-.11-.013a2.507,2.507,0,0,1-.344-.061.544.544,0,0,1-.135-.052l-.007-.006a.79.79,0,0,1,.043-.189c.037-.113.063-.175.117-.314h.964l.218.528,0,.019a.791.791,0,0,1-.156.042,2.6,2.6,0,0,1-.265.033l-.115.008v.45h1.99v-.442l-.107-.016c-.044-.006-.115-.017-.183-.032a.811.811,0,0,1-.161-.048h0a.228.228,0,0,1-.12-.131c-.171-.428-.644-1.571-1.125-2.735l-.032-.076h-.457l-.032.076c-.358.864-.747,1.818-1.091,2.595h0a.582.582,0,0,1-.207.274.8.8,0,0,1-.155.045,1.585,1.585,0,0,1-.2.031l-.076,0-.077,0c-.04,0-.135-.017-.219-.032l-.113-.024-.039-.01-.011,0h0l-.058-.038-.013-.049V77.372l.013-.057.041-.024h.008a2.693,2.693,0,0,1,.394-.06l.116-.007V76.77h-3.7v.448l.113.01a1.941,1.941,0,0,1,.358.062.464.464,0,0,1,.12.05l.006,0a.935.935,0,0,1-.1.329c-.129.289-.336.771-.58,1.318-.321-.844-.565-1.49-.632-1.669l-.008-.031a.761.761,0,0,1,.14-.036,1.939,1.939,0,0,1,.249-.027l.119,0V76.77h-1.97v.451l.116.007a1.049,1.049,0,0,1,.338.076.272.272,0,0,1,.14.167c.4,1.044.578,1.522,1.026,2.693l.03.08h.438l.033-.073c.376-.849.987-2.177,1.183-2.61a.485.485,0,0,1,.183-.254h0a1.176,1.176,0,0,1,.321-.077l.085-.006.092.006a2.788,2.788,0,0,1,.39.079l.055.035.012.051v2.224C171.1,79.666,171.094,79.677,171.038,79.7Zm3.242-1.75.283.691H174Z" transform="translate(454.125 2755.647)"/><path class="a" d="M179.7,77.175a.766.766,0,0,1,.593.274,1.57,1.57,0,0,1,.321.665l.023.1h.419l-.032-1.486h-.408l-.106.157a1.422,1.422,0,0,0-.68-.19,1.8,1.8,0,0,0-1.3.533,1.844,1.844,0,0,0-.512,1.3,1.8,1.8,0,0,0,.472,1.276,1.681,1.681,0,0,0,1.238.491,1.544,1.544,0,0,0,1.479-1.032l.045-.109-.32-.156-.113-.055-.053.115a1.277,1.277,0,0,1-.34.484.827.827,0,0,1-.542.164.816.816,0,0,1-.651-.319,1.41,1.41,0,0,1-.272-.891,1.851,1.851,0,0,1,.235-1.03A.591.591,0,0,1,179.7,77.175Z" transform="translate(454.125 2755.647)"/><path class="a" d="M184.471,79.807h0a1.862,1.862,0,0,0,.047-2.6h0a1.834,1.834,0,0,0-2.555,0h0a1.746,1.746,0,0,0-.518,1.318,1.681,1.681,0,0,0,.568,1.29l0,0a1.732,1.732,0,0,0,1.2.475,1.8,1.8,0,0,0,1.259-.484Zm-.616-.363a.72.72,0,0,1-1.245-.006,1.863,1.863,0,0,1-.211-.941,1.816,1.816,0,0,1,.233-.995.682.682,0,0,1,.6-.327.691.691,0,0,1,.644.385,1.935,1.935,0,0,1,.195.917A1.892,1.892,0,0,1,183.856,79.444Z" transform="translate(454.125 2755.647)"/><path class="a" d="M189.614,77.31l.032-.022a1.693,1.693,0,0,1,.2-.035c.087-.012.179-.022.226-.025l.116-.007V76.77h-1.609l-.01.114a1.429,1.429,0,0,1-.1.353h0l-.672,1.637-.847-2.1H185.24v.453l.118.005a2.126,2.126,0,0,1,.274.035.8.8,0,0,1,.224.069c.04.024.086.1.086.255v1.538a1.62,1.62,0,0,1-.033.378.225.225,0,0,1-.073.139.8.8,0,0,1-.213.067c-.1.02-.189.034-.244.045l-.1.02V80.2h1.9v-.45l-.116-.008a1.935,1.935,0,0,1-.256-.052c-.055-.014-.108-.03-.152-.045l-.075-.031a.27.27,0,0,1-.074-.143,1.47,1.47,0,0,1-.038-.37V77.784l.672,1.656h0a5.131,5.131,0,0,1,.229.612l.024.094h.379l.965-2.234v1.678l-.014.057-.061.045h0a1.387,1.387,0,0,1-.2.034c-.088.01-.179.017-.225.02l-.116.007V80.2h2.055v-.451l-.116-.007c-.042,0-.136-.016-.221-.03l-.116-.023-.04-.01-.012,0h0a.087.087,0,0,1-.058-.089V77.378Z" transform="translate(454.125 2755.647)"/><path class="a" d="M191.04,79.66l-.052.033c-.018.006-.092.019-.166.03s-.161.021-.207.024l-.116.007V80.2h2.055v-.453l-.118-.006c-.064,0-.17-.013-.265-.024l-.128-.017-.061-.012h-.006l-.047-.029-.012-.061v-.7h.234a1.568,1.568,0,0,0,.94-.312,1.072,1.072,0,0,0,.445-.852.887.887,0,0,0-.355-.709,1.333,1.333,0,0,0-.822-.259h-1.879v.451l.116.007a2.588,2.588,0,0,1,.4.068l.045.029.013.067V79.6Zm.877-2.42h.169a.424.424,0,0,1,.39.185.789.789,0,0,1,.1.423.646.646,0,0,1-.1.38.539.539,0,0,1-.474.189h-.085Z" transform="translate(454.125 2755.647)"/><path class="a" d="M195.2,77.319l.047-.031h0a2.2,2.2,0,0,1,.365-.066l.116-.007V76.77h-1.963v.45l.115.008a1.559,1.559,0,0,1,.347.074c.067.036.074.056.077.1v1.845a.937.937,0,0,0,.385.742,1.717,1.717,0,0,0,1.065.312,1.575,1.575,0,0,0,.93-.282,1.1,1.1,0,0,0,.448-.922V77.823a2.121,2.121,0,0,1,.021-.354c.016-.1.049-.137.058-.138h0a.912.912,0,0,1,.213-.064,2.146,2.146,0,0,1,.239-.037l.116-.007V76.77h-1.893v.44l.112.011a2.165,2.165,0,0,1,.263.05,1.024,1.024,0,0,1,.237.083h0l.021.027a1.076,1.076,0,0,1,.071.466v1.21a.64.64,0,0,1-.741.667.628.628,0,0,1-.571-.222.783.783,0,0,1-.1-.445V77.378Z" transform="translate(454.125 2755.647)"/><path class="a" d="M197.819,78.078h.39l.027-.087a2.268,2.268,0,0,1,.23-.488,1.135,1.135,0,0,1,.145-.188.21.21,0,0,1,.088-.061,2.777,2.777,0,0,1,.323-.019h.006V79.6l-.014.061-.052.037c-.019.006-.119.02-.216.029s-.205.02-.253.023l-.116.007V80.2h2.172v-.45l-.116-.008c-.037,0-.152-.019-.255-.036l-.143-.026-.05-.011-.015,0h0c-.061-.029-.064-.043-.07-.093V77.235h.013a2.517,2.517,0,0,1,.316.019l.089.061a1.8,1.8,0,0,1,.367.675l.026.09h.4V76.77h-3.29Z" transform="translate(454.125 2755.647)"/><path class="a" d="M204.5,80.09l.1-1.168h-.417l-.029.083a2.8,2.8,0,0,1-.152.326,1.387,1.387,0,0,1-.212.316l0,0,0,0a.392.392,0,0,1-.209.061,4.3,4.3,0,0,1-.431.013.753.753,0,0,1-.362-.045l-.031-.054a.72.72,0,0,1-.016-.182v-.785h.195c.231,0,.272.057.317.1h0a.7.7,0,0,1,.064.156.906.906,0,0,1,.041.2l.006.118h.443v-1.6h-.437l-.011.112a1.173,1.173,0,0,1-.042.208.421.421,0,0,1-.059.135l-.084.058a.624.624,0,0,1-.238.036h-.195v-.955h.377a3.9,3.9,0,0,1,.414.025l.074.043a1.118,1.118,0,0,1,.3.432l.026.089h.4V76.77h-3.05v.45l.116.008c.04,0,.125.014.206.029a1.13,1.13,0,0,1,.188.046l.061.045.013.051V79.6l-.012.061-.048.029h0a1.445,1.445,0,0,1-.187.031c-.085.01-.173.019-.218.022l-.116.008v.45h3.209Z" transform="translate(454.125 2755.647)"/><path class="a" d="M206.381,78.739a.678.678,0,0,1,.6.486,4.578,4.578,0,0,1,.266.881l.021.1h1.381v-.458h-.124a1.494,1.494,0,0,1-.28-.029h0a.267.267,0,0,1-.114-.048.34.34,0,0,1-.085-.153h0c-.03-.089-.113-.289-.192-.474h0a1.061,1.061,0,0,0-.572-.556,1.614,1.614,0,0,0,.323-.183.826.826,0,0,0,.37-.665.775.775,0,0,0-.4-.668,1.5,1.5,0,0,0-.771-.2h-1.937v.451l.116.007a2.492,2.492,0,0,1,.377.067h0l.046.028.013.068V79.6l-.012.057-.052.033c-.018.006-.092.019-.166.03s-.161.021-.206.024l-.116.007V80.2h1.963v-.451l-.116-.007c-.046,0-.129-.013-.205-.024a1.471,1.471,0,0,1-.16-.029h-.006l-.047-.029-.012-.061v-.863Zm-.1-1.5h.241a.572.572,0,0,1,.354.091.453.453,0,0,1,.14.387.494.494,0,0,1-.175.422.7.7,0,0,1-.43.121h-.13Z" transform="translate(454.125 2755.647)"/><path class="b" d="M139.907,62.138c.31,3.632,2.381,6.165,6.428,4.475,3.954-1.651,7.172-5.924,6.964-8.367-.051-.594-.42-.8-1.007-.556a7.522,7.522,0,0,1-4.025,4.935c-2.533,1.058-3.857-.6-4.057-2.934-.241-2.828,1.187-6.715,4.224-8.236a2.216,2.216,0,0,0,.2-1.456c-2.213.31-3.389-1.477-3.577-3.677-.217-2.549.893-5.652,3.272-6.645,1.266-.529,1.905.217,2,1.3a3.888,3.888,0,0,1-1.294,3.216,1.525,1.525,0,0,0,1.911.649c1.544-.645,2.387-2.769,2.22-4.724-.191-2.235-1.821-3.723-5.4-2.227a10.121,10.121,0,0,0-6.048,9.722c.17,1.99,1.106,3.588,2.912,4.136A12.668,12.668,0,0,0,139.907,62.138Z" transform="translate(454.125 2755.647)"/><path class="b" d="M151.563,54.7a1.657,1.657,0,0,0,.509,1.089,2.676,2.676,0,0,1,1.485-1.343c1.39-.58,2.447-.191,3.744-.732a4,4,0,0,0,2.47-3.671,1.92,1.92,0,0,0-.478-1.1,4.272,4.272,0,0,1-1.654,1.233c-1.081.452-2.22.6-3.517,1.144A3.723,3.723,0,0,0,151.563,54.7Z" transform="translate(454.125 2755.647)"/><path class="b" d="M166.47,58.205c2.645-1.1,5.606-4.033,7.524-7.742.439,1.976,1.563,3.948,4.152,2.867,1.761-.735,3.273-2.885,4.395-5.487.2,2.771,1.722,2.933,3.173,2.327,1.4-.586,3.1-2.475,4.378-4.523l-.222,2.318a2.255,2.255,0,0,0,1.49-.153,3.919,3.919,0,0,0,2.407-3.283l.189-2.285c.888-8.723,2.2-10.9,3.225-11.326.648-.271.99-.016,1.032.473a2.1,2.1,0,0,1-.247,1.224,2.855,2.855,0,0,0,.908-.234c1.606-.671,2.325-2.743,2.191-4.314a3.493,3.493,0,0,0-.089-.541l.943-.394L200.84,38.5c-.418,4.477,1.831,4.587,3.376,3.942,1.729-.723,4.123-3.421,3.914-5.865-.051-.594-.42-.8-1.007-.555a3.277,3.277,0,0,1-1.587,2.4c-.618.258-1.085-.342-.9-2.265l.985-10.572,1.359-.567a2.169,2.169,0,0,0,1.124-2.567l-2.255.942.472-4.97a2.257,2.257,0,0,0-1.491.153,3.919,3.919,0,0,0-2.407,3.283l-.312,3.095-.618.258a1.924,1.924,0,0,0-1.086,1.258,1.591,1.591,0,0,0-1.838-.219c-1.421.593-2.666,2.126-3.66,5.47l.179-2.027c.134-1.43-.534-1.766-1.647-1.3a8.41,8.41,0,0,0-3.316,3.121c-.57.817-.262,1.808.164,1.92.253-.4.427-.612.582-.677.278-.116.428.146.383.744l-.916,9.537a7.863,7.863,0,0,1-3.058,3.042c-.8.336-1.351-.087-1.147-2.2l1.176-12.46a2.254,2.254,0,0,0-1.49.152,4.06,4.06,0,0,0-2.014,1.89,3.736,3.736,0,0,0-3.28.176c-4.106,1.714-7,8.676-6.791,14.625-1.2,2.5-3.812,5.351-5.983,6.257-1.668.7-3.052.225-3.287-2.533-.429-5.028,1.26-9.6,2.99-10.324.772-.322,1.173-.128,1.23.535a8.18,8.18,0,0,1-.3,2.476,1.522,1.522,0,0,0,1.277-.027,3.54,3.54,0,0,0,1.918-3.766c-.194-2.27-1.525-2.871-4.027-1.826-4.634,1.935-7.329,9.714-6.87,15.091C161.052,58.443,163.566,59.418,166.47,58.205Zm15.394-22.411a3.919,3.919,0,0,1,1.476-.328l-.931,10.08a7.1,7.1,0,0,1-2.932,3.5c-.958.4-1.734-.072-1.882-1.817C177.269,43.427,178.127,37.355,181.865,35.794Z" transform="translate(454.125 2755.647)"/><path class="a" d="M190.043,67.549h14.631a4.083,4.083,0,0,0,2.974-1.3,4.539,4.539,0,0,0,1.228-3.126,4.337,4.337,0,0,0-3.959-4.416,7.564,7.564,0,0,0-15.116,0,4.337,4.337,0,0,0-3.959,4.416,4.541,4.541,0,0,0,1.227,3.126A4.084,4.084,0,0,0,190.043,67.549ZM190.3,59.9l.025,0h.027a1.118,1.118,0,0,1,1.111,1.118.594.594,0,1,0,1.187,0,2.305,2.305,0,0,0-1.66-2.211,6.373,6.373,0,0,1,12.74.049,2.306,2.306,0,0,0-1.51,2.162.594.594,0,1,0,1.187,0,1.118,1.118,0,0,1,1.111-1.118h.025l.062-.013.072,0a2.9,2.9,0,0,1,2.122.943,3.4,3.4,0,0,1,0,4.582,2.9,2.9,0,0,1-2.125.943H190.043a2.9,2.9,0,0,1-2.125-.943,3.4,3.4,0,0,1,0-4.582,2.9,2.9,0,0,1,2.125-.943C190.125,59.885,190.21,59.891,190.3,59.9Z" transform="translate(454.125 2755.647)"/><path class="a" d="M194.238,61.636a1.328,1.328,0,0,0,1.284,1h3.673a1.328,1.328,0,0,0,1.284-1l1-3.862a1.008,1.008,0,0,0,.032-.249.987.987,0,0,0-.205-.6.972.972,0,0,0-.774-.382H194.19a.971.971,0,0,0-.774.382.985.985,0,0,0-.173.85Zm6.422-4.075-1,3.862a.486.486,0,0,1-.469.366h-3.673a.485.485,0,0,1-.469-.366l-1-3.862,0-.036.029-.084a.134.134,0,0,1,.109-.054h6.337a.133.133,0,0,1,.109.054l.029.084,0,.036.24.063Z" transform="translate(454.125 2755.647)"/><path class="a" d="M195.906,62.977a1.2,1.2,0,1,0,1.19,1.2A1.2,1.2,0,0,0,195.906,62.977Zm0,1.55a.352.352,0,1,1,.35-.352A.353.353,0,0,1,195.906,64.527Z" transform="translate(454.125 2755.647)"/><path class="a" d="M198.81,62.977a1.2,1.2,0,1,0,1.191,1.2A1.2,1.2,0,0,0,198.81,62.977Zm0,1.55a.352.352,0,1,1,.35-.352A.352.352,0,0,1,198.81,64.527Z" transform="translate(454.125 2755.647)"/><g transform="translate(454.125 2755.647)"><path class="c" d="M139.923,73.406a.4.4,0,0,0,.393.4h67.906a.4.4,0,0,0,0-.792H140.316A.4.4,0,0,0,139.923,73.406Z"/><path class="c" d="M142.316,77.235a2.512,2.512,0,0,1,.316.019l.089.061a1.8,1.8,0,0,1,.367.674l.025.09h.4V76.77h-3.29v1.309h.39l.027-.086a2.284,2.284,0,0,1,.23-.489,1.135,1.135,0,0,1,.145-.188.21.21,0,0,1,.088-.061,2.771,2.771,0,0,1,.323-.019h.006V79.6l-.014.061-.052.037c-.019.006-.12.02-.216.029s-.205.02-.252.023l-.116.007V80.2h2.172v-.45l-.116-.008c-.037,0-.152-.019-.255-.036l-.143-.026-.05-.011-.015,0h0c-.061-.028-.064-.043-.069-.092V77.235Z"/><path class="c" d="M145.235,78.739a.677.677,0,0,1,.6.486,4.548,4.548,0,0,1,.266.881l.021.1h2.765V79.76l-.11-.013a2.519,2.519,0,0,1-.344-.061.547.547,0,0,1-.134-.052l-.008-.006a.823.823,0,0,1,.043-.19c.037-.112.063-.175.117-.314h.964l.217.528,0,.019a.791.791,0,0,1-.156.042,2.611,2.611,0,0,1-.265.033l-.115.008v.45h3.641a2.316,2.316,0,0,0,1.361-.413,1.547,1.547,0,0,0,.642-1.289,1.581,1.581,0,0,0-.7-1.376,2.229,2.229,0,0,0-1.2-.357h-1.769v.45l.115.008a2.017,2.017,0,0,1,.378.072c.059.026.061.04.067.1v2.212l-.013.059-.047.031a1.728,1.728,0,0,1-.179.027c-.084.01-.174.018-.223.021l-.116.007v0l-.067-.009c-.044-.006-.115-.017-.184-.032a.837.837,0,0,1-.162-.048h0a.227.227,0,0,1-.12-.131c-.171-.428-.644-1.571-1.125-2.735l-.032-.076H148.9l-.032.076c-.358.864-.748,1.818-1.091,2.595h0a.585.585,0,0,1-.207.274.816.816,0,0,1-.155.045c-.054.012-.106.02-.149.025a1.021,1.021,0,0,1-.169-.023h0a.268.268,0,0,1-.114-.048.341.341,0,0,1-.085-.153h0c-.031-.09-.113-.289-.192-.473h0a1.062,1.062,0,0,0-.572-.555,1.626,1.626,0,0,0,.323-.183.826.826,0,0,0,.37-.665.775.775,0,0,0-.4-.668,1.5,1.5,0,0,0-.77-.2h-1.938v.451l.116.007a2.5,2.5,0,0,1,.377.067h0l.046.028.013.068V79.6l-.012.057-.053.033a1.67,1.67,0,0,1-.166.03c-.077.011-.161.021-.206.024l-.116.007V80.2h1.963v-.451l-.116-.007c-.046,0-.13-.013-.206-.024a1.431,1.431,0,0,1-.159-.029H145.2l-.047-.028-.012-.061v-.863Zm7.262-1.488c.072,0,.143,0,.2,0a1.012,1.012,0,0,1,.8.343,1.377,1.377,0,0,1,.3.913,1.483,1.483,0,0,1-.232.895.862.862,0,0,1-.743.322.428.428,0,0,1-.265-.058c-.034-.028-.051-.063-.053-.151Zm-3.568.7.282.691h-.561Zm-3.791.312v-1.02h.24a.574.574,0,0,1,.355.091.451.451,0,0,1,.139.387.5.5,0,0,1-.174.422.7.7,0,0,1-.43.121Z"/><path class="c" d="M155.606,79.7c-.013,0-.1.017-.176.026s-.172.018-.218.021l-.116.008v.45h2.009v-.451l-.116-.007c-.04,0-.135-.017-.218-.032l-.114-.024-.039-.01-.01,0h0l-.058-.039-.013-.048V77.372l.013-.057.041-.024h.008a2.684,2.684,0,0,1,.394-.06l.116-.007V76.77H155.1v.45l.116.008a2.825,2.825,0,0,1,.39.079l.055.035.012.051v2.224C155.663,79.666,155.66,79.677,155.606,79.7Z"/><path class="c" d="M161.461,77.22V76.77h-1.932v.446l.111.012a2.706,2.706,0,0,1,.279.051,1.265,1.265,0,0,1,.267.085h0c.021.009.047.04.066.132a2.035,2.035,0,0,1,.022.366v1.011l-1.59-2.1h-1.5v.45l.115.008a1.614,1.614,0,0,1,.318.068,1.15,1.15,0,0,1,.255.1.355.355,0,0,1,.1.252v1.465a1.711,1.711,0,0,1-.031.378.226.226,0,0,1-.07.14h0a1.472,1.472,0,0,1-.214.065,1.867,1.867,0,0,1-.231.045l-.116.007V80.2h1.944v-.451l-.116-.007a2.616,2.616,0,0,1-.291-.055c-.061-.015-.122-.031-.169-.045l-.058-.02-.015-.006a.27.27,0,0,1-.07-.146,1.629,1.629,0,0,1-.036-.382V77.9l1.792,2.349h.516V77.836a2,2,0,0,1,.024-.361c.018-.091.048-.131.066-.14l.07-.026a2.322,2.322,0,0,1,.375-.081Z"/><path class="c" d="M163.352,77.175a.885.885,0,0,1,.631.239,1.6,1.6,0,0,1,.39.659l.029.083h.41l-.039-1.433h-.4l-.109.166a1.611,1.611,0,0,0-.728-.2,1.961,1.961,0,0,0-1.39.534,1.828,1.828,0,0,0-.542,1.324,1.768,1.768,0,0,0,.505,1.282,1.555,1.555,0,0,0,1.082.459,2.728,2.728,0,0,0,1.021-.215l.223.23.047.048.228-.046.1-.02V79.118c0-.06.015-.086.063-.106h0a1.294,1.294,0,0,1,.176-.041c.077-.015.153-.027.2-.039l.1-.022v-.42h-2.062v.451l.116.007a2.941,2.941,0,0,1,.525.08l.043.029a.261.261,0,0,1,.012.1v.218a.423.423,0,0,1-.145.29.726.726,0,0,1-1.026-.213,1.657,1.657,0,0,1-.253-.936,1.819,1.819,0,0,1,.251-1.025A.649.649,0,0,1,163.352,77.175Z"/><path class="c" d="M171.038,79.7c-.012,0-.1.017-.177.026s-.172.018-.218.021l-.115.008v.45h3.712V79.76l-.11-.013a2.507,2.507,0,0,1-.344-.061.544.544,0,0,1-.135-.052l-.007-.006a.79.79,0,0,1,.043-.189c.037-.113.063-.175.117-.314h.964l.218.528,0,.019a.791.791,0,0,1-.156.042,2.6,2.6,0,0,1-.265.033l-.115.008v.45h1.99v-.442l-.107-.016c-.044-.006-.115-.017-.183-.032a.811.811,0,0,1-.161-.048h0a.228.228,0,0,1-.12-.131c-.171-.428-.644-1.571-1.125-2.735l-.032-.076h-.457l-.032.076c-.358.864-.747,1.818-1.091,2.595h0a.582.582,0,0,1-.207.274.8.8,0,0,1-.155.045,1.585,1.585,0,0,1-.2.031l-.076,0-.077,0c-.04,0-.135-.017-.219-.032l-.113-.024-.039-.01-.011,0h0l-.058-.038-.013-.049V77.372l.013-.057.041-.024h.008a2.693,2.693,0,0,1,.394-.06l.116-.007V76.77h-3.7v.448l.113.01a1.941,1.941,0,0,1,.358.062.464.464,0,0,1,.12.05l.006,0a.935.935,0,0,1-.1.329c-.129.289-.336.771-.58,1.318-.321-.844-.565-1.49-.632-1.669l-.008-.031a.761.761,0,0,1,.14-.036,1.939,1.939,0,0,1,.249-.027l.119,0V76.77h-1.97v.451l.116.007a1.049,1.049,0,0,1,.338.076.272.272,0,0,1,.14.167c.4,1.044.578,1.522,1.026,2.693l.03.08h.438l.033-.073c.376-.849.987-2.177,1.183-2.61a.485.485,0,0,1,.183-.254h0a1.176,1.176,0,0,1,.321-.077l.085-.006.092.006a2.788,2.788,0,0,1,.39.079l.055.035.012.051v2.224C171.1,79.666,171.094,79.677,171.038,79.7Zm3.242-1.75.283.691H174Z"/><path class="c" d="M179.7,77.175a.766.766,0,0,1,.593.274,1.57,1.57,0,0,1,.321.665l.023.1h.419l-.032-1.486h-.408l-.106.157a1.422,1.422,0,0,0-.68-.19,1.8,1.8,0,0,0-1.3.533,1.844,1.844,0,0,0-.512,1.3,1.8,1.8,0,0,0,.472,1.276,1.681,1.681,0,0,0,1.238.491,1.544,1.544,0,0,0,1.479-1.032l.045-.109-.32-.156-.113-.055-.053.115a1.277,1.277,0,0,1-.34.484.827.827,0,0,1-.542.164.816.816,0,0,1-.651-.319,1.41,1.41,0,0,1-.272-.891,1.851,1.851,0,0,1,.235-1.03A.591.591,0,0,1,179.7,77.175Z"/><path class="c" d="M184.471,79.807h0a1.862,1.862,0,0,0,.047-2.6h0a1.834,1.834,0,0,0-2.555,0h0a1.746,1.746,0,0,0-.518,1.318,1.681,1.681,0,0,0,.568,1.29l0,0a1.732,1.732,0,0,0,1.2.475,1.8,1.8,0,0,0,1.259-.484Zm-.616-.363a.72.72,0,0,1-1.245-.006,1.863,1.863,0,0,1-.211-.941,1.816,1.816,0,0,1,.233-.995.682.682,0,0,1,.6-.327.691.691,0,0,1,.644.385,1.935,1.935,0,0,1,.195.917A1.892,1.892,0,0,1,183.856,79.444Z"/><path class="c" d="M189.614,77.31l.032-.022a1.693,1.693,0,0,1,.2-.035c.087-.012.179-.022.226-.025l.116-.007V76.77h-1.609l-.01.114a1.429,1.429,0,0,1-.1.353h0l-.672,1.637-.847-2.1H185.24v.453l.118.005a2.126,2.126,0,0,1,.274.035.8.8,0,0,1,.224.069c.04.024.086.1.086.255v1.538a1.62,1.62,0,0,1-.033.378.225.225,0,0,1-.073.139.8.8,0,0,1-.213.067c-.1.02-.189.034-.244.045l-.1.02V80.2h1.9v-.45l-.116-.008a1.935,1.935,0,0,1-.256-.052c-.055-.014-.108-.03-.152-.045l-.075-.031a.27.27,0,0,1-.074-.143,1.47,1.47,0,0,1-.038-.37V77.784l.672,1.656h0a5.131,5.131,0,0,1,.229.612l.024.094h.379l.965-2.234v1.678l-.014.057-.061.045h0a1.387,1.387,0,0,1-.2.034c-.088.01-.179.017-.225.02l-.116.007V80.2h2.055v-.451l-.116-.007c-.042,0-.136-.016-.221-.03l-.116-.023-.04-.01-.012,0h0a.087.087,0,0,1-.058-.089V77.378Z"/><path class="c" d="M191.04,79.66l-.052.033c-.018.006-.092.019-.166.03s-.161.021-.207.024l-.116.007V80.2h2.055v-.453l-.118-.006c-.064,0-.17-.013-.265-.024l-.128-.017-.061-.012h-.006l-.047-.029-.012-.061v-.7h.234a1.568,1.568,0,0,0,.94-.312,1.072,1.072,0,0,0,.445-.852.887.887,0,0,0-.355-.709,1.333,1.333,0,0,0-.822-.259h-1.879v.451l.116.007a2.588,2.588,0,0,1,.4.068l.045.029.013.067V79.6Zm.877-2.42h.169a.424.424,0,0,1,.39.185.789.789,0,0,1,.1.423.646.646,0,0,1-.1.38.539.539,0,0,1-.474.189h-.085Z"/><path class="c" d="M195.2,77.319l.047-.031h0a2.2,2.2,0,0,1,.365-.066l.116-.007V76.77h-1.963v.45l.115.008a1.559,1.559,0,0,1,.347.074c.067.036.074.056.077.1v1.845a.937.937,0,0,0,.385.742,1.717,1.717,0,0,0,1.065.312,1.575,1.575,0,0,0,.93-.282,1.1,1.1,0,0,0,.448-.922V77.823a2.121,2.121,0,0,1,.021-.354c.016-.1.049-.137.058-.138h0a.912.912,0,0,1,.213-.064,2.146,2.146,0,0,1,.239-.037l.116-.007V76.77h-1.893v.44l.112.011a2.165,2.165,0,0,1,.263.05,1.024,1.024,0,0,1,.237.083h0l.021.027a1.076,1.076,0,0,1,.071.466v1.21a.64.64,0,0,1-.741.667.628.628,0,0,1-.571-.222.783.783,0,0,1-.1-.445V77.378Z"/><path class="c" d="M197.819,78.078h.39l.027-.087a2.268,2.268,0,0,1,.23-.488,1.135,1.135,0,0,1,.145-.188.21.21,0,0,1,.088-.061,2.777,2.777,0,0,1,.323-.019h.006V79.6l-.014.061-.052.037c-.019.006-.119.02-.216.029s-.205.02-.253.023l-.116.007V80.2h2.172v-.45l-.116-.008c-.037,0-.152-.019-.255-.036l-.143-.026-.05-.011-.015,0h0c-.061-.029-.064-.043-.07-.093V77.235h.013a2.517,2.517,0,0,1,.316.019l.089.061a1.8,1.8,0,0,1,.367.675l.026.09h.4V76.77h-3.29Z"/><path class="c" d="M204.5,80.09l.1-1.168h-.417l-.029.083a2.8,2.8,0,0,1-.152.326,1.387,1.387,0,0,1-.212.316l0,0,0,0a.392.392,0,0,1-.209.061,4.3,4.3,0,0,1-.431.013.753.753,0,0,1-.362-.045l-.031-.054a.72.72,0,0,1-.016-.182v-.785h.195c.231,0,.272.057.317.1h0a.7.7,0,0,1,.064.156.906.906,0,0,1,.041.2l.006.118h.443v-1.6h-.437l-.011.112a1.173,1.173,0,0,1-.042.208.421.421,0,0,1-.059.135l-.084.058a.624.624,0,0,1-.238.036h-.195v-.955h.377a3.9,3.9,0,0,1,.414.025l.074.043a1.118,1.118,0,0,1,.3.432l.026.089h.4V76.77h-3.05v.45l.116.008c.04,0,.125.014.206.029a1.13,1.13,0,0,1,.188.046l.061.045.013.051V79.6l-.012.061-.048.029h0a1.445,1.445,0,0,1-.187.031c-.085.01-.173.019-.218.022l-.116.008v.45h3.209Z"/><path class="c" d="M206.381,78.739a.678.678,0,0,1,.6.486,4.578,4.578,0,0,1,.266.881l.021.1h1.381v-.458h-.124a1.494,1.494,0,0,1-.28-.029h0a.267.267,0,0,1-.114-.048.34.34,0,0,1-.085-.153h0c-.03-.089-.113-.289-.192-.474h0a1.061,1.061,0,0,0-.572-.556,1.614,1.614,0,0,0,.323-.183.826.826,0,0,0,.37-.665.775.775,0,0,0-.4-.668,1.5,1.5,0,0,0-.771-.2h-1.937v.451l.116.007a2.492,2.492,0,0,1,.377.067h0l.046.028.013.068V79.6l-.012.057-.052.033c-.018.006-.092.019-.166.03s-.161.021-.206.024l-.116.007V80.2h1.963v-.451l-.116-.007c-.046,0-.129-.013-.205-.024a1.471,1.471,0,0,1-.16-.029h-.006l-.047-.029-.012-.061v-.863Zm-.1-1.5h.241a.572.572,0,0,1,.354.091.453.453,0,0,1,.14.387.494.494,0,0,1-.175.422.7.7,0,0,1-.43.121h-.13Z"/><path class="c" d="M139.907,62.138c.31,3.632,2.381,6.165,6.428,4.475,3.954-1.651,7.172-5.924,6.964-8.367-.051-.594-.42-.8-1.007-.556a7.522,7.522,0,0,1-4.025,4.935c-2.533,1.058-3.857-.6-4.057-2.934-.241-2.828,1.187-6.715,4.224-8.236a2.216,2.216,0,0,0,.2-1.456c-2.213.31-3.389-1.477-3.577-3.677-.217-2.549.893-5.652,3.272-6.645,1.266-.529,1.905.217,2,1.3a3.888,3.888,0,0,1-1.294,3.216,1.525,1.525,0,0,0,1.911.649c1.544-.645,2.387-2.769,2.22-4.724-.191-2.235-1.821-3.723-5.4-2.227a10.121,10.121,0,0,0-6.048,9.722c.17,1.99,1.106,3.588,2.912,4.136A12.668,12.668,0,0,0,139.907,62.138Z"/><path class="c" d="M151.563,54.7a1.657,1.657,0,0,0,.509,1.089,2.676,2.676,0,0,1,1.485-1.343c1.39-.58,2.447-.191,3.744-.732a4,4,0,0,0,2.47-3.671,1.92,1.92,0,0,0-.478-1.1,4.272,4.272,0,0,1-1.654,1.233c-1.081.452-2.22.6-3.517,1.144A3.723,3.723,0,0,0,151.563,54.7Z"/><path class="c" d="M166.47,58.205c2.645-1.1,5.606-4.033,7.524-7.742.439,1.976,1.563,3.948,4.152,2.867,1.761-.735,3.273-2.885,4.395-5.487.2,2.771,1.722,2.933,3.173,2.327,1.4-.586,3.1-2.475,4.378-4.523l-.222,2.318a2.255,2.255,0,0,0,1.49-.153,3.919,3.919,0,0,0,2.407-3.283l.189-2.285c.888-8.723,2.2-10.9,3.225-11.326.648-.271.99-.016,1.032.473a2.1,2.1,0,0,1-.247,1.224,2.855,2.855,0,0,0,.908-.234c1.606-.671,2.325-2.743,2.191-4.314a3.493,3.493,0,0,0-.089-.541l.943-.394L200.84,38.5c-.418,4.477,1.831,4.587,3.376,3.942,1.729-.723,4.123-3.421,3.914-5.865-.051-.594-.42-.8-1.007-.555a3.277,3.277,0,0,1-1.587,2.4c-.618.258-1.085-.342-.9-2.265l.985-10.572,1.359-.567a2.169,2.169,0,0,0,1.124-2.567l-2.255.942.472-4.97a2.257,2.257,0,0,0-1.491.153,3.919,3.919,0,0,0-2.407,3.283l-.312,3.095-.618.258a1.924,1.924,0,0,0-1.086,1.258,1.591,1.591,0,0,0-1.838-.219c-1.421.593-2.666,2.126-3.66,5.47l.179-2.027c.134-1.43-.534-1.766-1.647-1.3a8.41,8.41,0,0,0-3.316,3.121c-.57.817-.262,1.808.164,1.92.253-.4.427-.612.582-.677.278-.116.428.146.383.744l-.916,9.537a7.863,7.863,0,0,1-3.058,3.042c-.8.336-1.351-.087-1.147-2.2l1.176-12.46a2.254,2.254,0,0,0-1.49.152,4.06,4.06,0,0,0-2.014,1.89,3.736,3.736,0,0,0-3.28.176c-4.106,1.714-7,8.676-6.791,14.625-1.2,2.5-3.812,5.351-5.983,6.257-1.668.7-3.052.225-3.287-2.533-.429-5.028,1.26-9.6,2.99-10.324.772-.322,1.173-.128,1.23.535a8.18,8.18,0,0,1-.3,2.476,1.522,1.522,0,0,0,1.277-.027,3.54,3.54,0,0,0,1.918-3.766c-.194-2.27-1.525-2.871-4.027-1.826-4.634,1.935-7.329,9.714-6.87,15.091C161.052,58.443,163.566,59.418,166.47,58.205Zm15.394-22.411a3.919,3.919,0,0,1,1.476-.328l-.931,10.08a7.1,7.1,0,0,1-2.932,3.5c-.958.4-1.734-.072-1.882-1.817C177.269,43.427,178.127,37.355,181.865,35.794Z"/><path class="c" d="M190.043,67.549h14.631a4.083,4.083,0,0,0,2.974-1.3,4.539,4.539,0,0,0,1.228-3.126,4.337,4.337,0,0,0-3.959-4.416,7.564,7.564,0,0,0-15.116,0,4.337,4.337,0,0,0-3.959,4.416,4.541,4.541,0,0,0,1.227,3.126A4.084,4.084,0,0,0,190.043,67.549ZM190.3,59.9l.025,0h.027a1.118,1.118,0,0,1,1.111,1.118.594.594,0,1,0,1.187,0,2.305,2.305,0,0,0-1.66-2.211,6.373,6.373,0,0,1,12.74.049,2.306,2.306,0,0,0-1.51,2.162.594.594,0,1,0,1.187,0,1.118,1.118,0,0,1,1.111-1.118h.025l.062-.013.072,0a2.9,2.9,0,0,1,2.122.943,3.4,3.4,0,0,1,0,4.582,2.9,2.9,0,0,1-2.125.943H190.043a2.9,2.9,0,0,1-2.125-.943,3.4,3.4,0,0,1,0-4.582,2.9,2.9,0,0,1,2.125-.943C190.125,59.885,190.21,59.891,190.3,59.9Z"/><path class="c" d="M194.238,61.636a1.328,1.328,0,0,0,1.284,1h3.673a1.328,1.328,0,0,0,1.284-1l1-3.862a1.008,1.008,0,0,0,.032-.249.987.987,0,0,0-.205-.6.972.972,0,0,0-.774-.382H194.19a.971.971,0,0,0-.774.382.985.985,0,0,0-.173.85Zm6.422-4.075-1,3.862a.486.486,0,0,1-.469.366h-3.673a.485.485,0,0,1-.469-.366l-1-3.862,0-.036.029-.084a.134.134,0,0,1,.109-.054h6.337a.133.133,0,0,1,.109.054l.029.084,0,.036.24.063Z"/><path class="c" d="M195.906,62.977a1.2,1.2,0,1,0,1.19,1.2A1.2,1.2,0,0,0,195.906,62.977Zm0,1.55a.352.352,0,1,1,.35-.352A.353.353,0,0,1,195.906,64.527Z"/><path class="c" d="M198.81,62.977a1.2,1.2,0,1,0,1.191,1.2A1.2,1.2,0,0,0,198.81,62.977Zm0,1.55a.352.352,0,1,1,.35-.352A.352.352,0,0,1,198.81,64.527Z"/></g></g></svg>