<svg xmlns="http://www.w3.org/2000/svg" width="98" height="54" viewBox="0 0 98 54"><defs><style>.a{fill:#877d5c;}.b{fill:#d6d5d6;}.c{fill:#999591;}</style></defs><g transform="translate(-1254 -2778)"><path class="a" d="M31.032,73.406h3.294a.432.432,0,1,0,0-.863H31.032a.432.432,0,1,0,0,.863Z" transform="translate(1238.764 2754.101)"/><path class="a" d="M94.985,72.543H91.691a.432.432,0,1,0,0,.863h3.294a.432.432,0,1,0,0-.863Z" transform="translate(1238.764 2754.101)"/><path class="a" d="M47.7,47.782H79.5a1.616,1.616,0,0,0,1.124-2.777l-2.359-2.281a3.719,3.719,0,0,0-1.344-.831,1.931,1.931,0,0,0,.541-1.338V25.841A1.945,1.945,0,0,0,75.519,23.9H51.684a1.945,1.945,0,0,0-1.943,1.942V40.556a1.933,1.933,0,0,0,.541,1.338,3.724,3.724,0,0,0-1.344.831l-2.359,2.281A1.615,1.615,0,0,0,47.7,47.782Zm2.989-21.941a.994.994,0,0,1,.993-.992H75.519a.994.994,0,0,1,.993.992V40.556a.994.994,0,0,1-.993.993H51.684a.994.994,0,0,1-.993-.993ZM47.239,45.688,49.6,43.407a2.771,2.771,0,0,1,1.938-.783H75.667a2.772,2.772,0,0,1,1.937.783l2.359,2.281a.666.666,0,0,1-.463,1.144H47.7a.665.665,0,0,1-.462-1.144Z" transform="translate(1238.764 2754.101)"/><path class="a" d="M52.35,40.128h22.5a.237.237,0,0,0,.237-.237V26.507a.238.238,0,0,0-.237-.238H52.35a.238.238,0,0,0-.238.238V39.891A.237.237,0,0,0,52.35,40.128Zm.237-13.384H74.614V39.653H52.588Z" transform="translate(1238.764 2754.101)"/><path class="a" d="M49.015,45.771H78.187a.237.237,0,1,0,0-.475H49.015a.237.237,0,1,0,0,.475Z" transform="translate(1238.764 2754.101)"/><path class="a" d="M67.129,29.866H60.822a.784.784,0,0,0-.528.2l-.207-.768a1.506,1.506,0,0,0-1.459-1.129h-.794a.238.238,0,1,0,0,.475h.794a1.033,1.033,0,0,1,1,.775l1.41,5.223.008.03a1.139,1.139,0,0,0,1.1.853H65.8a1.14,1.14,0,0,0,1.1-.853l.991-3.819a.794.794,0,0,0-.768-.992Zm.308.873-.992,3.819a.664.664,0,0,1-.642.5H62.148a.664.664,0,0,1-.643-.5l-.991-3.818a.318.318,0,0,1,.308-.4h6.307a.318.318,0,0,1,.308.4Z" transform="translate(1238.764 2754.101)"/><path class="a" d="M62.53,35.885a1,1,0,1,0,1,1A1,1,0,0,0,62.53,35.885Zm0,1.532a.528.528,0,1,1,.529-.529A.53.53,0,0,1,62.53,37.416Z" transform="translate(1238.764 2754.101)"/><path class="a" d="M65.42,35.885a1,1,0,1,0,1,1A1,1,0,0,0,65.42,35.885Zm0,1.532a.528.528,0,1,1,.529-.529A.53.53,0,0,1,65.42,37.416Z" transform="translate(1238.764 2754.101)"/><path class="a" d="M57.688,71.921a.956.956,0,0,0,.024,1.177l.356.438a.272.272,0,0,1,.056.224l-.108.553a.957.957,0,0,0,.533,1.05l.51.24a.271.271,0,0,1,.148.178l.143.545a.964.964,0,0,0,.936.715l.566-.005a.272.272,0,0,1,.208.1l.366.429a.96.96,0,0,0,1.154.239l.506-.249a.28.28,0,0,1,.231,0l.515.228a.931.931,0,0,0,.382.08.971.971,0,0,0,.761-.366l.348-.444a.272.272,0,0,1,.206-.1l.563-.018A.957.957,0,0,0,67,76.169l.12-.551a.272.272,0,0,1,.14-.183l.5-.261a.956.956,0,0,0,.489-1.071l-.13-.548a.273.273,0,0,1,.047-.226l.338-.452a.957.957,0,0,0-.024-1.178l-.356-.437a.273.273,0,0,1-.056-.224l.108-.554a.957.957,0,0,0-.533-1.05l-.511-.24a.273.273,0,0,1-.148-.178l-.143-.545a.964.964,0,0,0-.936-.715l-.566.005a.273.273,0,0,1-.208-.1l-.366-.43A1,1,0,0,0,63.61,67l-.506.249a.284.284,0,0,1-.231.005l-.516-.228a.989.989,0,0,0-1.143.286l-.348.444a.272.272,0,0,1-.206.1l-.564.018a.956.956,0,0,0-.905.753l-.121.551a.268.268,0,0,1-.14.183l-.5.261a.957.957,0,0,0-.49,1.071l.131.548a.275.275,0,0,1-.047.226Zm.55.41.338-.452a.954.954,0,0,0,.164-.795l-.13-.548a.273.273,0,0,1,.139-.305l.5-.261a.954.954,0,0,0,.493-.645l.12-.551a.273.273,0,0,1,.258-.214l.563-.018a.954.954,0,0,0,.724-.367l.348-.444a.283.283,0,0,1,.325-.082l.516.228a.986.986,0,0,0,.812-.016l.506-.249a.286.286,0,0,1,.328.068l.366.429a.967.967,0,0,0,.739.337l.566-.005a.272.272,0,0,1,.263.2l.143.545a.956.956,0,0,0,.519.624l.511.24a.272.272,0,0,1,.151.3l-.108.553a.957.957,0,0,0,.2.788l.356.437a.272.272,0,0,1,.007.335l-.337.452a.951.951,0,0,0-.164.795l.13.549a.272.272,0,0,1-.139.3l-.5.261a.953.953,0,0,0-.493.645l-.12.551a.273.273,0,0,1-.258.214l-.564.018a.956.956,0,0,0-.724.367l-.348.444a.285.285,0,0,1-.325.081l-.515-.228a.982.982,0,0,0-.812.016l-.506.249a.289.289,0,0,1-.328-.068l-.366-.429a.965.965,0,0,0-.737-.337h0l-.567.005a.272.272,0,0,1-.263-.2l-.143-.545a.958.958,0,0,0-.52-.624l-.51-.24a.272.272,0,0,1-.152-.3l.108-.554a.956.956,0,0,0-.2-.788l-.356-.438A.272.272,0,0,1,58.237,72.331Z" transform="translate(1238.764 2754.101)"/><path class="a" d="M60.973,71.661A.247.247,0,0,0,60.96,72a.244.244,0,0,0,.2.082h1.454a.242.242,0,0,0,0-.485h-.841l.753-.681a1.015,1.015,0,0,0,.328-.744.981.981,0,0,0-.262-.67,1.032,1.032,0,0,0-1.421-.069l-.117.111a.231.231,0,0,0-.086.169.229.229,0,0,0,.059.17.247.247,0,0,0,.347.021l.125-.114a.539.539,0,0,1,.738.037.511.511,0,0,1,.136.345.525.525,0,0,1-.174.387Z" transform="translate(1238.764 2754.101)"/><path class="a" d="M63.253,71.542h1.261v.3a.243.243,0,0,0,.485,0v-.3h.024a.241.241,0,1,0,0-.481H65V69.413l0-.034-.085-.143a.242.242,0,0,0-.344.038l-1.5,1.871a.242.242,0,0,0-.06.186.214.214,0,0,0,.076.148A.231.231,0,0,0,63.253,71.542Zm1.261-1.43v.949h-.766Z" transform="translate(1238.764 2754.101)"/><path class="a" d="M63.885,73.444a.255.255,0,0,0-.111-.015H62.394a.241.241,0,0,0,0,.481h1.032L62.545,76a.255.255,0,0,0,.166.315l.066.01A.244.244,0,0,0,63,76.177l1-2.386a.263.263,0,0,0,.028-.157l-.011-.042A.262.262,0,0,0,63.885,73.444Z" transform="translate(1238.764 2754.101)"/><path class="a" d="M60.7,72.938h4.789a.239.239,0,1,0,0-.478H60.7a.239.239,0,1,0,0,.478Z" transform="translate(1238.764 2754.101)"/><path class="b" d="M15.7,62.256a3.589,3.589,0,0,1,.759-.116H16.5a.287.287,0,0,1,.193.057.423.423,0,0,1,.108.181l1.843,4.966a.514.514,0,0,1,.037.172.249.249,0,0,1-.106.2h0a.969.969,0,0,1-.108.071c-.173.1-.471.248-.594.3l-.187.082.27.728,6.382-2.368-.058-.194-.693-2.312-.716.265.005.156v.041a5.668,5.668,0,0,1-.078.79,3.71,3.71,0,0,1-.2.795h0a.46.46,0,0,1-.149.156,5.582,5.582,0,0,1-1.2.538,2.775,2.775,0,0,1-.812.223.25.25,0,0,1-.218-.094,1.584,1.584,0,0,1-.239-.475l-.695-1.871.607-.225a1.362,1.362,0,0,1,.465-.1.654.654,0,0,1,.329.09l.006,0-.007,0a.579.579,0,0,1,.1.086,2.531,2.531,0,0,1,.456.624l.083.183.766-.284L20.9,61.7l-.757.281.046.186a2.6,2.6,0,0,1,.063.561.862.862,0,0,1-.036.295.78.78,0,0,1-.145.24,1.183,1.183,0,0,1-.468.276l-.607.225-.875-2.356.891-.331a7.156,7.156,0,0,1,.827-.263l.071-.007a1.449,1.449,0,0,1,.68.26,2.125,2.125,0,0,1,.572.511l.095.139.735-.272-.77-2.074-5.98,2.218.27.728Z" transform="translate(1238.764 2754.101)"/><path class="b" d="M26.288,63.7l3.366-.767-.28-1.231-3.577.815.281,1.23Z" transform="translate(1238.764 2754.101)"/><path class="b" d="M33.213,63.46a3.514,3.514,0,0,0,2.421.906,4.552,4.552,0,0,0,.692-.054l-.033-.213.033.213a3.2,3.2,0,0,0,1.928-.994A3.855,3.855,0,0,0,39.1,61.7l.054-.2-.788-.241-.06.211a2.667,2.667,0,0,1-.572,1.133,2.429,2.429,0,0,1-1.585.613,2.228,2.228,0,0,1-1.572-.684,3.4,3.4,0,0,1-.913-1.908,6.393,6.393,0,0,1-.081-.979,3.1,3.1,0,0,1,.468-1.8,1.564,1.564,0,0,1,1.053-.677,2.068,2.068,0,0,1,.322-.026,1.807,1.807,0,0,1,1.284.546,4.763,4.763,0,0,1,.909,1.327l.07.141.735-.114L37.886,55.9l-.769.12-.193.486a3.078,3.078,0,0,0-1.243-.264,2.485,2.485,0,0,0-.378.028,3.956,3.956,0,0,0-3.387,3.993,4.61,4.61,0,0,0,.055.707A4.18,4.18,0,0,0,33.213,63.46Z" transform="translate(1238.764 2754.101)"/><path class="b" d="M42.044,56.547h0Z" transform="translate(1238.764 2754.101)"/><path class="b" d="M48.24,61.857h0Z" transform="translate(1238.764 2754.101)"/><path class="b" d="M41.215,59.6A3.873,3.873,0,0,0,42.7,62.4a3.917,3.917,0,0,0,2.426.833q.193,0,.389-.018a3.969,3.969,0,0,0,2.722-1.353,3.823,3.823,0,0,0,.928-2.606c0-.17-.009-.343-.025-.517A4.047,4.047,0,0,0,47.8,56.009h0a3.977,3.977,0,0,0-2.565-.93c-.14,0-.281.007-.424.02a3.968,3.968,0,0,0-2.761,1.448,3.833,3.833,0,0,0-.854,2.528Q41.19,59.332,41.215,59.6Zm3.672-3.624c.079-.007.155-.011.229-.011a1.9,1.9,0,0,1,1.628.879,4.415,4.415,0,0,1,.672,2.081c.019.2.028.4.028.589a3.538,3.538,0,0,1-.487,1.955,1.892,1.892,0,0,1-1.478.853c-.078.007-.153.011-.226.011a1.915,1.915,0,0,1-1.6-.823,4.238,4.238,0,0,1-.713-2.125q-.03-.315-.029-.6a3.4,3.4,0,0,1,.531-2.007,1.923,1.923,0,0,1,1.445-.8l-.02-.214Z" transform="translate(1238.764 2754.101)"/><path class="b" d="M51.548,55.478h.208a1.607,1.607,0,0,1,.854.214.578.578,0,0,1,.19.244,1.279,1.279,0,0,1,.088.462l.135,3.729q.006.177.006.327a2.909,2.909,0,0,1-.065.713.489.489,0,0,1-.158.282,1.3,1.3,0,0,1-.442.17c-.182.044-.36.068-.454.082l-.19.029.02.548.008.215,3.721-.134-.028-.775-.2,0a3.1,3.1,0,0,1-.49-.084,3.006,3.006,0,0,1-.291-.084.69.69,0,0,1-.16-.073h0a.654.654,0,0,1-.214-.357,3.853,3.853,0,0,1-.121-.942l-.118-3.276L55.6,60.6c.21.454.479,1.058.618,1.458l.052.151.418-.015.141,0,2.2-5.518.155,4.3V61a.338.338,0,0,1-.047.189.483.483,0,0,1-.178.155l-.006,0a2.431,2.431,0,0,1-.4.083c-.174.025-.349.043-.437.051l-.2.019.028.776.215-.008,3.775-.136-.028-.775-.2,0c-.081,0-.25-.016-.405-.038-.078-.011-.153-.023-.214-.036a.708.708,0,0,1-.11-.029h0a.316.316,0,0,1-.224-.326L60.548,55.6v-.035a.4.4,0,0,1,.037-.192.228.228,0,0,1,.136-.1h0a2.556,2.556,0,0,1,.361-.089c.143-.027.291-.048.377-.056l.2-.019-.028-.775-2.9.1-.011.2a3.225,3.225,0,0,1-.2.858l-1.656,4.2-2.376-5.1-1.152.041-.005-.011v.012L51.52,54.7Z" transform="translate(1238.764 2754.101)"/><path class="b" d="M67.95,61.4l-.2-.016a3.088,3.088,0,0,1-.485-.112c-.1-.031-.2-.066-.286-.1a.707.707,0,0,1-.156-.082h0a.619.619,0,0,1-.183-.329,3.21,3.21,0,0,1-.08-.819c0-.054,0-.11,0-.168l.068-3.278,1.543,3.934c.184.465.418,1.084.534,1.491l.044.153.418.009.141,0L71.816,56.7l-.089,4.3a.356.356,0,0,1-.055.2.475.475,0,0,1-.191.151l-.007,0a2.4,2.4,0,0,1-.408.06c-.175.015-.351.023-.44.026l-.2.007-.012.56,0,.216.216,0,3.777.078.016-.776-.2-.016a3.979,3.979,0,0,1-.4-.06c-.077-.015-.152-.032-.212-.048a.826.826,0,0,1-.108-.035h0a.374.374,0,0,1-.163-.136.354.354,0,0,1-.041-.188v-.015l.111-5.317a.466.466,0,0,1,.044-.217.222.222,0,0,1,.147-.1h0a2.537,2.537,0,0,1,.365-.069c.145-.019.293-.031.379-.035l.2-.007.012-.56,0-.216-2.906-.06-.022.2a3.258,3.258,0,0,1-.249.846h0l-1.891,4.095L67.4,54.366l-1.153-.024,0-.012v.011L64.427,54.3l-.016.78.208.012a1.6,1.6,0,0,1,.839.262.575.575,0,0,1,.172.242,1.184,1.184,0,0,1,.067.434v.045l-.077,3.732a4.412,4.412,0,0,1-.095.956.558.558,0,0,1-.2.351,1.3,1.3,0,0,1-.451.145c-.185.033-.363.047-.458.057l-.191.019-.011.548,0,.216,3.723.077Z" transform="translate(1238.764 2754.101)"/><path class="b" d="M83.724,62.752l.329-2.392-.762-.055-.06.143a5.115,5.115,0,0,1-.391.688,3.838,3.838,0,0,1-.534.677h0a.5.5,0,0,1-.228.086,2.47,2.47,0,0,1-.439.032c-.28,0-.591-.026-.849-.045a2.279,2.279,0,0,1-.876-.158.232.232,0,0,1-.1-.125.874.874,0,0,1-.04-.307q0-.109.01-.251l.144-1.991.646.047a1.215,1.215,0,0,1,.519.127.688.688,0,0,1,.208.191.593.593,0,0,1,.059.12,2.534,2.534,0,0,1,.156.756v.2l.814.059.248-3.432-.806-.058-.036.189a2.561,2.561,0,0,1-.143.461,1.041,1.041,0,0,1-.188.328.831.831,0,0,1-.2.146.95.95,0,0,1-.418.076c-.046,0-.1,0-.152-.006l-.646-.047.181-2.507.947.068a7.1,7.1,0,0,1,.862.1.6.6,0,0,1,.248.146,2.13,2.13,0,0,1,.414.533,1.931,1.931,0,0,1,.225.565l.029.166.781.056.159-2.206-6.362-.459-.056.774.2.026a3.438,3.438,0,0,1,.767.223h0a.308.308,0,0,1,.143.117.318.318,0,0,1,.034.162l0,.062-.382,5.283a.428.428,0,0,1-.057.207.266.266,0,0,1-.16.1h0a.774.774,0,0,1-.112.018c-.177.02-.473.03-.632.03h-.049l-.2,0-.056.774,6.79.49Z" transform="translate(1238.764 2754.101)"/><path class="b" d="M90.124,62.9l-.2-.037c-.09-.016-.256-.05-.41-.088-.077-.019-.152-.039-.212-.057a.811.811,0,0,1-.115-.041h0a.277.277,0,0,1-.123-.112.33.33,0,0,1-.034-.158l.006-.089.289-2.291.332.042a1.438,1.438,0,0,1,.855.47,2.249,2.249,0,0,1,.524.97,11.614,11.614,0,0,1,.337,2.16l.013.176.175.022,2.56.322.1-.77-.2-.037a4.751,4.751,0,0,1-.612-.16.725.725,0,0,1-.262-.127.667.667,0,0,1-.194-.4v-.006c-.016-.069-.057-.291-.108-.545s-.113-.548-.174-.781a2.256,2.256,0,0,0-.731-1.153,2.983,2.983,0,0,0-.533-.36,3.547,3.547,0,0,0,1.094-.369,1.674,1.674,0,0,0,.568-.523,1.856,1.856,0,0,0,.285-.811,1.937,1.937,0,0,0,.016-.242,1.7,1.7,0,0,0-.727-1.387,3.213,3.213,0,0,0-1.5-.564l-3.942-.5-.1.77.2.037a3.743,3.743,0,0,1,.7.218h0a.232.232,0,0,1,.117.1.321.321,0,0,1,.032.155l-.007.1-.667,5.289a.447.447,0,0,1-.07.211.263.263,0,0,1-.165.1h0a.764.764,0,0,1-.113.013c-.057,0-.126,0-.2,0-.151,0-.315-.006-.408-.013l-.2-.014-.1.77,3.813.481Zm.345-6.189h0a1.484,1.484,0,0,1,.821.334.979.979,0,0,1,.311.768,1.707,1.707,0,0,1-.014.214,1.352,1.352,0,0,1-.481.906,1.515,1.515,0,0,1-.967.321,1.974,1.974,0,0,1-.24-.015l-.471-.06.323-2.559Z" transform="translate(1238.764 2754.101)"/><path class="b" d="M99.553,65.387l.043-.211-.043.211a3.685,3.685,0,0,0,.732.076,3.064,3.064,0,0,0,1.674-.487,4.015,4.015,0,0,0,1.1-1.081l.12-.17-.655-.5-.13.177a3.014,3.014,0,0,1-.747.76,1.731,1.731,0,0,1-.987.281,2.951,2.951,0,0,1-.587-.064,2.112,2.112,0,0,1-1.3-.858,2.948,2.948,0,0,1-.517-1.733A3.978,3.978,0,0,1,98.334,61a4.437,4.437,0,0,1,.964-2.155,1.737,1.737,0,0,1,1.282-.619,1.534,1.534,0,0,1,.3.03,1.774,1.774,0,0,1,1.26.917,4.482,4.482,0,0,1,.46,1.687l.017.157.729.147.581-3.129-.763-.154-.347.386a2.778,2.778,0,0,0-.508-.4,2.956,2.956,0,0,0-.933-.384,4.207,4.207,0,0,0-.831-.084,4.01,4.01,0,0,0-3.922,3.341,5.038,5.038,0,0,0-.1,1,3.66,3.66,0,0,0,.813,2.381A3.8,3.8,0,0,0,99.553,65.387Z" transform="translate(1238.764 2754.101)"/><path class="b" d="M111.168,68.353l.935-2.225-.721-.25-.095.123a5.1,5.1,0,0,1-.555.564,3.838,3.838,0,0,1-.692.516h0a.386.386,0,0,1-.165.027,2.426,2.426,0,0,1-.622-.117c-.237-.069-.484-.158-.7-.231a3.237,3.237,0,0,1-.733-.317.374.374,0,0,1-.115-.117.278.278,0,0,1-.03-.137,1.688,1.688,0,0,1,.118-.5l.653-1.886.612.212a1.212,1.212,0,0,1,.468.257.685.685,0,0,1,.152.239.524.524,0,0,1,.025.124,2.1,2.1,0,0,1,.013.243,2.3,2.3,0,0,1-.057.538l-.053.194.772.267,1.126-3.252-.763-.264-.083.173a2.553,2.553,0,0,1-.257.409,1.05,1.05,0,0,1-.266.268.694.694,0,0,1-.354.1,1.382,1.382,0,0,1-.447-.09l-.612-.212.822-2.375.9.311a7.079,7.079,0,0,1,.805.322.572.572,0,0,1,.188.184,2.341,2.341,0,0,1,.352,1.159l0,.087-.015.168.741.256.724-2.089-6.027-2.086-.254.734.189.077a3.419,3.419,0,0,1,.683.413l0,0h0c.1.095.111.138.115.208a.536.536,0,0,1-.035.168l-1.733,5a.437.437,0,0,1-.109.185.265.265,0,0,1-.182.06h0a2.633,2.633,0,0,1-.364-.06c-.16-.034-.327-.075-.411-.1l-.2-.056-.254.733,6.432,2.226Z" transform="translate(1238.764 2754.101)"/><path class="b" d="M39.259,74.043a2.629,2.629,0,0,1-.383.05L38.8,74.1v.359h2.921l.092-1.125h-.335l-.02.058a2.185,2.185,0,0,1-.348.606,1.272,1.272,0,0,1-.614.077c-.4,0-.408-.028-.408-.287v-.751h.209c.222,0,.285.07.315.1a.908.908,0,0,1,.1.35l0,.082h.356v-1.42h-.352l-.008.078a.765.765,0,0,1-.1.333c-.033.033-.1.1-.319.1h-.209v-.936h.378a3.59,3.59,0,0,1,.387.023c.1.012.323.285.374.457l.019.062h.326v-.914H38.8v.36l.081.006a1.766,1.766,0,0,1,.375.071c.076.034.087.076.087.114v2.03A.1.1,0,0,1,39.259,74.043Z" transform="translate(1238.764 2754.101)"/><path class="b" d="M44.694,74.147c-.523,0-.743-.335-.913-.839l-.02-.059h-.332l.042,1.251h.293l.134-.165a1.516,1.516,0,0,0,.771.2,1.06,1.06,0,0,0,1.148-1.008.888.888,0,0,0-.675-.893c-.095-.038-.194-.068-.3-.1a3.587,3.587,0,0,1-.352-.118c-.288-.12-.338-.229-.338-.414a.349.349,0,0,1,.329-.341c.536,0,.732.3.876.788l.018.062h.341l-.049-1.2h-.292l-.133.158a1.293,1.293,0,0,0-.647-.188.989.989,0,0,0-1.069.912.874.874,0,0,0,.577.892,3.218,3.218,0,0,0,.4.139c.084.025.171.05.272.086.329.116.395.239.395.4C45.174,74,45.017,74.147,44.694,74.147Z" transform="translate(1238.764 2754.101)"/><path class="b" d="M49.287,71.723a2.356,2.356,0,0,1,.3.017c.12.016.358.387.446.7l.018.063h.321V71.351H47.374V72.5h.312l.019-.06c.1-.319.339-.685.452-.7a2.6,2.6,0,0,1,.3-.017H48.5v2.2a.11.11,0,0,1-.079.117c-.041.013-.323.042-.443.05l-.081.005v.36H49.85V74.1l-.081-.006a4.048,4.048,0,0,1-.44-.073.11.11,0,0,1-.083-.112V71.723Z" transform="translate(1238.764 2754.101)"/><path class="b" d="M52.319,74.048a3.24,3.24,0,0,1-.378.045l-.081.005v.36H53.4a1.641,1.641,0,0,0,1.829-1.538,1.614,1.614,0,0,0-1.738-1.569H51.878v.359l.08.006a1.851,1.851,0,0,1,.357.067.11.11,0,0,1,.081.117v2.036A.1.1,0,0,1,52.319,74.048Zm.823-2.308.072,0,.143,0A1.049,1.049,0,0,1,54.4,72.92c0,.762-.313,1.149-.932,1.149-.3,0-.323-.109-.323-.221Z" transform="translate(1238.764 2754.101)"/><path class="b" d="M71.651,74.037a2.612,2.612,0,0,1-.452.05l-.082,0v.367h2.047v-.367l-.082,0a1.772,1.772,0,0,1-.422-.071.227.227,0,0,1-.123-.211V71.558a6.257,6.257,0,0,1,.083-.889l.016-.1H72.37l-.022.016a1.233,1.233,0,0,1-.717.237,1.483,1.483,0,0,1-.6-.131l-.073-.032-.15.276.054.045a1.5,1.5,0,0,0,.754.4,1.522,1.522,0,0,0,.161-.007v2.463A.207.207,0,0,1,71.651,74.037Z" transform="translate(1238.764 2754.101)"/><path class="b" d="M75.544,75.085a2.422,2.422,0,0,0,2.19-2.659c0-1.73-1.109-1.864-1.449-1.864a1.432,1.432,0,0,0-1.442,1.478,1.218,1.218,0,0,0,1.177,1.333,1.269,1.269,0,0,0,.914-.363c-.121.848-.506,1.643-1.143,1.643-.23,0-.285-.064-.307-.112a.9.9,0,0,1-.048-.164c-.043-.181-.1-.429-.381-.429s-.412.153-.412.454A.819.819,0,0,0,75.544,75.085Zm.741-2.209c-.312,0-.63-.113-.63-.95,0-.65.212-.98.63-.98.339,0,.7.324.7,1.034S76.547,72.875,76.285,72.875Z" transform="translate(1238.764 2754.101)"/><path class="b" d="M80.54,74.653c-.23,0-.285-.064-.307-.112a.9.9,0,0,1-.048-.164c-.043-.181-.1-.429-.381-.429s-.412.153-.412.454a.819.819,0,0,0,.9.683,2.422,2.422,0,0,0,2.19-2.659c0-1.73-1.109-1.864-1.449-1.864a1.432,1.432,0,0,0-1.442,1.478,1.218,1.218,0,0,0,1.177,1.333,1.269,1.269,0,0,0,.914-.363C81.562,73.859,81.177,74.653,80.54,74.653Zm.494-1.777c-.312,0-.63-.113-.63-.95,0-.65.212-.98.63-.98.339,0,.7.324.7,1.034S81.3,72.875,81.034,72.875Z" transform="translate(1238.764 2754.101)"/><path class="b" d="M85.286,74.543a1.46,1.46,0,0,0,1.557-1.309,1.239,1.239,0,0,0-1.3-1.249,1.624,1.624,0,0,0-.644.139l.155-.611c.075,0,.183.006.272.006A1.9,1.9,0,0,0,87,70.724l.032-.061-.226-.192-.055.043a1.2,1.2,0,0,1-.851.3.994.994,0,0,1-.719-.205l-.025-.029h-.307l-.493,2.178.4.08.025-.072a.676.676,0,0,1,.654-.381c.229,0,.613.07.613.54,0,.126-.021,1.233-.763,1.233A.6.6,0,0,1,84.806,74a.359.359,0,0,1,.037-.172.472.472,0,0,0,.047-.214.327.327,0,0,0-.346-.351.449.449,0,0,0-.466.472C84.078,74.2,84.586,74.543,85.286,74.543Z" transform="translate(1238.764 2754.101)"/><g transform="translate(1238.764 2754.101)"><path class="c" d="M31.032,73.406h3.294a.432.432,0,1,0,0-.863H31.032a.432.432,0,1,0,0,.863Z"/><path class="c" d="M94.985,72.543H91.691a.432.432,0,1,0,0,.863h3.294a.432.432,0,1,0,0-.863Z"/><path class="c" d="M47.7,47.782H79.5a1.616,1.616,0,0,0,1.124-2.777l-2.359-2.281a3.719,3.719,0,0,0-1.344-.831,1.931,1.931,0,0,0,.541-1.338V25.841A1.945,1.945,0,0,0,75.519,23.9H51.684a1.945,1.945,0,0,0-1.943,1.942V40.556a1.933,1.933,0,0,0,.541,1.338,3.724,3.724,0,0,0-1.344.831l-2.359,2.281A1.615,1.615,0,0,0,47.7,47.782Zm2.989-21.941a.994.994,0,0,1,.993-.992H75.519a.994.994,0,0,1,.993.992V40.556a.994.994,0,0,1-.993.993H51.684a.994.994,0,0,1-.993-.993ZM47.239,45.688,49.6,43.407a2.771,2.771,0,0,1,1.938-.783H75.667a2.772,2.772,0,0,1,1.937.783l2.359,2.281a.666.666,0,0,1-.463,1.144H47.7a.665.665,0,0,1-.462-1.144Z"/><path class="c" d="M52.35,40.128h22.5a.237.237,0,0,0,.237-.237V26.507a.238.238,0,0,0-.237-.238H52.35a.238.238,0,0,0-.238.238V39.891A.237.237,0,0,0,52.35,40.128Zm.237-13.384H74.614V39.653H52.588Z"/><path class="c" d="M49.015,45.771H78.187a.237.237,0,1,0,0-.475H49.015a.237.237,0,1,0,0,.475Z"/><path class="c" d="M67.129,29.866H60.822a.784.784,0,0,0-.528.2l-.207-.768a1.506,1.506,0,0,0-1.459-1.129h-.794a.238.238,0,1,0,0,.475h.794a1.033,1.033,0,0,1,1,.775l1.41,5.223.008.03a1.139,1.139,0,0,0,1.1.853H65.8a1.14,1.14,0,0,0,1.1-.853l.991-3.819a.794.794,0,0,0-.768-.992Zm.308.873-.992,3.819a.664.664,0,0,1-.642.5H62.148a.664.664,0,0,1-.643-.5l-.991-3.818a.318.318,0,0,1,.308-.4h6.307a.318.318,0,0,1,.308.4Z"/><path class="c" d="M62.53,35.885a1,1,0,1,0,1,1A1,1,0,0,0,62.53,35.885Zm0,1.532a.528.528,0,1,1,.529-.529A.53.53,0,0,1,62.53,37.416Z"/><path class="c" d="M65.42,35.885a1,1,0,1,0,1,1A1,1,0,0,0,65.42,35.885Zm0,1.532a.528.528,0,1,1,.529-.529A.53.53,0,0,1,65.42,37.416Z"/><path class="c" d="M57.688,71.921a.956.956,0,0,0,.024,1.177l.356.438a.272.272,0,0,1,.056.224l-.108.553a.957.957,0,0,0,.533,1.05l.51.24a.271.271,0,0,1,.148.178l.143.545a.964.964,0,0,0,.936.715l.566-.005a.272.272,0,0,1,.208.1l.366.429a.96.96,0,0,0,1.154.239l.506-.249a.28.28,0,0,1,.231,0l.515.228a.931.931,0,0,0,.382.08.971.971,0,0,0,.761-.366l.348-.444a.272.272,0,0,1,.206-.1l.563-.018A.957.957,0,0,0,67,76.169l.12-.551a.272.272,0,0,1,.14-.183l.5-.261a.956.956,0,0,0,.489-1.071l-.13-.548a.273.273,0,0,1,.047-.226l.338-.452a.957.957,0,0,0-.024-1.178l-.356-.437a.273.273,0,0,1-.056-.224l.108-.554a.957.957,0,0,0-.533-1.05l-.511-.24a.273.273,0,0,1-.148-.178l-.143-.545a.964.964,0,0,0-.936-.715l-.566.005a.273.273,0,0,1-.208-.1l-.366-.43A1,1,0,0,0,63.61,67l-.506.249a.284.284,0,0,1-.231.005l-.516-.228a.989.989,0,0,0-1.143.286l-.348.444a.272.272,0,0,1-.206.1l-.564.018a.956.956,0,0,0-.905.753l-.121.551a.268.268,0,0,1-.14.183l-.5.261a.957.957,0,0,0-.49,1.071l.131.548a.275.275,0,0,1-.047.226Zm.55.41.338-.452a.954.954,0,0,0,.164-.795l-.13-.548a.273.273,0,0,1,.139-.305l.5-.261a.954.954,0,0,0,.493-.645l.12-.551a.273.273,0,0,1,.258-.214l.563-.018a.954.954,0,0,0,.724-.367l.348-.444a.283.283,0,0,1,.325-.082l.516.228a.986.986,0,0,0,.812-.016l.506-.249a.286.286,0,0,1,.328.068l.366.429a.967.967,0,0,0,.739.337l.566-.005a.272.272,0,0,1,.263.2l.143.545a.956.956,0,0,0,.519.624l.511.24a.272.272,0,0,1,.151.3l-.108.553a.957.957,0,0,0,.2.788l.356.437a.272.272,0,0,1,.007.335l-.337.452a.951.951,0,0,0-.164.795l.13.549a.272.272,0,0,1-.139.3l-.5.261a.953.953,0,0,0-.493.645l-.12.551a.273.273,0,0,1-.258.214l-.564.018a.956.956,0,0,0-.724.367l-.348.444a.285.285,0,0,1-.325.081l-.515-.228a.982.982,0,0,0-.812.016l-.506.249a.289.289,0,0,1-.328-.068l-.366-.429a.965.965,0,0,0-.737-.337h0l-.567.005a.272.272,0,0,1-.263-.2l-.143-.545a.958.958,0,0,0-.52-.624l-.51-.24a.272.272,0,0,1-.152-.3l.108-.554a.956.956,0,0,0-.2-.788l-.356-.438A.272.272,0,0,1,58.237,72.331Z"/><path class="c" d="M60.973,71.661A.247.247,0,0,0,60.96,72a.244.244,0,0,0,.2.082h1.454a.242.242,0,0,0,0-.485h-.841l.753-.681a1.015,1.015,0,0,0,.328-.744.981.981,0,0,0-.262-.67,1.032,1.032,0,0,0-1.421-.069l-.117.111a.231.231,0,0,0-.086.169.229.229,0,0,0,.059.17.247.247,0,0,0,.347.021l.125-.114a.539.539,0,0,1,.738.037.511.511,0,0,1,.136.345.525.525,0,0,1-.174.387Z"/><path class="c" d="M63.253,71.542h1.261v.3a.243.243,0,0,0,.485,0v-.3h.024a.241.241,0,1,0,0-.481H65V69.413l0-.034-.085-.143a.242.242,0,0,0-.344.038l-1.5,1.871a.242.242,0,0,0-.06.186.214.214,0,0,0,.076.148A.231.231,0,0,0,63.253,71.542Zm1.261-1.43v.949h-.766Z"/><path class="c" d="M63.885,73.444a.255.255,0,0,0-.111-.015H62.394a.241.241,0,0,0,0,.481h1.032L62.545,76a.255.255,0,0,0,.166.315l.066.01A.244.244,0,0,0,63,76.177l1-2.386a.263.263,0,0,0,.028-.157l-.011-.042A.262.262,0,0,0,63.885,73.444Z"/><path class="c" d="M60.7,72.938h4.789a.239.239,0,1,0,0-.478H60.7a.239.239,0,1,0,0,.478Z"/><path class="c" d="M15.7,62.256a3.589,3.589,0,0,1,.759-.116H16.5a.287.287,0,0,1,.193.057.423.423,0,0,1,.108.181l1.843,4.966a.514.514,0,0,1,.037.172.249.249,0,0,1-.106.2h0a.969.969,0,0,1-.108.071c-.173.1-.471.248-.594.3l-.187.082.27.728,6.382-2.368-.058-.194-.693-2.312-.716.265.005.156v.041a5.668,5.668,0,0,1-.078.79,3.71,3.71,0,0,1-.2.795h0a.46.46,0,0,1-.149.156,5.582,5.582,0,0,1-1.2.538,2.775,2.775,0,0,1-.812.223.25.25,0,0,1-.218-.094,1.584,1.584,0,0,1-.239-.475l-.695-1.871.607-.225a1.362,1.362,0,0,1,.465-.1.654.654,0,0,1,.329.09l.006,0-.007,0a.579.579,0,0,1,.1.086,2.531,2.531,0,0,1,.456.624l.083.183.766-.284L20.9,61.7l-.757.281.046.186a2.6,2.6,0,0,1,.063.561.862.862,0,0,1-.036.295.78.78,0,0,1-.145.24,1.183,1.183,0,0,1-.468.276l-.607.225-.875-2.356.891-.331a7.156,7.156,0,0,1,.827-.263l.071-.007a1.449,1.449,0,0,1,.68.26,2.125,2.125,0,0,1,.572.511l.095.139.735-.272-.77-2.074-5.98,2.218.27.728Z"/><path class="c" d="M26.288,63.7l3.366-.767-.28-1.231-3.577.815.281,1.23Z"/><path class="c" d="M33.213,63.46a3.514,3.514,0,0,0,2.421.906,4.552,4.552,0,0,0,.692-.054l-.033-.213.033.213a3.2,3.2,0,0,0,1.928-.994A3.855,3.855,0,0,0,39.1,61.7l.054-.2-.788-.241-.06.211a2.667,2.667,0,0,1-.572,1.133,2.429,2.429,0,0,1-1.585.613,2.228,2.228,0,0,1-1.572-.684,3.4,3.4,0,0,1-.913-1.908,6.393,6.393,0,0,1-.081-.979,3.1,3.1,0,0,1,.468-1.8,1.564,1.564,0,0,1,1.053-.677,2.068,2.068,0,0,1,.322-.026,1.807,1.807,0,0,1,1.284.546,4.763,4.763,0,0,1,.909,1.327l.07.141.735-.114L37.886,55.9l-.769.12-.193.486a3.078,3.078,0,0,0-1.243-.264,2.485,2.485,0,0,0-.378.028,3.956,3.956,0,0,0-3.387,3.993,4.61,4.61,0,0,0,.055.707A4.18,4.18,0,0,0,33.213,63.46Z"/><path class="c" d="M42.044,56.547h0Z"/><path class="c" d="M48.24,61.857h0Z"/><path class="c" d="M41.215,59.6A3.873,3.873,0,0,0,42.7,62.4a3.917,3.917,0,0,0,2.426.833q.193,0,.389-.018a3.969,3.969,0,0,0,2.722-1.353,3.823,3.823,0,0,0,.928-2.606c0-.17-.009-.343-.025-.517A4.047,4.047,0,0,0,47.8,56.009h0a3.977,3.977,0,0,0-2.565-.93c-.14,0-.281.007-.424.02a3.968,3.968,0,0,0-2.761,1.448,3.833,3.833,0,0,0-.854,2.528Q41.19,59.332,41.215,59.6Zm3.672-3.624c.079-.007.155-.011.229-.011a1.9,1.9,0,0,1,1.628.879,4.415,4.415,0,0,1,.672,2.081c.019.2.028.4.028.589a3.538,3.538,0,0,1-.487,1.955,1.892,1.892,0,0,1-1.478.853c-.078.007-.153.011-.226.011a1.915,1.915,0,0,1-1.6-.823,4.238,4.238,0,0,1-.713-2.125q-.03-.315-.029-.6a3.4,3.4,0,0,1,.531-2.007,1.923,1.923,0,0,1,1.445-.8l-.02-.214Z"/><path class="c" d="M51.548,55.478h.208a1.607,1.607,0,0,1,.854.214.578.578,0,0,1,.19.244,1.279,1.279,0,0,1,.088.462l.135,3.729q.006.177.006.327a2.909,2.909,0,0,1-.065.713.489.489,0,0,1-.158.282,1.3,1.3,0,0,1-.442.17c-.182.044-.36.068-.454.082l-.19.029.02.548.008.215,3.721-.134-.028-.775-.2,0a3.1,3.1,0,0,1-.49-.084,3.006,3.006,0,0,1-.291-.084.69.69,0,0,1-.16-.073h0a.654.654,0,0,1-.214-.357,3.853,3.853,0,0,1-.121-.942l-.118-3.276L55.6,60.6c.21.454.479,1.058.618,1.458l.052.151.418-.015.141,0,2.2-5.518.155,4.3V61a.338.338,0,0,1-.047.189.483.483,0,0,1-.178.155l-.006,0a2.431,2.431,0,0,1-.4.083c-.174.025-.349.043-.437.051l-.2.019.028.776.215-.008,3.775-.136-.028-.775-.2,0c-.081,0-.25-.016-.405-.038-.078-.011-.153-.023-.214-.036a.708.708,0,0,1-.11-.029h0a.316.316,0,0,1-.224-.326L60.548,55.6v-.035a.4.4,0,0,1,.037-.192.228.228,0,0,1,.136-.1h0a2.556,2.556,0,0,1,.361-.089c.143-.027.291-.048.377-.056l.2-.019-.028-.775-2.9.1-.011.2a3.225,3.225,0,0,1-.2.858l-1.656,4.2-2.376-5.1-1.152.041-.005-.011v.012L51.52,54.7Z"/><path class="c" d="M67.95,61.4l-.2-.016a3.088,3.088,0,0,1-.485-.112c-.1-.031-.2-.066-.286-.1a.707.707,0,0,1-.156-.082h0a.619.619,0,0,1-.183-.329,3.21,3.21,0,0,1-.08-.819c0-.054,0-.11,0-.168l.068-3.278,1.543,3.934c.184.465.418,1.084.534,1.491l.044.153.418.009.141,0L71.816,56.7l-.089,4.3a.356.356,0,0,1-.055.2.475.475,0,0,1-.191.151l-.007,0a2.4,2.4,0,0,1-.408.06c-.175.015-.351.023-.44.026l-.2.007-.012.56,0,.216.216,0,3.777.078.016-.776-.2-.016a3.979,3.979,0,0,1-.4-.06c-.077-.015-.152-.032-.212-.048a.826.826,0,0,1-.108-.035h0a.374.374,0,0,1-.163-.136.354.354,0,0,1-.041-.188v-.015l.111-5.317a.466.466,0,0,1,.044-.217.222.222,0,0,1,.147-.1h0a2.537,2.537,0,0,1,.365-.069c.145-.019.293-.031.379-.035l.2-.007.012-.56,0-.216-2.906-.06-.022.2a3.258,3.258,0,0,1-.249.846h0l-1.891,4.095L67.4,54.366l-1.153-.024,0-.012v.011L64.427,54.3l-.016.78.208.012a1.6,1.6,0,0,1,.839.262.575.575,0,0,1,.172.242,1.184,1.184,0,0,1,.067.434v.045l-.077,3.732a4.412,4.412,0,0,1-.095.956.558.558,0,0,1-.2.351,1.3,1.3,0,0,1-.451.145c-.185.033-.363.047-.458.057l-.191.019-.011.548,0,.216,3.723.077Z"/><path class="c" d="M83.724,62.752l.329-2.392-.762-.055-.06.143a5.115,5.115,0,0,1-.391.688,3.838,3.838,0,0,1-.534.677h0a.5.5,0,0,1-.228.086,2.47,2.47,0,0,1-.439.032c-.28,0-.591-.026-.849-.045a2.279,2.279,0,0,1-.876-.158.232.232,0,0,1-.1-.125.874.874,0,0,1-.04-.307q0-.109.01-.251l.144-1.991.646.047a1.215,1.215,0,0,1,.519.127.688.688,0,0,1,.208.191.593.593,0,0,1,.059.12,2.534,2.534,0,0,1,.156.756v.2l.814.059.248-3.432-.806-.058-.036.189a2.561,2.561,0,0,1-.143.461,1.041,1.041,0,0,1-.188.328.831.831,0,0,1-.2.146.95.95,0,0,1-.418.076c-.046,0-.1,0-.152-.006l-.646-.047.181-2.507.947.068a7.1,7.1,0,0,1,.862.1.6.6,0,0,1,.248.146,2.13,2.13,0,0,1,.414.533,1.931,1.931,0,0,1,.225.565l.029.166.781.056.159-2.206-6.362-.459-.056.774.2.026a3.438,3.438,0,0,1,.767.223h0a.308.308,0,0,1,.143.117.318.318,0,0,1,.034.162l0,.062-.382,5.283a.428.428,0,0,1-.057.207.266.266,0,0,1-.16.1h0a.774.774,0,0,1-.112.018c-.177.02-.473.03-.632.03h-.049l-.2,0-.056.774,6.79.49Z"/><path class="c" d="M90.124,62.9l-.2-.037c-.09-.016-.256-.05-.41-.088-.077-.019-.152-.039-.212-.057a.811.811,0,0,1-.115-.041h0a.277.277,0,0,1-.123-.112.33.33,0,0,1-.034-.158l.006-.089.289-2.291.332.042a1.438,1.438,0,0,1,.855.47,2.249,2.249,0,0,1,.524.97,11.614,11.614,0,0,1,.337,2.16l.013.176.175.022,2.56.322.1-.77-.2-.037a4.751,4.751,0,0,1-.612-.16.725.725,0,0,1-.262-.127.667.667,0,0,1-.194-.4v-.006c-.016-.069-.057-.291-.108-.545s-.113-.548-.174-.781a2.256,2.256,0,0,0-.731-1.153,2.983,2.983,0,0,0-.533-.36,3.547,3.547,0,0,0,1.094-.369,1.674,1.674,0,0,0,.568-.523,1.856,1.856,0,0,0,.285-.811,1.937,1.937,0,0,0,.016-.242,1.7,1.7,0,0,0-.727-1.387,3.213,3.213,0,0,0-1.5-.564l-3.942-.5-.1.77.2.037a3.743,3.743,0,0,1,.7.218h0a.232.232,0,0,1,.117.1.321.321,0,0,1,.032.155l-.007.1-.667,5.289a.447.447,0,0,1-.07.211.263.263,0,0,1-.165.1h0a.764.764,0,0,1-.113.013c-.057,0-.126,0-.2,0-.151,0-.315-.006-.408-.013l-.2-.014-.1.77,3.813.481Zm.345-6.189h0a1.484,1.484,0,0,1,.821.334.979.979,0,0,1,.311.768,1.707,1.707,0,0,1-.014.214,1.352,1.352,0,0,1-.481.906,1.515,1.515,0,0,1-.967.321,1.974,1.974,0,0,1-.24-.015l-.471-.06.323-2.559Z"/><path class="c" d="M99.553,65.387l.043-.211-.043.211a3.685,3.685,0,0,0,.732.076,3.064,3.064,0,0,0,1.674-.487,4.015,4.015,0,0,0,1.1-1.081l.12-.17-.655-.5-.13.177a3.014,3.014,0,0,1-.747.76,1.731,1.731,0,0,1-.987.281,2.951,2.951,0,0,1-.587-.064,2.112,2.112,0,0,1-1.3-.858,2.948,2.948,0,0,1-.517-1.733A3.978,3.978,0,0,1,98.334,61a4.437,4.437,0,0,1,.964-2.155,1.737,1.737,0,0,1,1.282-.619,1.534,1.534,0,0,1,.3.03,1.774,1.774,0,0,1,1.26.917,4.482,4.482,0,0,1,.46,1.687l.017.157.729.147.581-3.129-.763-.154-.347.386a2.778,2.778,0,0,0-.508-.4,2.956,2.956,0,0,0-.933-.384,4.207,4.207,0,0,0-.831-.084,4.01,4.01,0,0,0-3.922,3.341,5.038,5.038,0,0,0-.1,1,3.66,3.66,0,0,0,.813,2.381A3.8,3.8,0,0,0,99.553,65.387Z"/><path class="c" d="M111.168,68.353l.935-2.225-.721-.25-.095.123a5.1,5.1,0,0,1-.555.564,3.838,3.838,0,0,1-.692.516h0a.386.386,0,0,1-.165.027,2.426,2.426,0,0,1-.622-.117c-.237-.069-.484-.158-.7-.231a3.237,3.237,0,0,1-.733-.317.374.374,0,0,1-.115-.117.278.278,0,0,1-.03-.137,1.688,1.688,0,0,1,.118-.5l.653-1.886.612.212a1.212,1.212,0,0,1,.468.257.685.685,0,0,1,.152.239.524.524,0,0,1,.025.124,2.1,2.1,0,0,1,.013.243,2.3,2.3,0,0,1-.057.538l-.053.194.772.267,1.126-3.252-.763-.264-.083.173a2.553,2.553,0,0,1-.257.409,1.05,1.05,0,0,1-.266.268.694.694,0,0,1-.354.1,1.382,1.382,0,0,1-.447-.09l-.612-.212.822-2.375.9.311a7.079,7.079,0,0,1,.805.322.572.572,0,0,1,.188.184,2.341,2.341,0,0,1,.352,1.159l0,.087-.015.168.741.256.724-2.089-6.027-2.086-.254.734.189.077a3.419,3.419,0,0,1,.683.413l0,0h0c.1.095.111.138.115.208a.536.536,0,0,1-.035.168l-1.733,5a.437.437,0,0,1-.109.185.265.265,0,0,1-.182.06h0a2.633,2.633,0,0,1-.364-.06c-.16-.034-.327-.075-.411-.1l-.2-.056-.254.733,6.432,2.226Z"/><path class="c" d="M39.259,74.043a2.629,2.629,0,0,1-.383.05L38.8,74.1v.359h2.921l.092-1.125h-.335l-.02.058a2.185,2.185,0,0,1-.348.606,1.272,1.272,0,0,1-.614.077c-.4,0-.408-.028-.408-.287v-.751h.209c.222,0,.285.07.315.1a.908.908,0,0,1,.1.35l0,.082h.356v-1.42h-.352l-.008.078a.765.765,0,0,1-.1.333c-.033.033-.1.1-.319.1h-.209v-.936h.378a3.59,3.59,0,0,1,.387.023c.1.012.323.285.374.457l.019.062h.326v-.914H38.8v.36l.081.006a1.766,1.766,0,0,1,.375.071c.076.034.087.076.087.114v2.03A.1.1,0,0,1,39.259,74.043Z"/><path class="c" d="M44.694,74.147c-.523,0-.743-.335-.913-.839l-.02-.059h-.332l.042,1.251h.293l.134-.165a1.516,1.516,0,0,0,.771.2,1.06,1.06,0,0,0,1.148-1.008.888.888,0,0,0-.675-.893c-.095-.038-.194-.068-.3-.1a3.587,3.587,0,0,1-.352-.118c-.288-.12-.338-.229-.338-.414a.349.349,0,0,1,.329-.341c.536,0,.732.3.876.788l.018.062h.341l-.049-1.2h-.292l-.133.158a1.293,1.293,0,0,0-.647-.188.989.989,0,0,0-1.069.912.874.874,0,0,0,.577.892,3.218,3.218,0,0,0,.4.139c.084.025.171.05.272.086.329.116.395.239.395.4C45.174,74,45.017,74.147,44.694,74.147Z"/><path class="c" d="M49.287,71.723a2.356,2.356,0,0,1,.3.017c.12.016.358.387.446.7l.018.063h.321V71.351H47.374V72.5h.312l.019-.06c.1-.319.339-.685.452-.7a2.6,2.6,0,0,1,.3-.017H48.5v2.2a.11.11,0,0,1-.079.117c-.041.013-.323.042-.443.05l-.081.005v.36H49.85V74.1l-.081-.006a4.048,4.048,0,0,1-.44-.073.11.11,0,0,1-.083-.112V71.723Z"/><path class="c" d="M52.319,74.048a3.24,3.24,0,0,1-.378.045l-.081.005v.36H53.4a1.641,1.641,0,0,0,1.829-1.538,1.614,1.614,0,0,0-1.738-1.569H51.878v.359l.08.006a1.851,1.851,0,0,1,.357.067.11.11,0,0,1,.081.117v2.036A.1.1,0,0,1,52.319,74.048Zm.823-2.308.072,0,.143,0A1.049,1.049,0,0,1,54.4,72.92c0,.762-.313,1.149-.932,1.149-.3,0-.323-.109-.323-.221Z"/><path class="c" d="M71.651,74.037a2.612,2.612,0,0,1-.452.05l-.082,0v.367h2.047v-.367l-.082,0a1.772,1.772,0,0,1-.422-.071.227.227,0,0,1-.123-.211V71.558a6.257,6.257,0,0,1,.083-.889l.016-.1H72.37l-.022.016a1.233,1.233,0,0,1-.717.237,1.483,1.483,0,0,1-.6-.131l-.073-.032-.15.276.054.045a1.5,1.5,0,0,0,.754.4,1.522,1.522,0,0,0,.161-.007v2.463A.207.207,0,0,1,71.651,74.037Z"/><path class="c" d="M75.544,75.085a2.422,2.422,0,0,0,2.19-2.659c0-1.73-1.109-1.864-1.449-1.864a1.432,1.432,0,0,0-1.442,1.478,1.218,1.218,0,0,0,1.177,1.333,1.269,1.269,0,0,0,.914-.363c-.121.848-.506,1.643-1.143,1.643-.23,0-.285-.064-.307-.112a.9.9,0,0,1-.048-.164c-.043-.181-.1-.429-.381-.429s-.412.153-.412.454A.819.819,0,0,0,75.544,75.085Zm.741-2.209c-.312,0-.63-.113-.63-.95,0-.65.212-.98.63-.98.339,0,.7.324.7,1.034S76.547,72.875,76.285,72.875Z"/><path class="c" d="M80.54,74.653c-.23,0-.285-.064-.307-.112a.9.9,0,0,1-.048-.164c-.043-.181-.1-.429-.381-.429s-.412.153-.412.454a.819.819,0,0,0,.9.683,2.422,2.422,0,0,0,2.19-2.659c0-1.73-1.109-1.864-1.449-1.864a1.432,1.432,0,0,0-1.442,1.478,1.218,1.218,0,0,0,1.177,1.333,1.269,1.269,0,0,0,.914-.363C81.562,73.859,81.177,74.653,80.54,74.653Zm.494-1.777c-.312,0-.63-.113-.63-.95,0-.65.212-.98.63-.98.339,0,.7.324.7,1.034S81.3,72.875,81.034,72.875Z"/><path class="c" d="M85.286,74.543a1.46,1.46,0,0,0,1.557-1.309,1.239,1.239,0,0,0-1.3-1.249,1.624,1.624,0,0,0-.644.139l.155-.611c.075,0,.183.006.272.006A1.9,1.9,0,0,0,87,70.724l.032-.061-.226-.192-.055.043a1.2,1.2,0,0,1-.851.3.994.994,0,0,1-.719-.205l-.025-.029h-.307l-.493,2.178.4.08.025-.072a.676.676,0,0,1,.654-.381c.229,0,.613.07.613.54,0,.126-.021,1.233-.763,1.233A.6.6,0,0,1,84.806,74a.359.359,0,0,1,.037-.172.472.472,0,0,0,.047-.214.327.327,0,0,0-.346-.351.449.449,0,0,0-.466.472C84.078,74.2,84.586,74.543,85.286,74.543Z"/></g></g></svg>