<svg xmlns="http://www.w3.org/2000/svg" width="32.747" height="37.46" viewBox="0 0 32.747 37.46"><defs><style>.a{fill:#1492e6;}</style></defs><g transform="translate(-26.48)"><g transform="translate(26.48)"><path class="a" d="M55.668,12.814a12.814,12.814,0,1,0-25.628,0,3.865,3.865,0,0,0-3.559,4.2v6.692a3.973,3.973,0,0,0,4.271,4.271h2.065a.712.712,0,0,0,.712-.712V13.483a.712.712,0,0,0-.712-.712H31.463a11.39,11.39,0,0,1,22.781,0H52.891a.712.712,0,0,0-.712.712V27.244a.712.712,0,0,0,.712.712h1.353c-.2,4.891-2.549,6.037-7.24,6.243v-.477A1.424,1.424,0,0,0,45.58,32.3H41.1a1.424,1.424,0,0,0-1.424,1.424v2.314A1.424,1.424,0,0,0,41.1,37.46h4.492a1.424,1.424,0,0,0,1.424-1.424v-.413c4.513-.206,8.415-1.139,8.65-7.71a3.865,3.865,0,0,0,3.559-4.2V17.021A3.859,3.859,0,0,0,55.668,12.814ZM32.1,14.145V26.532H30.716a2.585,2.585,0,0,1-2.848-2.848V16.993a2.588,2.588,0,0,1,2.848-2.848Zm13.49,20.816v1.082H41.1V33.73h4.492ZM57.8,23.706a2.588,2.588,0,0,1-2.848,2.848H53.6V14.2h1.388a2.585,2.585,0,0,1,2.848,2.848Z" transform="translate(-26.48)"/></g></g></svg>