<svg xmlns="http://www.w3.org/2000/svg" width="22.305" height="22.305" viewBox="0 0 22.305 22.305"><defs><style>.a{fill:#2680eb;}</style></defs><g transform="translate(0 10.456)"><path class="a" d="M19.038,240H3.267a3.267,3.267,0,1,0,0,6.535h15.77a3.267,3.267,0,1,0,0-6.535Zm-15.77,3.921a.653.653,0,1,1,.653-.653A.653.653,0,0,1,3.267,243.921Zm2.657,0a.653.653,0,1,1,.653-.653A.653.653,0,0,1,5.925,243.921Zm2.614,0a.653.653,0,1,1,.653-.653A.653.653,0,0,1,8.539,243.921Zm10.5,0H13.766a.653.653,0,0,1,0-1.307h5.271a.653.653,0,0,1,0,1.307Z" transform="translate(0 -240)"/></g><g transform="translate(4.03)"><path class="a" d="M106.562,2.871a9.8,9.8,0,0,0-13.862,0,.653.653,0,0,0,.924.924,8.5,8.5,0,0,1,12.014,0,.653.653,0,0,0,.924-.924Z" transform="translate(-92.509)"/></g><g transform="translate(5.878 2.614)"><path class="a" d="M145.288,62.105a7.189,7.189,0,0,0-10.166,0,.653.653,0,1,0,.924.924,5.882,5.882,0,0,1,8.318,0,.653.653,0,1,0,.924-.924Z" transform="translate(-134.931 -60)"/></g><g transform="translate(7.728 5.272)"><path class="a" d="M184.054,122.315a4.678,4.678,0,0,0-6.466,0,.653.653,0,1,0,.924.924,3.337,3.337,0,0,1,4.618,0,.653.653,0,0,0,.924-.924Z" transform="translate(-177.397 -121.018)"/></g><g transform="translate(9.576 7.86)"><path class="a" d="M222.766,180.988a2,2,0,0,0-2.771,0,.653.653,0,0,0,.924.924.666.666,0,0,1,.923,0,.653.653,0,0,0,.924-.924Z" transform="translate(-219.804 -180.432)"/></g><g transform="translate(5.271 18.297)"><path class="a" d="M130.8,421.394h-1.96V420h-3.921v1.394h-1.96a1.96,1.96,0,0,0-1.96,1.96.654.654,0,0,0,.653.653h10.456a.654.654,0,0,0,.653-.653A1.96,1.96,0,0,0,130.8,421.394Z" transform="translate(-121 -420)"/></g></svg>