<svg xmlns="http://www.w3.org/2000/svg" width="11.821" height="13.64" viewBox="0 0 11.821 13.64"><defs><style>.a{fill:#2680eb;}</style></defs><path class="a" d="M11.759,99.408a.455.455,0,0,0-.622-.164l-1.358.792c-.059-.3-.123-.686-.171-1.029a.455.455,0,0,0-.9.127c.064.456.15.99.246,1.384l-.987.576c-.021-.24-.038-.524-.048-.8A.447.447,0,0,0,7.9,99.92a.453.453,0,0,0-.42-.232l-.02,0c-.008,0-.016,0-.024.006a.456.456,0,0,0-.192.047c-.286.157-.616.323-.875.448v-1.1c.393-.112.914-.308,1.358-.487a.455.455,0,1,0-.341-.843c-.337.136-.722.28-1.017.382V96.455a.455.455,0,0,0-.909,0V98.14c-.3-.1-.681-.244-1.017-.38A.455.455,0,1,0,4.1,98.6c.444.179.965.375,1.358.487v1.074c-.259-.122-.566-.277-.837-.425a.481.481,0,0,0-.366-.027.443.443,0,0,0-.118.032.454.454,0,0,0-.227.383c-.008.322-.028.684-.05.969l-.922-.538c.1-.4.189-.952.256-1.424a.455.455,0,0,0-.9-.127c-.051.36-.118.765-.178,1.071l-1.43-.834a.455.455,0,0,0-.458.786l1.432.835c-.238.209-.549.467-.838.692a.455.455,0,1,0,.559.717c.377-.294.8-.646,1.1-.93l.931.543c-.243.171-.549.373-.831.545a.454.454,0,0,0,0,.776c.286.174.6.378.835.542l-.935.546c-.294-.284-.722-.636-1.1-.93a.455.455,0,1,0-.559.717c.29.227.6.485.839.691l-1.433.836a.455.455,0,0,0,.458.786l1.429-.833c.061.309.129.712.179,1.07a.455.455,0,0,0,.449.391.441.441,0,0,0,.064,0,.455.455,0,0,0,.387-.514c-.066-.472-.157-1.027-.256-1.424l.918-.536c.026.291.046.649.053.967a.453.453,0,0,0,.227.383.439.439,0,0,0,.116.031.442.442,0,0,0,.054.014.467.467,0,0,0,.057.015c.01,0,.019-.007.028-.007a.44.44,0,0,0,.228-.048c.272-.149.584-.307.837-.429v1.162c-.393.112-.914.307-1.358.487a.455.455,0,1,0,.341.843c.337-.136.722-.28,1.017-.381v1.6a.455.455,0,0,0,.909,0v-1.6c.3.1.681.244,1.017.38a.455.455,0,1,0,.341-.843c-.444-.179-.964-.375-1.358-.487v-1.176c.268.124.59.287.875.442a.453.453,0,0,0,.24.051c.006,0,.012,0,.018,0a.454.454,0,0,0,.4-.237.447.447,0,0,0,.021-.378c.01-.276.026-.563.044-.8l.991.578c-.1.393-.181.928-.246,1.384a.455.455,0,0,0,.387.514.44.44,0,0,0,.064,0,.455.455,0,0,0,.449-.391c.049-.344.112-.729.17-1.03l1.359.793a.455.455,0,0,0,.458-.786l-1.384-.807c.241-.213.567-.484.869-.72a.455.455,0,1,0-.559-.717,14.491,14.491,0,0,0-1.129.958l-.98-.572c.243-.171.549-.373.831-.545a.454.454,0,0,0,0-.776c-.286-.174-.6-.378-.835-.542l.984-.574a14.485,14.485,0,0,0,1.129.958.455.455,0,1,0,.559-.717c-.3-.237-.633-.51-.871-.719l1.386-.808A.455.455,0,0,0,11.759,99.408Z" transform="translate(0 -96)"/></svg>