<svg xmlns="http://www.w3.org/2000/svg" width="31.945" height="37.459" viewBox="0 0 31.945 37.459"><defs><style>.a{fill:#1492e6;}</style></defs><g transform="translate(0 0)"><g transform="translate(0 0)"><path class="a" d="M69.047,6.468A62.311,62.311,0,0,1,54.055.109a.788.788,0,0,0-.8,0A60.6,60.6,0,0,1,38.261,6.468a.788.788,0,0,0-.58.76v8.051A23.162,23.162,0,0,0,44.715,32.2c3.454,3.385,7.478,5.257,8.939,5.257s5.485-1.872,8.939-5.257a23.162,23.162,0,0,0,7.033-16.923V7.228A.788.788,0,0,0,69.047,6.468Zm-1,8.811a21.617,21.617,0,0,1-6.56,15.8c-3.4,3.329-7.029,4.806-7.836,4.806s-4.439-1.478-7.836-4.806a21.618,21.618,0,0,1-6.56-15.8V7.826A62.057,62.057,0,0,0,53.654,1.7a64.021,64.021,0,0,0,14.4,6.125Z" transform="translate(-37.681 0)"/><path class="a" d="M86.2,99.443A.788.788,0,0,0,85.173,99c-1.408.555-2.852,1.065-4.294,1.517a.788.788,0,0,0-.552.752v3.043a.788.788,0,0,0,1.576,0v-2.467c1.293-.418,2.585-.881,3.848-1.379A.788.788,0,0,0,86.2,99.443Z" transform="translate(-77.207 -91.704)"/><path class="a" d="M170.992,87.786a.788.788,0,0,0,.316-.066l.014-.006a.788.788,0,1,0-.636-1.442l-.013.005a.788.788,0,0,0,.319,1.509Z" transform="translate(-160.507 -79.898)"/><path class="a" d="M309.256,345.656a.788.788,0,0,0-1.091.229,19.178,19.178,0,0,1-2.264,2.828,20.127,20.127,0,0,1-2.26,2.011.788.788,0,1,0,.956,1.253,21.718,21.718,0,0,0,2.438-2.169,20.733,20.733,0,0,0,2.451-3.062A.788.788,0,0,0,309.256,345.656Z" transform="translate(-283.895 -320.248)"/><path class="a" d="M277,432.074l-.045.027a.788.788,0,1,0,.789,1.364l.052-.031a.788.788,0,1,0-.8-1.36Z" transform="translate(-259.086 -400.362)"/><path class="a" d="M127.194,160.41a2.562,2.562,0,0,0-3.624,3.624l4.653,4.653a2.563,2.563,0,0,0,3.624,0l9.713-9.713a2.562,2.562,0,0,0-3.624-3.624l-7.9,7.9Zm11.857-3.946a.986.986,0,1,1,1.395,1.395l-9.713,9.713a.987.987,0,0,1-1.4,0l-4.653-4.653a.986.986,0,0,1,1.395-1.4l3.4,3.4a.788.788,0,0,0,1.114,0Z" transform="translate(-116.592 -143.288)"/></g></g></svg>